Cabin-Regular.ufo
<glyph name="exclam" format="2">
  <advance width="484"/>
  <unicode hex="0021"/>
  <outline>
    <contour>
      <point x="158" y="344" type="line"/>
      <point x="326" y="344" type="line"/>
      <point x="326" y="396" type="line"/>
      <point x="366" y="1400" type="line"/>
      <point x="118" y="1400" type="line"/>
      <point x="158" y="396" type="line"/>
    </contour>
    <contour>
      <point x="134" y="0" type="line"/>
      <point x="350" y="0" type="line"/>
      <point x="350" y="212" type="line"/>
      <point x="134" y="212" type="line"/>
    </contour>
  </outline>
</glyph>
<glyph name="numbersign" format="2">
  <advance width="1408"/>
  <unicode hex="0023"/>
  <outline>
    <contour>
      <point x="134" y="-22" type="line"/>
      <point x="294" y="-22" type="line"/>
      <point x="468" y="432" type="line"/>
      <point x="734" y="432" type="line"/>
      <point x="560" y="-22" type="line"/>
      <point x="722" y="-22" type="line"/>
      <point x="894" y="432" type="line"/>
      <point x="1138" y="432" type="line"/>
      <point x="1220" y="614" type="line"/>
      <point x="964" y="614" type="line"/>
      <point x="1054" y="844" type="line"/>
      <point x="1286" y="844" type="line"/>
      <point x="1344" y="1014" type="line"/>
      <point x="1118" y="1014" type="line"/>
      <point x="1266" y="1400" type="line"/>
      <point x="1106" y="1400" type="line"/>
      <point x="956" y="1014" type="line"/>
      <point x="690" y="1014" type="line"/>
      <point x="840" y="1400" type="line"/>
      <point x="678" y="1400" type="line"/>
      <point x="530" y="1014" type="line"/>
      <point x="272" y="1014" type="line"/>
      <point x="214" y="844" type="line"/>
      <point x="466" y="844" type="line"/>
      <point x="376" y="614" type="line"/>
      <point x="146" y="614" type="line"/>
      <point x="66" y="432" type="line"/>
      <point x="306" y="432" type="line"/>
    </contour>
    <contour>
      <point x="538" y="614" type="line"/>
      <point x="628" y="844" type="line"/>
      <point x="892" y="844" type="line"/>
      <point x="802" y="614" type="line"/>
    </contour>
  </outline>
</glyph>
<glyph name="dollar" format="2">
  <advance width="1168"/>
  <unicode hex="0024"/>
  <outline>
    <contour>
      <point x="560" y="-28" type="curve" smooth="yes"/>
      <point x="926" y="-28"/>
      <point x="1106" y="122"/>
      <point x="1106" y="362" type="curve" smooth="yes"/>
      <point x="1106" y="606"/>
      <point x="930" y="718"/>
      <point x="638" y="806" type="curve" smooth="yes"/>
      <point x="426" y="870"/>
      <point x="318" y="920"/>
      <point x="318" y="1060" type="curve" smooth="yes"/>
      <point x="318" y="1198"/>
      <point x="438" y="1256"/>
      <point x="602" y="1256" type="curve" smooth="yes"/>
      <point x="750" y="1256"/>
      <point x="882" y="1220"/>
      <point x="1034" y="1130" type="curve"/>
      <point x="1054" y="1332" type="line"/>
      <point x="954" y="1380"/>
      <point x="794" y="1428"/>
      <point x="610" y="1428" type="curve" smooth="yes"/>
      <point x="286" y="1428"/>
      <point x="110" y="1272"/>
      <point x="110" y="1050" type="curve" smooth="yes"/>
      <point x="110" y="790"/>
      <point x="306" y="704"/>
      <point x="536" y="636" type="curve" smooth="yes"/>
      <point x="778" y="564"/>
      <point x="898" y="506"/>
      <point x="898" y="348" type="curve" smooth="yes"/>
      <point x="898" y="208"/>
      <point x="784" y="144"/>
      <point x="604" y="144" type="curve" smooth="yes"/>
      <point x="422" y="144"/>
      <point x="236" y="212"/>
      <point x="128" y="264" type="curve"/>
      <point x="102" y="62" type="line"/>
      <point x="200" y="16"/>
      <point x="386" y="-28"/>
    </contour>
    <contour>
      <point x="542" y="-288" type="line"/>
      <point x="698" y="-288" type="line"/>
      <point x="678" y="68" type="line"/>
      <point x="562" y="68" type="line"/>
    </contour>
    <contour>
      <point x="562" y="1346" type="line"/>
      <point x="678" y="1346" type="line"/>
      <point x="698" y="1688" type="line"/>
      <point x="542" y="1688" type="line"/>
    </contour>
  </outline>
</glyph>
<glyph name="ampersand" format="2">
  <advance width="1222"/>
  <unicode hex="0026"/>
  <outline>
    <contour>
      <point x="518" y="-46" type="curve" smooth="yes"/>
      <point x="678" y="-46"/>
      <point x="788" y="-12"/>
      <point x="914" y="92" type="curve"/>
      <point x="1002" y="0" type="line"/>
      <point x="1186" y="0" type="line"/>
      <point x="1012" y="200" type="line"/>
      <point x="1118" y="368"/>
      <point x="1138" y="584"/>
      <point x="1142" y="702" type="curve"/>
      <point x="980" y="702" type="line"/>
      <point x="976" y="618"/>
      <point x="960" y="394"/>
      <point x="902" y="322" type="curve"/>
      <point x="522" y="712" type="line"/>
      <point x="698" y="834"/>
      <point x="860" y="956"/>
      <point x="860" y="1130" type="curve" smooth="yes"/>
      <point x="860" y="1286"/>
      <point x="758" y="1406"/>
      <point x="530" y="1406" type="curve" smooth="yes"/>
      <point x="336" y="1406"/>
      <point x="174" y="1282"/>
      <point x="174" y="1072" type="curve" smooth="yes"/>
      <point x="174" y="980"/>
      <point x="208" y="874"/>
      <point x="324" y="732" type="curve"/>
      <point x="146" y="606"/>
      <point x="72" y="478"/>
      <point x="72" y="324" type="curve" smooth="yes"/>
      <point x="72" y="120"/>
      <point x="236" y="-46"/>
    </contour>
    <contour>
      <point x="522" y="90" type="curve" smooth="yes"/>
      <point x="330" y="90"/>
      <point x="246" y="202"/>
      <point x="246" y="338" type="curve" smooth="yes"/>
      <point x="246" y="456"/>
      <point x="314" y="560"/>
      <point x="408" y="626" type="curve"/>
      <point x="824" y="210" type="line"/>
      <point x="758" y="138"/>
      <point x="666" y="90"/>
    </contour>
    <contour>
      <point x="446" y="812" type="curve"/>
      <point x="356" y="922"/>
      <point x="336" y="1008"/>
      <point x="336" y="1068" type="curve" smooth="yes"/>
      <point x="336" y="1202"/>
      <point x="428" y="1268"/>
      <point x="528" y="1268" type="curve" smooth="yes"/>
      <point x="632" y="1268"/>
      <point x="698" y="1214"/>
      <point x="698" y="1118" type="curve" smooth="yes"/>
      <point x="698" y="996"/>
      <point x="610" y="926"/>
    </contour>
  </outline>
</glyph>
<glyph name="quotesingle" format="2">
  <advance width="344"/>
  <unicode hex="0027"/>
  <outline>
    <contour>
      <point x="108" y="980" type="line"/>
      <point x="236" y="980" type="line"/>
      <point x="272" y="1400" type="line"/>
      <point x="72" y="1400" type="line"/>
    </contour>
  </outline>
</glyph>
<glyph name="parenleft" format="2">
  <advance width="626"/>
  <unicode hex="0028"/>
  <outline>
    <contour>
      <point x="408" y="-272" type="curve"/>
      <point x="566" y="-272" type="line"/>
      <point x="432" y="-48"/>
      <point x="320" y="232"/>
      <point x="320" y="614" type="curve" smooth="yes"/>
      <point x="320" y="996"/>
      <point x="432" y="1276"/>
      <point x="566" y="1500" type="curve"/>
      <point x="408" y="1500" type="line"/>
      <point x="260" y="1284"/>
      <point x="140" y="1014"/>
      <point x="140" y="614" type="curve" smooth="yes"/>
      <point x="140" y="214"/>
      <point x="260" y="-56"/>
    </contour>
  </outline>
</glyph>
<glyph name="parenright" format="2">
  <advance width="626"/>
  <unicode hex="0029"/>
  <outline>
    <contour>
      <point x="60" y="-272" type="curve"/>
      <point x="218" y="-272" type="line"/>
      <point x="366" y="-56"/>
      <point x="486" y="214"/>
      <point x="486" y="614" type="curve" smooth="yes"/>
      <point x="486" y="1014"/>
      <point x="366" y="1284"/>
      <point x="218" y="1500" type="curve"/>
      <point x="60" y="1500" type="line"/>
      <point x="194" y="1276"/>
      <point x="306" y="996"/>
      <point x="306" y="614" type="curve" smooth="yes"/>
      <point x="306" y="232"/>
      <point x="194" y="-48"/>
    </contour>
  </outline>
</glyph>
<glyph name="asterisk" format="2">
  <advance width="854"/>
  <unicode hex="002A"/>
  <guideline x="212" y="559" angle="0"/>
  <outline>
    <contour>
      <point x="68" y="954" type="line"/>
      <point x="122" y="858" type="line"/>
      <point x="382" y="1036" type="line"/>
      <point x="372" y="734" type="line"/>
      <point x="482" y="734" type="line"/>
      <point x="472" y="1036" type="line"/>
      <point x="732" y="858" type="line"/>
      <point x="786" y="954" type="line"/>
      <point x="510" y="1118" type="line"/>
      <point x="786" y="1280" type="line"/>
      <point x="732" y="1376" type="line"/>
      <point x="472" y="1198" type="line"/>
      <point x="482" y="1500" type="line"/>
      <point x="372" y="1500" type="line"/>
      <point x="382" y="1198" type="line"/>
      <point x="122" y="1376" type="line"/>
      <point x="68" y="1280" type="line"/>
      <point x="344" y="1118" type="line"/>
    </contour>
  </outline>
</glyph>
<glyph name="plus" format="2">
  <advance width="884"/>
  <unicode hex="002B"/>
  <outline>
    <contour>
      <point x="362" y="220" type="line"/>
      <point x="522" y="220" type="line"/>
      <point x="522" y="486" type="line"/>
      <point x="792" y="486" type="line"/>
      <point x="792" y="638" type="line"/>
      <point x="522" y="638" type="line"/>
      <point x="522" y="904" type="line"/>
      <point x="362" y="904" type="line"/>
      <point x="362" y="638" type="line"/>
      <point x="92" y="638" type="line"/>
      <point x="92" y="486" type="line"/>
      <point x="362" y="486" type="line"/>
    </contour>
  </outline>
</glyph>
<glyph name="comma" format="2">
  <advance width="432"/>
  <unicode hex="002C"/>
  <outline>
    <contour>
      <point x="228" y="-214" type="line"/>
      <point x="332" y="20" type="line"/>
      <point x="332" y="212" type="line"/>
      <point x="116" y="212" type="line"/>
      <point x="116" y="0" type="line"/>
      <point x="186" y="0" type="line"/>
      <point x="114" y="-214" type="line"/>
    </contour>
  </outline>
</glyph>
<glyph name="hyphen" format="2">
  <advance width="848"/>
  <unicode hex="002D"/>
  <outline>
    <contour>
      <point x="114" y="536" type="line"/>
      <point x="734" y="536" type="line"/>
      <point x="734" y="708" type="line"/>
      <point x="114" y="708" type="line"/>
    </contour>
  </outline>
</glyph>
<glyph name="period" format="2">
  <advance width="416"/>
  <unicode hex="002E"/>
  <outline>
    <contour>
      <point x="100" y="0" type="line"/>
      <point x="316" y="0" type="line"/>
      <point x="316" y="212" type="line"/>
      <point x="100" y="212" type="line"/>
    </contour>
  </outline>
</glyph>
<glyph name="zero" format="2">
  <advance width="1396"/>
  <unicode hex="0030"/>
  <outline>
    <contour>
      <point x="698" y="-28" type="curve" smooth="yes"/>
      <point x="1070" y="-28"/>
      <point x="1288" y="280"/>
      <point x="1288" y="712" type="curve" smooth="yes"/>
      <point x="1288" y="1144"/>
      <point x="1054" y="1428"/>
      <point x="698" y="1428" type="curve" smooth="yes"/>
      <point x="350" y="1428"/>
      <point x="108" y="1144"/>
      <point x="108" y="712" type="curve" smooth="yes"/>
      <point x="108" y="280"/>
      <point x="328" y="-28"/>
    </contour>
    <contour>
      <point x="698" y="144" type="curve" smooth="yes"/>
      <point x="450" y="144"/>
      <point x="310" y="348"/>
      <point x="310" y="712" type="curve" smooth="yes"/>
      <point x="310" y="1076"/>
      <point x="474" y="1256"/>
      <point x="698" y="1256" type="curve" smooth="yes"/>
      <point x="934" y="1256"/>
      <point x="1086" y="1076"/>
      <point x="1086" y="712" type="curve" smooth="yes"/>
      <point x="1086" y="348"/>
      <point x="946" y="144"/>
    </contour>
  </outline>
</glyph>
<glyph name="one" format="2">
  <advance width="652"/>
  <unicode hex="0031"/>
  <outline>
    <contour>
      <point x="308" y="0" type="line"/>
      <point x="492" y="0" type="line"/>
      <point x="492" y="1400" type="line"/>
      <point x="362" y="1400" type="line"/>
      <point x="302" y="1306"/>
      <point x="176" y="1218"/>
      <point x="68" y="1182" type="curve"/>
      <point x="100" y="1004" type="line"/>
      <point x="156" y="1022"/>
      <point x="212" y="1048"/>
      <point x="308" y="1126" type="curve"/>
    </contour>
  </outline>
</glyph>
<glyph name="two" format="2">
  <advance width="1048"/>
  <unicode hex="0032"/>
  <guideline x="470" y="86" angle="90"/>
  <outline>
    <contour>
      <point x="114" y="2" type="line"/>
      <point x="942" y="2" type="line"/>
      <point x="942" y="174" type="line"/>
      <point x="452" y="174" type="line"/>
      <point x="664" y="494" type="line" smooth="yes"/>
      <point x="812" y="718"/>
      <point x="888" y="860"/>
      <point x="888" y="1046" type="curve" smooth="yes"/>
      <point x="888" y="1262"/>
      <point x="754" y="1430"/>
      <point x="498" y="1430" type="curve" smooth="yes"/>
      <point x="338" y="1430"/>
      <point x="206" y="1368"/>
      <point x="114" y="1294" type="curve"/>
      <point x="138" y="1094" type="line"/>
      <point x="232" y="1190"/>
      <point x="344" y="1252"/>
      <point x="478" y="1252" type="curve" smooth="yes"/>
      <point x="612" y="1252"/>
      <point x="696" y="1164"/>
      <point x="696" y="1026" type="curve" smooth="yes"/>
      <point x="696" y="906"/>
      <point x="622" y="772"/>
      <point x="496" y="582" type="curve" smooth="yes"/>
    </contour>
  </outline>
</glyph>
<glyph name="three" format="2">
  <advance width="1082"/>
  <unicode hex="0033"/>
  <outline>
    <contour>
      <point x="480" y="-28" type="curve" smooth="yes"/>
      <point x="754" y="-28"/>
      <point x="962" y="128"/>
      <point x="962" y="384" type="curve" smooth="yes"/>
      <point x="962" y="594"/>
      <point x="836" y="710"/>
      <point x="624" y="752" type="curve"/>
      <point x="624" y="706" type="line"/>
      <point x="804" y="744"/>
      <point x="918" y="876"/>
      <point x="918" y="1058" type="curve" smooth="yes"/>
      <point x="918" y="1276"/>
      <point x="772" y="1428"/>
      <point x="512" y="1428" type="curve" smooth="yes"/>
      <point x="370" y="1428"/>
      <point x="252" y="1394"/>
      <point x="150" y="1336" type="curve"/>
      <point x="182" y="1142" type="line"/>
      <point x="276" y="1206"/>
      <point x="372" y="1256"/>
      <point x="486" y="1256" type="curve" smooth="yes"/>
      <point x="630" y="1256"/>
      <point x="710" y="1184"/>
      <point x="710" y="1034" type="curve" smooth="yes"/>
      <point x="710" y="892"/>
      <point x="602" y="806"/>
      <point x="430" y="806" type="curve" smooth="yes"/>
      <point x="342" y="806" type="line"/>
      <point x="342" y="634" type="line"/>
      <point x="430" y="634" type="line" smooth="yes"/>
      <point x="656" y="634"/>
      <point x="760" y="532"/>
      <point x="760" y="378" type="curve" smooth="yes"/>
      <point x="760" y="240"/>
      <point x="656" y="144"/>
      <point x="482" y="144" type="curve" smooth="yes"/>
      <point x="344" y="144"/>
      <point x="240" y="188"/>
      <point x="126" y="254" type="curve"/>
      <point x="80" y="78" type="line"/>
      <point x="194" y="16"/>
      <point x="326" y="-28"/>
    </contour>
  </outline>
</glyph>
<glyph name="four" format="2">
  <advance width="1156"/>
  <unicode hex="0034"/>
  <outline>
    <contour>
      <point x="730" y="0" type="line"/>
      <point x="922" y="0" type="line"/>
      <point x="922" y="362" type="line"/>
      <point x="1102" y="362" type="line"/>
      <point x="1102" y="524" type="line"/>
      <point x="922" y="524" type="line"/>
      <point x="922" y="1400" type="line"/>
      <point x="784" y="1400" type="line"/>
      <point x="40" y="362" type="line"/>
      <point x="730" y="362" type="line"/>
    </contour>
    <contour>
      <point x="320" y="470" type="line"/>
      <point x="764" y="1094" type="line"/>
      <point x="730" y="1150" type="line"/>
      <point x="730" y="524" type="line"/>
      <point x="286" y="524" type="line"/>
    </contour>
  </outline>
</glyph>
<glyph name="five" format="2">
  <advance width="1082"/>
  <unicode hex="0035"/>
  <outline>
    <contour>
      <point x="492" y="-28" type="curve" smooth="yes"/>
      <point x="776" y="-28"/>
      <point x="990" y="150"/>
      <point x="990" y="434" type="curve" smooth="yes"/>
      <point x="990" y="692"/>
      <point x="818" y="884"/>
      <point x="520" y="884" type="curve" smooth="yes"/>
      <point x="452" y="884"/>
      <point x="384" y="876"/>
      <point x="324" y="864" type="curve"/>
      <point x="366" y="782" type="line"/>
      <point x="418" y="1220" type="line"/>
      <point x="914" y="1220" type="line"/>
      <point x="922" y="1400" type="line"/>
      <point x="262" y="1400" type="line"/>
      <point x="176" y="688" type="line"/>
      <point x="270" y="712"/>
      <point x="356" y="728"/>
      <point x="458" y="728" type="curve" smooth="yes"/>
      <point x="650" y="728"/>
      <point x="782" y="626"/>
      <point x="782" y="434" type="curve" smooth="yes"/>
      <point x="782" y="264"/>
      <point x="660" y="156"/>
      <point x="482" y="156" type="curve" smooth="yes"/>
      <point x="348" y="156"/>
      <point x="246" y="200"/>
      <point x="148" y="254" type="curve"/>
      <point x="102" y="78" type="line"/>
      <point x="202" y="14"/>
      <point x="344" y="-28"/>
    </contour>
  </outline>
</glyph>
<glyph name="six" format="2">
  <advance width="1136"/>
  <unicode hex="0036"/>
  <outline>
    <contour>
      <point x="590" y="-28" type="curve" smooth="yes"/>
      <point x="864" y="-28"/>
      <point x="1050" y="156"/>
      <point x="1050" y="416" type="curve" smooth="yes"/>
      <point x="1050" y="658"/>
      <point x="878" y="840"/>
      <point x="634" y="840" type="curve" smooth="yes"/>
      <point x="456" y="840"/>
      <point x="318" y="760"/>
      <point x="254" y="632" type="curve"/>
      <point x="318" y="524" type="line"/>
      <point x="318" y="874"/>
      <point x="578" y="1158"/>
      <point x="874" y="1306" type="curve"/>
      <point x="744" y="1428" type="line"/>
      <point x="450" y="1274"/>
      <point x="124" y="932"/>
      <point x="124" y="492" type="curve" smooth="yes"/>
      <point x="124" y="182"/>
      <point x="296" y="-28"/>
    </contour>
    <contour>
      <point x="590" y="136" type="curve" smooth="yes"/>
      <point x="430" y="136"/>
      <point x="324" y="250"/>
      <point x="324" y="408" type="curve" smooth="yes"/>
      <point x="324" y="560"/>
      <point x="430" y="676"/>
      <point x="590" y="676" type="curve" smooth="yes"/>
      <point x="750" y="676"/>
      <point x="854" y="560"/>
      <point x="854" y="410" type="curve" smooth="yes"/>
      <point x="854" y="256"/>
      <point x="750" y="136"/>
    </contour>
  </outline>
</glyph>
<glyph name="seven" format="2">
  <advance width="1006"/>
  <unicode hex="0037"/>
  <outline>
    <contour>
      <point x="180" y="0" type="line"/>
      <point x="380" y="0" type="line"/>
      <point x="986" y="1400" type="line"/>
      <point x="80" y="1400" type="line"/>
      <point x="80" y="1220" type="line"/>
      <point x="796" y="1220" type="line"/>
      <point x="744" y="1306" type="line"/>
    </contour>
  </outline>
</glyph>
<glyph name="eight" format="2">
  <advance width="1212"/>
  <unicode hex="0038"/>
  <outline>
    <contour>
      <point x="606" y="-28" type="curve" smooth="yes"/>
      <point x="904" y="-28"/>
      <point x="1092" y="148"/>
      <point x="1092" y="400" type="curve" smooth="yes"/>
      <point x="1092" y="660"/>
      <point x="896" y="832"/>
      <point x="606" y="832" type="curve" smooth="yes"/>
      <point x="316" y="832"/>
      <point x="120" y="660"/>
      <point x="120" y="400" type="curve" smooth="yes"/>
      <point x="120" y="148"/>
      <point x="306" y="-28"/>
    </contour>
    <contour>
      <point x="606" y="144" type="curve" smooth="yes"/>
      <point x="422" y="144"/>
      <point x="316" y="246"/>
      <point x="316" y="400" type="curve" smooth="yes"/>
      <point x="316" y="560"/>
      <point x="422" y="676"/>
      <point x="606" y="676" type="curve" smooth="yes"/>
      <point x="790" y="676"/>
      <point x="896" y="560"/>
      <point x="896" y="400" type="curve" smooth="yes"/>
      <point x="896" y="246"/>
      <point x="790" y="144"/>
    </contour>
    <contour>
      <point x="606" y="686" type="curve" smooth="yes"/>
      <point x="858" y="686"/>
      <point x="1020" y="836"/>
      <point x="1020" y="1050" type="curve" smooth="yes"/>
      <point x="1020" y="1234"/>
      <point x="906" y="1428"/>
      <point x="606" y="1428" type="curve" smooth="yes"/>
      <point x="306" y="1428"/>
      <point x="184" y="1234"/>
      <point x="184" y="1050" type="curve" smooth="yes"/>
      <point x="184" y="836"/>
      <point x="372" y="686"/>
    </contour>
    <contour>
      <point x="606" y="842" type="curve" smooth="yes"/>
      <point x="458" y="842"/>
      <point x="374" y="936"/>
      <point x="374" y="1050" type="curve" smooth="yes"/>
      <point x="374" y="1172"/>
      <point x="458" y="1256"/>
      <point x="606" y="1256" type="curve" smooth="yes"/>
      <point x="754" y="1256"/>
      <point x="830" y="1172"/>
      <point x="830" y="1050" type="curve" smooth="yes"/>
      <point x="830" y="936"/>
      <point x="754" y="842"/>
    </contour>
  </outline>
</glyph>
<glyph name="nine" format="2">
  <advance width="1136"/>
  <unicode hex="0039"/>
  <outline>
    <contour>
      <point x="412" y="0" type="line"/>
      <point x="696" y="150"/>
      <point x="1012" y="482"/>
      <point x="1012" y="908" type="curve" smooth="yes"/>
      <point x="1012" y="1218"/>
      <point x="840" y="1428"/>
      <point x="546" y="1428" type="curve" smooth="yes"/>
      <point x="272" y="1428"/>
      <point x="86" y="1244"/>
      <point x="86" y="984" type="curve" smooth="yes"/>
      <point x="86" y="742"/>
      <point x="258" y="560"/>
      <point x="502" y="560" type="curve" smooth="yes"/>
      <point x="680" y="560"/>
      <point x="818" y="640"/>
      <point x="882" y="768" type="curve"/>
      <point x="818" y="876" type="line"/>
      <point x="818" y="538"/>
      <point x="558" y="264"/>
      <point x="282" y="122" type="curve"/>
    </contour>
    <contour>
      <point x="546" y="724" type="curve" smooth="yes"/>
      <point x="386" y="724"/>
      <point x="282" y="840"/>
      <point x="282" y="990" type="curve" smooth="yes"/>
      <point x="282" y="1144"/>
      <point x="386" y="1264"/>
      <point x="546" y="1264" type="curve" smooth="yes"/>
      <point x="706" y="1264"/>
      <point x="812" y="1150"/>
      <point x="812" y="992" type="curve" smooth="yes"/>
      <point x="812" y="840"/>
      <point x="706" y="724"/>
    </contour>
  </outline>
</glyph>
<glyph name="less" format="2">
  <advance width="834"/>
  <unicode hex="003C"/>
  <outline>
    <contour>
      <point x="782" y="150" type="line"/>
      <point x="782" y="322" type="line"/>
      <point x="224" y="562" type="line"/>
      <point x="782" y="802" type="line"/>
      <point x="782" y="974" type="line"/>
      <point x="72" y="648" type="line"/>
      <point x="72" y="476" type="line"/>
    </contour>
  </outline>
</glyph>
<glyph name="equal" format="2">
  <advance width="884"/>
  <unicode hex="003D"/>
  <outline>
    <contour>
      <point x="92" y="636" type="line"/>
      <point x="792" y="636" type="line"/>
      <point x="792" y="788" type="line"/>
      <point x="92" y="788" type="line"/>
    </contour>
    <contour>
      <point x="92" y="320" type="line"/>
      <point x="792" y="320" type="line"/>
      <point x="792" y="472" type="line"/>
      <point x="92" y="472" type="line"/>
    </contour>
  </outline>
</glyph>
<glyph name="question" format="2">
  <advance width="924"/>
  <unicode hex="003F"/>
  <outline>
    <contour>
      <point x="310" y="344" type="line"/>
      <point x="498" y="344" type="line"/>
      <point x="498" y="406" type="line" smooth="yes"/>
      <point x="498" y="536"/>
      <point x="574" y="624"/>
      <point x="654" y="722" type="curve" smooth="yes"/>
      <point x="738" y="826"/>
      <point x="824" y="918"/>
      <point x="824" y="1074" type="curve" smooth="yes"/>
      <point x="824" y="1262"/>
      <point x="692" y="1428"/>
      <point x="442" y="1428" type="curve" smooth="yes"/>
      <point x="302" y="1428"/>
      <point x="200" y="1392"/>
      <point x="120" y="1342" type="curve"/>
      <point x="138" y="1180" type="line"/>
      <point x="212" y="1224"/>
      <point x="296" y="1256"/>
      <point x="396" y="1256" type="curve" smooth="yes"/>
      <point x="504" y="1256"/>
      <point x="616" y="1192"/>
      <point x="616" y="1050" type="curve" smooth="yes"/>
      <point x="616" y="938"/>
      <point x="562" y="874"/>
      <point x="474" y="766" type="curve" smooth="yes"/>
      <point x="392" y="666"/>
      <point x="310" y="568"/>
      <point x="310" y="394" type="curve" smooth="yes"/>
    </contour>
    <contour>
      <point x="296" y="0" type="line"/>
      <point x="512" y="0" type="line"/>
      <point x="512" y="212" type="line"/>
      <point x="296" y="212" type="line"/>
    </contour>
  </outline>
</glyph>
<glyph name="at" format="2">
  <advance width="1452"/>
  <unicode hex="0040"/>
  <outline>
    <contour>
      <point x="596" y="-174" type="curve" smooth="yes"/>
      <point x="864" y="-174"/>
      <point x="1106" y="-28"/>
      <point x="1236" y="186" type="curve"/>
      <point x="1230" y="192" type="line"/>
      <point x="1162" y="134"/>
      <point x="1056" y="84"/>
      <point x="992" y="84" type="curve" smooth="yes"/>
      <point x="902" y="84"/>
      <point x="876" y="178"/>
      <point x="876" y="242" type="curve" smooth="yes"/>
      <point x="876" y="272"/>
      <point x="880" y="298"/>
      <point x="882" y="312" type="curve"/>
      <point x="796" y="162"/>
      <point x="638" y="80"/>
      <point x="522" y="80" type="curve" smooth="yes"/>
      <point x="388" y="80"/>
      <point x="340" y="190"/>
      <point x="340" y="306" type="curve" smooth="yes"/>
      <point x="340" y="578"/>
      <point x="600" y="864"/>
      <point x="850" y="864" type="curve" smooth="yes"/>
      <point x="960" y="864"/>
      <point x="1042" y="810"/>
      <point x="1092" y="758" type="curve"/>
      <point x="1042" y="544"/>
      <point x="982" y="408"/>
      <point x="982" y="290" type="curve" smooth="yes"/>
      <point x="982" y="200"/>
      <point x="1018" y="188"/>
      <point x="1068" y="188" type="curve" smooth="yes"/>
      <point x="1274" y="188"/>
      <point x="1352" y="398"/>
      <point x="1352" y="600" type="curve" smooth="yes"/>
      <point x="1352" y="908"/>
      <point x="1168" y="1106"/>
      <point x="854" y="1106" type="curve" smooth="yes"/>
      <point x="450" y="1106"/>
      <point x="100" y="776"/>
      <point x="100" y="340" type="curve" smooth="yes"/>
      <point x="100" y="16"/>
      <point x="292" y="-174"/>
    </contour>
    <contour>
      <point x="588" y="212" type="curve" smooth="yes"/>
      <point x="722" y="212"/>
      <point x="920" y="484"/>
      <point x="958" y="698" type="curve"/>
      <point x="942" y="740"/>
      <point x="890" y="742"/>
      <point x="868" y="742" type="curve" smooth="yes"/>
      <point x="720" y="742"/>
      <point x="500" y="564"/>
      <point x="500" y="346" type="curve" smooth="yes"/>
      <point x="500" y="270"/>
      <point x="526" y="212"/>
    </contour>
  </outline>
</glyph>
<glyph name="A" format="2">
  <advance width="1232"/>
  <unicode hex="0041"/>
  <anchor x="616" y="0" name="bottom"/>
  <anchor x="1124" y="0" name="ogonek"/>
  <anchor x="616" y="1400" name="top"/>
  <outline>
    <contour>
      <point x="916" y="378" type="line"/>
      <point x="916" y="550" type="line"/>
      <point x="316" y="550" type="line"/>
      <point x="316" y="378" type="line"/>
    </contour>
    <contour>
      <point x="588" y="1214" type="line"/>
      <point x="1018" y="0" type="line"/>
      <point x="1218" y="0" type="line"/>
      <point x="716" y="1400" type="line"/>
      <point x="516" y="1400" type="line"/>
      <point x="14" y="0" type="line"/>
      <point x="214" y="0" type="line"/>
      <point x="644" y="1214" type="line"/>
    </contour>
  </outline>
</glyph>
<glyph name="B" format="2">
  <advance width="1194"/>
  <unicode hex="0042"/>
  <outline>
    <contour>
      <point x="160" y="0" type="line"/>
      <point x="688" y="0" type="line" smooth="yes"/>
      <point x="966" y="0"/>
      <point x="1134" y="154"/>
      <point x="1134" y="400" type="curve" smooth="yes"/>
      <point x="1134" y="612"/>
      <point x="1022" y="736"/>
      <point x="828" y="768" type="curve"/>
      <point x="800" y="736" type="line"/>
      <point x="936" y="772"/>
      <point x="1004" y="902"/>
      <point x="1004" y="1058" type="curve" smooth="yes"/>
      <point x="1004" y="1288"/>
      <point x="852" y="1400"/>
      <point x="602" y="1400" type="curve" smooth="yes"/>
      <point x="160" y="1400" type="line"/>
    </contour>
    <contour>
      <point x="350" y="172" type="line"/>
      <point x="350" y="646" type="line"/>
      <point x="672" y="646" type="line" smooth="yes"/>
      <point x="822" y="646"/>
      <point x="926" y="582"/>
      <point x="926" y="406" type="curve" smooth="yes"/>
      <point x="926" y="248"/>
      <point x="826" y="172"/>
      <point x="672" y="172" type="curve" smooth="yes"/>
    </contour>
    <contour>
      <point x="350" y="818" type="line"/>
      <point x="350" y="1230" type="line"/>
      <point x="578" y="1230" type="line" smooth="yes"/>
      <point x="714" y="1230"/>
      <point x="808" y="1188"/>
      <point x="808" y="1024" type="curve" smooth="yes"/>
      <point x="808" y="858"/>
      <point x="714" y="818"/>
      <point x="578" y="818" type="curve" smooth="yes"/>
    </contour>
  </outline>
</glyph>
<glyph name="D" format="2">
  <advance width="1454"/>
  <unicode hex="0044"/>
  <anchor x="728" y="0" name="bottom"/>
  <anchor x="728" y="1400" name="top"/>
  <outline>
    <contour>
      <point x="160" y="0" type="line"/>
      <point x="678" y="0" type="line" smooth="yes"/>
      <point x="1084" y="0"/>
      <point x="1374" y="258"/>
      <point x="1374" y="700" type="curve" smooth="yes"/>
      <point x="1374" y="1142"/>
      <point x="1084" y="1400"/>
      <point x="678" y="1400" type="curve" smooth="yes"/>
      <point x="160" y="1400" type="line"/>
    </contour>
    <contour>
      <point x="350" y="172" type="line"/>
      <point x="350" y="1228" type="line"/>
      <point x="678" y="1228" type="line" smooth="yes"/>
      <point x="998" y="1228"/>
      <point x="1166" y="1014"/>
      <point x="1166" y="700" type="curve" smooth="yes"/>
      <point x="1166" y="386"/>
      <point x="998" y="172"/>
      <point x="678" y="172" type="curve" smooth="yes"/>
    </contour>
  </outline>
</glyph>
<glyph name="F" format="2">
  <advance width="1046"/>
  <unicode hex="0046"/>
  <outline>
    <contour>
      <point x="160" y="0" type="line"/>
      <point x="350" y="0" type="line"/>
      <point x="350" y="646" type="line"/>
      <point x="862" y="646" type="line"/>
      <point x="862" y="818" type="line"/>
      <point x="350" y="818" type="line"/>
      <point x="350" y="1228" type="line"/>
      <point x="1014" y="1228" type="line"/>
      <point x="1014" y="1400" type="line"/>
      <point x="160" y="1400" type="line"/>
    </contour>
  </outline>
</glyph>
<glyph name="H" format="2">
  <advance width="1412"/>
  <unicode hex="0048"/>
  <anchor x="706" y="0" name="bottom"/>
  <anchor x="706" y="1400" name="top"/>
  <outline>
    <contour>
      <point x="160" y="0" type="line"/>
      <point x="350" y="0" type="line"/>
      <point x="350" y="642" type="line"/>
      <point x="1062" y="642" type="line"/>
      <point x="1062" y="0" type="line"/>
      <point x="1252" y="0" type="line"/>
      <point x="1252" y="1400" type="line"/>
      <point x="1062" y="1400" type="line"/>
      <point x="1062" y="822" type="line"/>
      <point x="350" y="822" type="line"/>
      <point x="350" y="1400" type="line"/>
      <point x="160" y="1400" type="line"/>
    </contour>
  </outline>
</glyph>
<glyph name="I" format="2">
  <advance width="510"/>
  <unicode hex="0049"/>
  <anchor x="256" y="0" name="bottom"/>
  <anchor x="294" y="0" name="ogonek"/>
  <anchor x="256" y="1400" name="top"/>
  <outline>
    <contour>
      <point x="160" y="0" type="line"/>
      <point x="350" y="0" type="line"/>
      <point x="350" y="1400" type="line"/>
      <point x="160" y="1400" type="line"/>
    </contour>
  </outline>
</glyph>
<glyph name="J" format="2">
  <advance width="510"/>
  <unicode hex="004A"/>
  <anchor x="256" y="1400" name="top"/>
  <outline>
    <contour>
      <point x="-14" y="-344" type="line"/>
      <point x="38" y="-344" type="line" smooth="yes"/>
      <point x="248" y="-344"/>
      <point x="350" y="-248"/>
      <point x="350" y="-28" type="curve" smooth="yes"/>
      <point x="350" y="1400" type="line"/>
      <point x="160" y="1400" type="line"/>
      <point x="160" y="16" type="line" smooth="yes"/>
      <point x="160" y="-120"/>
      <point x="104" y="-180"/>
      <point x="-40" y="-180" type="curve"/>
    </contour>
  </outline>
</glyph>
<glyph name="K" format="2">
  <advance width="1132"/>
  <unicode hex="004B"/>
  <anchor x="648" y="0" name="bottom"/>
  <anchor x="648" y="1400" name="top"/>
  <outline>
    <contour>
      <point x="888" y="0" type="line"/>
      <point x="1124" y="0" type="line"/>
      <point x="586" y="746" type="line"/>
      <point x="1118" y="1400" type="line"/>
      <point x="888" y="1400" type="line"/>
      <point x="370" y="742" type="line"/>
    </contour>
    <contour>
      <point x="160" y="0" type="line"/>
      <point x="350" y="0" type="line"/>
      <point x="350" y="1400" type="line"/>
      <point x="160" y="1400" type="line"/>
    </contour>
  </outline>
</glyph>
<glyph name="L" format="2">
  <advance width="1002"/>
  <unicode hex="004C"/>
  <guideline x="496" y="86" angle="90"/>
  <anchor x="576" y="0" name="bottom"/>
  <anchor x="756" y="768" name="center"/>
  <anchor x="256" y="1400" name="top"/>
  <anchor x="804" y="1400" name="topright"/>
  <outline>
    <contour>
      <point x="160" y="0" type="line"/>
      <point x="992" y="0" type="line"/>
      <point x="992" y="172" type="line"/>
      <point x="350" y="172" type="line"/>
      <point x="350" y="1400" type="line"/>
      <point x="160" y="1400" type="line"/>
    </contour>
  </outline>
</glyph>
<glyph name="M" format="2">
  <advance width="1624"/>
  <unicode hex="004D"/>
  <anchor x="812" y="0" name="bottom"/>
  <anchor x="812" y="1400" name="top"/>
  <outline>
    <contour>
      <point x="96" y="0" type="line"/>
      <point x="296" y="0" type="line"/>
      <point x="438" y="1142" type="line"/>
      <point x="388" y="1134" type="line"/>
      <point x="816" y="332" type="line"/>
      <point x="1236" y="1134" type="line"/>
      <point x="1186" y="1142" type="line"/>
      <point x="1328" y="0" type="line"/>
      <point x="1528" y="0" type="line"/>
      <point x="1342" y="1400" type="line"/>
      <point x="1178" y="1400" type="line"/>
      <point x="814" y="706" type="line"/>
      <point x="446" y="1400" type="line"/>
      <point x="284" y="1400" type="line"/>
    </contour>
  </outline>
</glyph>
<glyph name="N" format="2">
  <advance width="1408"/>
  <unicode hex="004E"/>
  <anchor x="718" y="0" name="bottom"/>
  <anchor x="712" y="1400" name="top"/>
  <outline>
    <contour>
      <point x="160" y="0" type="line"/>
      <point x="350" y="0" type="line"/>
      <point x="350" y="1106" type="line"/>
      <point x="1086" y="0" type="line"/>
      <point x="1248" y="0" type="line"/>
      <point x="1248" y="1400" type="line"/>
      <point x="1056" y="1400" type="line"/>
      <point x="1056" y="352" type="line"/>
      <point x="366" y="1400" type="line"/>
      <point x="160" y="1400" type="line"/>
    </contour>
  </outline>
</glyph>
<glyph name="O" format="2">
  <advance width="1540"/>
  <unicode hex="004F"/>
  <anchor x="770" y="0" name="bottom"/>
  <anchor x="874" y="0" name="ogonek"/>
  <anchor x="770" y="1400" name="top"/>
  <anchor x="958" y="1400" name="topright"/>
  <outline>
    <contour>
      <point x="770" y="-28" type="curve" smooth="yes"/>
      <point x="1170" y="-28"/>
      <point x="1460" y="256"/>
      <point x="1460" y="700" type="curve" smooth="yes"/>
      <point x="1460" y="1144"/>
      <point x="1170" y="1428"/>
      <point x="770" y="1428" type="curve" smooth="yes"/>
      <point x="370" y="1428"/>
      <point x="80" y="1144"/>
      <point x="80" y="700" type="curve" smooth="yes"/>
      <point x="80" y="256"/>
      <point x="370" y="-28"/>
    </contour>
    <contour>
      <point x="770" y="156" type="curve" smooth="yes"/>
      <point x="448" y="156"/>
      <point x="284" y="396"/>
      <point x="284" y="700" type="curve" smooth="yes"/>
      <point x="284" y="1004"/>
      <point x="448" y="1244"/>
      <point x="770" y="1244" type="curve" smooth="yes"/>
      <point x="1092" y="1244"/>
      <point x="1256" y="1004"/>
      <point x="1256" y="700" type="curve" smooth="yes"/>
      <point x="1256" y="396"/>
      <point x="1092" y="156"/>
    </contour>
  </outline>
</glyph>
<glyph name="P" format="2">
  <advance width="1144"/>
  <unicode hex="0050"/>
  <outline>
    <contour>
      <point x="160" y="0" type="line"/>
      <point x="360" y="0" type="line"/>
      <point x="360" y="490" type="line"/>
      <point x="622" y="490" type="line" smooth="yes"/>
      <point x="904" y="490"/>
      <point x="1096" y="624"/>
      <point x="1096" y="946" type="curve" smooth="yes"/>
      <point x="1096" y="1274"/>
      <point x="904" y="1400"/>
      <point x="622" y="1400" type="curve" smooth="yes"/>
      <point x="160" y="1400" type="line"/>
    </contour>
    <contour>
      <point x="360" y="660" type="line"/>
      <point x="360" y="1230" type="line"/>
      <point x="594" y="1230" type="line" smooth="yes"/>
      <point x="808" y="1230"/>
      <point x="900" y="1138"/>
      <point x="900" y="944" type="curve" smooth="yes"/>
      <point x="900" y="750"/>
      <point x="798" y="660"/>
      <point x="594" y="660" type="curve" smooth="yes"/>
    </contour>
  </outline>
</glyph>
<glyph name="Q" format="2">
  <advance width="1540"/>
  <unicode hex="0051"/>
  <anchor x="770" y="0" name="bottom"/>
  <anchor x="874" y="0" name="ogonek"/>
  <anchor x="770" y="1400" name="top"/>
  <anchor x="958" y="1400" name="topright"/>
  <outline>
    <contour>
      <point x="882" y="404" type="line"/>
      <point x="1322" y="-28" type="line"/>
      <point x="1430" y="82" type="line"/>
      <point x="990" y="514" type="line"/>
    </contour>
    <component base="O"/>
  </outline>
</glyph>
<glyph name="R" format="2">
  <advance width="1206"/>
  <unicode hex="0052"/>
  <anchor x="662" y="0" name="bottom"/>
  <anchor x="614" y="1400" name="top"/>
  <outline>
    <contour>
      <point x="160" y="0" type="line"/>
      <point x="360" y="0" type="line"/>
      <point x="360" y="546" type="line"/>
      <point x="642" y="546" type="line" smooth="yes"/>
      <point x="646" y="546"/>
      <point x="648" y="546"/>
      <point x="652" y="546" type="curve"/>
      <point x="936" y="0" type="line"/>
      <point x="1168" y="0" type="line"/>
      <point x="854" y="580" type="line"/>
      <point x="1012" y="654"/>
      <point x="1098" y="782"/>
      <point x="1098" y="974" type="curve" smooth="yes"/>
      <point x="1098" y="1270"/>
      <point x="906" y="1400"/>
      <point x="614" y="1400" type="curve" smooth="yes"/>
      <point x="160" y="1400" type="line"/>
    </contour>
    <contour>
      <point x="360" y="716" type="line"/>
      <point x="360" y="1230" type="line"/>
      <point x="612" y="1230" type="line" smooth="yes"/>
      <point x="802" y="1230"/>
      <point x="900" y="1136"/>
      <point x="900" y="974" type="curve" smooth="yes"/>
      <point x="900" y="814"/>
      <point x="802" y="716"/>
      <point x="612" y="716" type="curve" smooth="yes"/>
    </contour>
  </outline>
</glyph>
<glyph name="U" format="2">
  <advance width="1448"/>
  <unicode hex="0055"/>
  <anchor x="724" y="0" name="bottom"/>
  <anchor x="868" y="0" name="ogonek"/>
  <anchor x="724" y="1400" name="top"/>
  <anchor x="1210" y="1400" name="topright"/>
  <outline>
    <contour>
      <point x="724" y="-28" type="curve" smooth="yes"/>
      <point x="1118" y="-28"/>
      <point x="1304" y="210"/>
      <point x="1304" y="594" type="curve" smooth="yes"/>
      <point x="1304" y="1400" type="line"/>
      <point x="1114" y="1400" type="line"/>
      <point x="1114" y="646" type="line" smooth="yes"/>
      <point x="1114" y="392"/>
      <point x="1056" y="144"/>
      <point x="724" y="144" type="curve" smooth="yes"/>
      <point x="392" y="144"/>
      <point x="334" y="390"/>
      <point x="334" y="646" type="curve" smooth="yes"/>
      <point x="334" y="1400" type="line"/>
      <point x="144" y="1400" type="line"/>
      <point x="144" y="594" type="line" smooth="yes"/>
      <point x="144" y="210"/>
      <point x="330" y="-28"/>
    </contour>
  </outline>
</glyph>
<glyph name="V" format="2">
  <advance width="1220"/>
  <unicode hex="0056"/>
  <anchor x="610" y="0" name="bottom"/>
  <anchor x="610" y="1400" name="top"/>
  <outline>
    <contour>
      <point x="510" y="0" type="line"/>
      <point x="710" y="0" type="line"/>
      <point x="1212" y="1400" type="line"/>
      <point x="1012" y="1400" type="line"/>
      <point x="582" y="186" type="line"/>
      <point x="638" y="186" type="line"/>
      <point x="208" y="1400" type="line"/>
      <point x="8" y="1400" type="line"/>
    </contour>
  </outline>
</glyph>
<glyph name="W" format="2">
  <advance width="1892"/>
  <unicode hex="0057"/>
  <anchor x="952" y="0" name="bottom"/>
  <anchor x="952" y="1400" name="top"/>
  <outline>
    <contour>
      <point x="404" y="0" type="line"/>
      <point x="606" y="0" type="line"/>
      <point x="946" y="1126" type="line"/>
      <point x="1286" y="0" type="line"/>
      <point x="1488" y="0" type="line"/>
      <point x="1884" y="1400" type="line"/>
      <point x="1684" y="1400" type="line"/>
      <point x="1388" y="246" type="line"/>
      <point x="1046" y="1372" type="line"/>
      <point x="846" y="1372" type="line"/>
      <point x="504" y="246" type="line"/>
      <point x="208" y="1400" type="line"/>
      <point x="8" y="1400" type="line"/>
    </contour>
  </outline>
</glyph>
<glyph name="X" format="2">
  <advance width="1186"/>
  <unicode hex="0058"/>
  <outline>
    <contour>
      <point x="8" y="0" type="line"/>
      <point x="228" y="0" type="line"/>
      <point x="594" y="542" type="line"/>
      <point x="958" y="0" type="line"/>
      <point x="1178" y="0" type="line"/>
      <point x="704" y="706" type="line"/>
      <point x="1170" y="1400" type="line"/>
      <point x="950" y="1400" type="line"/>
      <point x="594" y="870" type="line"/>
      <point x="236" y="1400" type="line"/>
      <point x="16" y="1400" type="line"/>
      <point x="484" y="706" type="line"/>
    </contour>
  </outline>
</glyph>
<glyph name="Y" format="2">
  <advance width="1134"/>
  <unicode hex="0059"/>
  <anchor x="568" y="0" name="bottom"/>
  <anchor x="566" y="1400" name="top"/>
  <outline>
    <contour>
      <point x="472" y="0" type="line"/>
      <point x="662" y="0" type="line"/>
      <point x="662" y="606" type="line"/>
      <point x="1154" y="1400" type="line"/>
      <point x="938" y="1400" type="line"/>
      <point x="522" y="720" type="line"/>
      <point x="610" y="720" type="line"/>
      <point x="194" y="1400" type="line"/>
      <point x="-22" y="1400" type="line"/>
      <point x="472" y="606" type="line"/>
    </contour>
  </outline>
</glyph>
<glyph name="Z" format="2">
  <advance width="1098"/>
  <unicode hex="005A"/>
  <anchor x="506" y="0" name="bottom"/>
  <anchor x="596" y="1400" name="top"/>
  <outline>
    <contour>
      <point x="18" y="0" type="line"/>
      <point x="1074" y="0" type="line"/>
      <point x="1074" y="172" type="line"/>
      <point x="244" y="172" type="line"/>
      <point x="278" y="100" type="line"/>
      <point x="1084" y="1400" type="line"/>
      <point x="108" y="1400" type="line"/>
      <point x="108" y="1228" type="line"/>
      <point x="856" y="1228" type="line"/>
      <point x="820" y="1300" type="line"/>
    </contour>
  </outline>
</glyph>
<glyph name="bracketleft" format="2">
  <advance width="654"/>
  <unicode hex="005B"/>
  <outline>
    <contour>
      <point x="140" y="-270" type="line"/>
      <point x="654" y="-270" type="line"/>
      <point x="654" y="-134" type="line"/>
      <point x="306" y="-134" type="line"/>
      <point x="306" y="1364" type="line"/>
      <point x="654" y="1364" type="line"/>
      <point x="654" y="1500" type="line"/>
      <point x="140" y="1500" type="line"/>
    </contour>
  </outline>
</glyph>
<glyph name="backslash" format="2">
  <advance width="606"/>
  <unicode hex="005C"/>
  <outline>
    <contour>
      <point x="476" y="-170" type="line"/>
      <point x="666" y="-170" type="line"/>
      <point x="170" y="1400" type="line"/>
      <point x="-20" y="1400" type="line"/>
    </contour>
  </outline>
</glyph>
<glyph name="bracketright" format="2">
  <advance width="654"/>
  <unicode hex="005D"/>
  <outline>
    <contour>
      <point x="0" y="-270" type="line"/>
      <point x="514" y="-270" type="line"/>
      <point x="514" y="1500" type="line"/>
      <point x="0" y="1500" type="line"/>
      <point x="0" y="1364" type="line"/>
      <point x="348" y="1364" type="line"/>
      <point x="348" y="-134" type="line"/>
      <point x="0" y="-134" type="line"/>
    </contour>
  </outline>
</glyph>
<glyph name="asciicircum" format="2">
  <advance width="1024"/>
  <unicode hex="005E"/>
  <outline>
    <contour>
      <point x="100" y="884" type="line"/>
      <point x="512" y="1276" type="line"/>
      <point x="924" y="884" type="line"/>
      <point x="924" y="1086" type="line"/>
      <point x="512" y="1518" type="line"/>
      <point x="100" y="1086" type="line"/>
    </contour>
  </outline>
</glyph>
<glyph name="a" format="2">
  <advance width="960"/>
  <unicode hex="0061"/>
  <anchor x="480" y="0" name="bottom"/>
  <anchor x="842" y="0" name="ogonek"/>
  <anchor x="468" y="980" name="top"/>
  <outline>
    <contour>
      <point x="350" y="-20" type="curve" smooth="yes"/>
      <point x="476" y="-20"/>
      <point x="576" y="38"/>
      <point x="650" y="124" type="curve"/>
      <point x="690" y="32"/>
      <point x="728" y="-20"/>
      <point x="902" y="-20" type="curve" smooth="yes"/>
      <point x="916" y="-20" type="line"/>
      <point x="944" y="124" type="line"/>
      <point x="926" y="124" type="line" smooth="yes"/>
      <point x="822" y="124"/>
      <point x="814" y="190"/>
      <point x="814" y="330" type="curve" smooth="yes"/>
      <point x="814" y="530" type="line" smooth="yes"/>
      <point x="814" y="884"/>
      <point x="716" y="1000"/>
      <point x="468" y="1000" type="curve" smooth="yes"/>
      <point x="338" y="1000"/>
      <point x="214" y="958"/>
      <point x="136" y="898" type="curve"/>
      <point x="162" y="752" type="line"/>
      <point x="266" y="824"/>
      <point x="346" y="840"/>
      <point x="420" y="840" type="curve" smooth="yes"/>
      <point x="558" y="840"/>
      <point x="634" y="800"/>
      <point x="634" y="614" type="curve"/>
      <point x="384" y="610"/>
      <point x="48" y="540"/>
      <point x="48" y="264" type="curve" smooth="yes"/>
      <point x="48" y="100"/>
      <point x="168" y="-20"/>
    </contour>
    <contour>
      <point x="384" y="124" type="curve" smooth="yes"/>
      <point x="294" y="124"/>
      <point x="232" y="168"/>
      <point x="232" y="274" type="curve" smooth="yes"/>
      <point x="232" y="420"/>
      <point x="348" y="480"/>
      <point x="634" y="490" type="curve"/>
      <point x="634" y="256" type="line"/>
      <point x="576" y="176"/>
      <point x="480" y="124"/>
    </contour>
  </outline>
</glyph>
<glyph name="b" format="2">
  <advance width="1110"/>
  <unicode hex="0062"/>
  <anchor x="594" y="0" name="bottom"/>
  <anchor x="210" y="1500" name="top"/>
  <outline>
    <contour>
      <point x="604" y="-20" type="curve" smooth="yes"/>
      <point x="852" y="-20"/>
      <point x="1046" y="204"/>
      <point x="1046" y="490" type="curve" smooth="yes"/>
      <point x="1046" y="758"/>
      <point x="878" y="1000"/>
      <point x="604" y="1000" type="curve" smooth="yes"/>
      <point x="462" y="1000"/>
      <point x="328" y="924"/>
      <point x="262" y="816" type="curve"/>
      <point x="300" y="788" type="line"/>
      <point x="300" y="1500" type="line"/>
      <point x="120" y="1500" type="line"/>
      <point x="120" y="0" type="line"/>
      <point x="280" y="0" type="line"/>
      <point x="314" y="208" type="line"/>
      <point x="270" y="176" type="line"/>
      <point x="320" y="46"/>
      <point x="466" y="-20"/>
    </contour>
    <contour>
      <point x="582" y="140" type="curve" smooth="yes"/>
      <point x="428" y="140"/>
      <point x="290" y="244"/>
      <point x="290" y="490" type="curve" smooth="yes"/>
      <point x="290" y="726"/>
      <point x="428" y="840"/>
      <point x="582" y="840" type="curve" smooth="yes"/>
      <point x="754" y="840"/>
      <point x="862" y="690"/>
      <point x="862" y="490" type="curve" smooth="yes"/>
      <point x="862" y="298"/>
      <point x="754" y="140"/>
    </contour>
  </outline>
</glyph>
<glyph name="c" format="2">
  <advance width="908"/>
  <unicode hex="0063"/>
  <anchor x="530" y="0" name="bottom"/>
  <anchor x="544" y="980" name="top"/>
  <outline>
    <contour>
      <point x="572" y="-20" type="curve" smooth="yes"/>
      <point x="686" y="-20"/>
      <point x="798" y="16"/>
      <point x="852" y="54" type="curve"/>
      <point x="828" y="198" type="line"/>
      <point x="752" y="160"/>
      <point x="668" y="138"/>
      <point x="578" y="138" type="curve" smooth="yes"/>
      <point x="356" y="138"/>
      <point x="250" y="278"/>
      <point x="250" y="492" type="curve" smooth="yes"/>
      <point x="250" y="710"/>
      <point x="366" y="840"/>
      <point x="582" y="840" type="curve" smooth="yes"/>
      <point x="670" y="840"/>
      <point x="752" y="818"/>
      <point x="826" y="784" type="curve"/>
      <point x="854" y="942" type="line"/>
      <point x="782" y="978"/>
      <point x="688" y="1000"/>
      <point x="586" y="1000" type="curve" smooth="yes"/>
      <point x="228" y="1000"/>
      <point x="66" y="776"/>
      <point x="66" y="484" type="curve" smooth="yes"/>
      <point x="66" y="204"/>
      <point x="240" y="-20"/>
    </contour>
  </outline>
</glyph>
<glyph name="d" format="2">
  <advance width="1110"/>
  <unicode hex="0064"/>
  <anchor x="556" y="0" name="bottom"/>
  <anchor x="790" y="1254" name="center"/>
  <anchor x="556" y="980" name="top"/>
  <anchor x="1090" y="1500" name="topright"/>
  <outline>
    <contour>
      <point x="510" y="-20" type="curve" smooth="yes"/>
      <point x="650" y="-20"/>
      <point x="784" y="46"/>
      <point x="842" y="176" type="curve"/>
      <point x="796" y="208" type="line"/>
      <point x="830" y="0" type="line"/>
      <point x="990" y="0" type="line"/>
      <point x="990" y="1500" type="line"/>
      <point x="810" y="1500" type="line"/>
      <point x="810" y="790" type="line"/>
      <point x="848" y="816" type="line"/>
      <point x="772" y="948"/>
      <point x="640" y="1000"/>
      <point x="510" y="1000" type="curve" smooth="yes"/>
      <point x="236" y="1000"/>
      <point x="64" y="758"/>
      <point x="64" y="488" type="curve" smooth="yes"/>
      <point x="64" y="204"/>
      <point x="260" y="-20"/>
    </contour>
    <contour>
      <point x="542" y="140" type="curve" smooth="yes"/>
      <point x="358" y="140"/>
      <point x="248" y="298"/>
      <point x="248" y="488" type="curve" smooth="yes"/>
      <point x="248" y="690"/>
      <point x="358" y="840"/>
      <point x="542" y="840" type="curve" smooth="yes"/>
      <point x="678" y="840"/>
      <point x="830" y="720"/>
      <point x="830" y="488" type="curve" smooth="yes"/>
      <point x="830" y="238"/>
      <point x="678" y="140"/>
    </contour>
  </outline>
</glyph>
<glyph name="f" format="2">
  <advance width="662"/>
  <unicode hex="0066"/>
  <outline>
    <contour>
      <point x="190" y="0" type="line"/>
      <point x="370" y="0" type="line"/>
      <point x="370" y="840" type="line"/>
      <point x="634" y="840" type="line"/>
      <point x="634" y="980" type="line"/>
      <point x="370" y="980" type="line"/>
      <point x="370" y="1200" type="line" smooth="yes"/>
      <point x="370" y="1300"/>
      <point x="416" y="1340"/>
      <point x="494" y="1340" type="curve" smooth="yes"/>
      <point x="534" y="1340"/>
      <point x="562" y="1334"/>
      <point x="594" y="1322" type="curve"/>
      <point x="622" y="1474" type="line"/>
      <point x="580" y="1490"/>
      <point x="532" y="1500"/>
      <point x="466" y="1500" type="curve" smooth="yes"/>
      <point x="284" y="1500"/>
      <point x="190" y="1386"/>
      <point x="190" y="1212" type="curve" smooth="yes"/>
      <point x="190" y="980" type="line"/>
      <point x="44" y="980" type="line"/>
      <point x="20" y="840" type="line"/>
      <point x="190" y="840" type="line"/>
    </contour>
  </outline>
</glyph>
<glyph name="h" format="2">
  <advance width="1084"/>
  <unicode hex="0068"/>
  <anchor x="548" y="0" name="bottom"/>
  <anchor x="212" y="1460" name="top"/>
  <outline>
    <contour>
      <point x="120" y="0" type="line"/>
      <point x="302" y="0" type="line"/>
      <point x="302" y="766" type="line"/>
      <point x="272" y="656" type="line"/>
      <point x="328" y="768"/>
      <point x="426" y="840"/>
      <point x="550" y="840" type="curve" smooth="yes"/>
      <point x="714" y="840"/>
      <point x="792" y="740"/>
      <point x="792" y="524" type="curve" smooth="yes"/>
      <point x="792" y="0" type="line"/>
      <point x="972" y="0" type="line"/>
      <point x="972" y="546" type="line" smooth="yes"/>
      <point x="972" y="818"/>
      <point x="844" y="1000"/>
      <point x="590" y="1000" type="curve" smooth="yes"/>
      <point x="424" y="1000"/>
      <point x="330" y="930"/>
      <point x="238" y="814" type="curve"/>
      <point x="302" y="810" type="line"/>
      <point x="302" y="1500" type="line"/>
      <point x="120" y="1500" type="line"/>
    </contour>
  </outline>
</glyph>
<glyph name="m" format="2">
  <advance width="1754"/>
  <unicode hex="006D"/>
  <anchor x="882" y="0" name="bottom"/>
  <anchor x="904" y="980" name="top"/>
  <outline>
    <contour>
      <point x="122" y="0" type="line"/>
      <point x="302" y="0" type="line"/>
      <point x="302" y="756" type="line"/>
      <point x="280" y="658" type="line"/>
      <point x="316" y="784"/>
      <point x="430" y="840"/>
      <point x="562" y="840" type="curve" smooth="yes"/>
      <point x="698" y="840"/>
      <point x="792" y="780"/>
      <point x="792" y="540" type="curve" smooth="yes"/>
      <point x="792" y="0" type="line"/>
      <point x="972" y="0" type="line"/>
      <point x="972" y="568" type="line" smooth="yes"/>
      <point x="972" y="678"/>
      <point x="1002" y="840"/>
      <point x="1232" y="840" type="curve" smooth="yes"/>
      <point x="1394" y="840"/>
      <point x="1462" y="760"/>
      <point x="1462" y="576" type="curve" smooth="yes"/>
      <point x="1462" y="0" type="line"/>
      <point x="1642" y="0" type="line"/>
      <point x="1642" y="578" type="line" smooth="yes"/>
      <point x="1642" y="866"/>
      <point x="1512" y="1000"/>
      <point x="1266" y="1000" type="curve" smooth="yes"/>
      <point x="1060" y="1000"/>
      <point x="944" y="906"/>
      <point x="886" y="754" type="curve"/>
      <point x="936" y="732" type="line"/>
      <point x="872" y="940"/>
      <point x="736" y="1000"/>
      <point x="592" y="1000" type="curve" smooth="yes"/>
      <point x="464" y="1000"/>
      <point x="352" y="956"/>
      <point x="230" y="824" type="curve"/>
      <point x="298" y="792" type="line"/>
      <point x="262" y="980" type="line"/>
      <point x="122" y="980" type="line"/>
    </contour>
  </outline>
</glyph>
<glyph name="n" format="2">
  <advance width="1118"/>
  <unicode hex="006E"/>
  <anchor x="564" y="0" name="bottom"/>
  <anchor x="588" y="980" name="top"/>
  <outline>
    <contour>
      <point x="122" y="0" type="line"/>
      <point x="302" y="0" type="line"/>
      <point x="302" y="768" type="line"/>
      <point x="280" y="658" type="line"/>
      <point x="314" y="784"/>
      <point x="438" y="840"/>
      <point x="570" y="840" type="curve" smooth="yes"/>
      <point x="756" y="840"/>
      <point x="826" y="748"/>
      <point x="826" y="540" type="curve" smooth="yes"/>
      <point x="826" y="0" type="line"/>
      <point x="1006" y="0" type="line"/>
      <point x="1006" y="540" type="line" smooth="yes"/>
      <point x="1006" y="822"/>
      <point x="892" y="1000"/>
      <point x="606" y="1000" type="curve" smooth="yes"/>
      <point x="486" y="1000"/>
      <point x="360" y="968"/>
      <point x="228" y="822" type="curve"/>
      <point x="298" y="792" type="line"/>
      <point x="262" y="980" type="line"/>
      <point x="122" y="980" type="line"/>
    </contour>
  </outline>
</glyph>
<glyph name="o" format="2">
  <advance width="1100"/>
  <unicode hex="006F"/>
  <anchor x="550" y="0" name="bottom"/>
  <anchor x="640" y="0" name="ogonek"/>
  <anchor x="550" y="980" name="top"/>
  <anchor x="678" y="980" name="topright"/>
  <outline>
    <contour>
      <point x="550" y="-20" type="curve" smooth="yes"/>
      <point x="856" y="-20"/>
      <point x="1036" y="206"/>
      <point x="1036" y="490" type="curve" smooth="yes"/>
      <point x="1036" y="774"/>
      <point x="856" y="1000"/>
      <point x="550" y="1000" type="curve" smooth="yes"/>
      <point x="242" y="1000"/>
      <point x="64" y="774"/>
      <point x="64" y="490" type="curve" smooth="yes"/>
      <point x="64" y="206"/>
      <point x="242" y="-20"/>
    </contour>
    <contour>
      <point x="550" y="140" type="curve" smooth="yes"/>
      <point x="356" y="140"/>
      <point x="248" y="270"/>
      <point x="248" y="490" type="curve" smooth="yes"/>
      <point x="248" y="710"/>
      <point x="356" y="840"/>
      <point x="550" y="840" type="curve" smooth="yes"/>
      <point x="744" y="840"/>
      <point x="852" y="710"/>
      <point x="852" y="490" type="curve" smooth="yes"/>
      <point x="852" y="270"/>
      <point x="744" y="140"/>
    </contour>
  </outline>
</glyph>
<glyph name="p" format="2">
  <advance width="1114"/>
  <unicode hex="0070"/>
  <outline>
    <contour>
      <point x="122" y="-484" type="line"/>
      <point x="302" y="-484" type="line"/>
      <point x="302" y="210" type="line"/>
      <point x="272" y="174" type="line"/>
      <point x="328" y="44"/>
      <point x="464" y="-20"/>
      <point x="620" y="-20" type="curve" smooth="yes"/>
      <point x="904" y="-20"/>
      <point x="1048" y="204"/>
      <point x="1048" y="490" type="curve" smooth="yes"/>
      <point x="1048" y="776"/>
      <point x="888" y="1000"/>
      <point x="620" y="1000" type="curve" smooth="yes"/>
      <point x="444" y="1000"/>
      <point x="326" y="920"/>
      <point x="244" y="792" type="curve"/>
      <point x="294" y="756" type="line"/>
      <point x="262" y="980" type="line"/>
      <point x="122" y="980" type="line"/>
    </contour>
    <contour>
      <point x="586" y="140" type="curve" smooth="yes"/>
      <point x="424" y="140"/>
      <point x="292" y="244"/>
      <point x="292" y="490" type="curve" smooth="yes"/>
      <point x="292" y="726"/>
      <point x="424" y="840"/>
      <point x="586" y="840" type="curve" smooth="yes"/>
      <point x="760" y="840"/>
      <point x="864" y="710"/>
      <point x="864" y="490" type="curve" smooth="yes"/>
      <point x="864" y="270"/>
      <point x="760" y="140"/>
    </contour>
  </outline>
</glyph>
<glyph name="q" format="2">
  <advance width="1114"/>
  <unicode hex="0071"/>
  <outline>
    <contour>
      <point x="812" y="-484" type="line"/>
      <point x="992" y="-484" type="line"/>
      <point x="992" y="980" type="line"/>
      <point x="852" y="980" type="line"/>
      <point x="820" y="756" type="line"/>
      <point x="870" y="792" type="line"/>
      <point x="788" y="924"/>
      <point x="686" y="1000"/>
      <point x="502" y="1000" type="curve" smooth="yes"/>
      <point x="228" y="1000"/>
      <point x="66" y="758"/>
      <point x="66" y="490" type="curve" smooth="yes"/>
      <point x="66" y="204"/>
      <point x="214" y="-20"/>
      <point x="504" y="-20" type="curve" smooth="yes"/>
      <point x="660" y="-20"/>
      <point x="788" y="44"/>
      <point x="842" y="174" type="curve"/>
      <point x="812" y="210" type="line"/>
    </contour>
    <contour>
      <point x="528" y="140" type="curve" smooth="yes"/>
      <point x="354" y="140"/>
      <point x="250" y="270"/>
      <point x="250" y="490" type="curve" smooth="yes"/>
      <point x="250" y="710"/>
      <point x="354" y="840"/>
      <point x="528" y="840" type="curve" smooth="yes"/>
      <point x="690" y="840"/>
      <point x="822" y="726"/>
      <point x="822" y="490" type="curve" smooth="yes"/>
      <point x="822" y="244"/>
      <point x="690" y="140"/>
    </contour>
  </outline>
</glyph>
<glyph name="r" format="2">
  <advance width="632"/>
  <unicode hex="0072"/>
  <anchor x="218" y="0" name="bottom"/>
  <anchor x="422" y="980" name="top"/>
  <outline>
    <contour>
      <point x="122" y="0" type="line"/>
      <point x="314" y="0" type="line"/>
      <point x="314" y="692" type="line"/>
      <point x="350" y="746"/>
      <point x="446" y="802"/>
      <point x="550" y="802" type="curve" smooth="yes"/>
      <point x="574" y="802"/>
      <point x="592" y="800"/>
      <point x="610" y="796" type="curve"/>
      <point x="628" y="994" type="line"/>
      <point x="614" y="998"/>
      <point x="598" y="1000"/>
      <point x="582" y="1000" type="curve" smooth="yes"/>
      <point x="478" y="1000"/>
      <point x="392" y="942"/>
      <point x="292" y="818" type="curve"/>
      <point x="270" y="980" type="line"/>
      <point x="122" y="980" type="line"/>
    </contour>
  </outline>
</glyph>
<glyph name="u" format="2">
  <advance width="1048"/>
  <unicode hex="0075"/>
  <anchor x="524" y="0" name="bottom"/>
  <anchor x="870" y="0" name="ogonek"/>
  <anchor x="524" y="980" name="top"/>
  <anchor x="828" y="980" name="topright"/>
  <outline>
    <contour>
      <point x="474" y="-20" type="curve" smooth="yes"/>
      <point x="626" y="-20"/>
      <point x="712" y="38"/>
      <point x="778" y="160" type="curve"/>
      <point x="730" y="192" type="line"/>
      <point x="766" y="0" type="line"/>
      <point x="926" y="0" type="line"/>
      <point x="926" y="980" type="line"/>
      <point x="746" y="980" type="line"/>
      <point x="746" y="210" type="line"/>
      <point x="772" y="308" type="line"/>
      <point x="736" y="190"/>
      <point x="630" y="140"/>
      <point x="520" y="140" type="curve" smooth="yes"/>
      <point x="358" y="140"/>
      <point x="292" y="252"/>
      <point x="292" y="460" type="curve" smooth="yes"/>
      <point x="292" y="980" type="line"/>
      <point x="112" y="980" type="line"/>
      <point x="112" y="410" type="line" smooth="yes"/>
      <point x="112" y="116"/>
      <point x="244" y="-20"/>
    </contour>
  </outline>
</glyph>
<glyph name="v" format="2">
  <advance width="984"/>
  <unicode hex="0076"/>
  <outline>
    <contour>
      <point x="392" y="0" type="line"/>
      <point x="594" y="0" type="line"/>
      <point x="966" y="980" type="line"/>
      <point x="764" y="980" type="line"/>
      <point x="492" y="198" type="line"/>
      <point x="218" y="980" type="line"/>
      <point x="18" y="980" type="line"/>
    </contour>
  </outline>
</glyph>
<glyph name="w" format="2">
  <advance width="1450"/>
  <unicode hex="0077"/>
  <anchor x="726" y="0" name="bottom"/>
  <anchor x="726" y="980" name="top"/>
  <outline>
    <contour>
      <point x="318" y="0" type="line"/>
      <point x="520" y="0" type="line"/>
      <point x="726" y="724" type="line"/>
      <point x="930" y="0" type="line"/>
      <point x="1132" y="0" type="line"/>
      <point x="1428" y="980" type="line"/>
      <point x="1216" y="980" type="line"/>
      <point x="1028" y="198" type="line"/>
      <point x="818" y="950" type="line"/>
      <point x="632" y="950" type="line"/>
      <point x="424" y="198" type="line"/>
      <point x="236" y="980" type="line"/>
      <point x="24" y="980" type="line"/>
    </contour>
  </outline>
</glyph>
<glyph name="x" format="2">
  <advance width="948"/>
  <unicode hex="0078"/>
  <outline>
    <contour>
      <point x="22" y="0" type="line"/>
      <point x="224" y="0" type="line"/>
      <point x="476" y="386" type="line"/>
      <point x="724" y="0" type="line"/>
      <point x="926" y="0" type="line"/>
      <point x="592" y="504" type="line"/>
      <point x="914" y="980" type="line"/>
      <point x="704" y="980" type="line"/>
      <point x="478" y="592" type="line"/>
      <point x="232" y="980" type="line"/>
      <point x="30" y="980" type="line"/>
      <point x="364" y="488" type="line"/>
    </contour>
  </outline>
</glyph>
<glyph name="z" format="2">
  <advance width="942"/>
  <unicode hex="007A"/>
  <anchor x="471" y="0" name="bottom"/>
  <anchor x="483" y="1000" name="top"/>
  <outline>
    <contour>
      <point x="44" y="0" type="line"/>
      <point x="882" y="0" type="line"/>
      <point x="882" y="158" type="line"/>
      <point x="264" y="158" type="line"/>
      <point x="286" y="68" type="line"/>
      <point x="892" y="980" type="line"/>
      <point x="76" y="980" type="line"/>
      <point x="76" y="822" type="line"/>
      <point x="672" y="822" type="line"/>
      <point x="650" y="912" type="line"/>
    </contour>
  </outline>
</glyph>
<glyph name="braceleft" format="2">
  <advance width="616"/>
  <unicode hex="007B"/>
  <outline>
    <contour>
      <point x="538" y="-272" type="curve" smooth="yes"/>
      <point x="612" y="-272" type="line"/>
      <point x="612" y="-134" type="line"/>
      <point x="558" y="-134" type="line" smooth="yes"/>
      <point x="412" y="-134"/>
      <point x="330" y="-76"/>
      <point x="330" y="88" type="curve" smooth="yes"/>
      <point x="330" y="182"/>
      <point x="346" y="308"/>
      <point x="346" y="400" type="curve" smooth="yes"/>
      <point x="346" y="536"/>
      <point x="274" y="592"/>
      <point x="162" y="622" type="curve"/>
      <point x="162" y="606" type="line"/>
      <point x="274" y="636"/>
      <point x="346" y="692"/>
      <point x="346" y="828" type="curve" smooth="yes"/>
      <point x="346" y="920"/>
      <point x="330" y="1046"/>
      <point x="330" y="1140" type="curve" smooth="yes"/>
      <point x="330" y="1304"/>
      <point x="412" y="1362"/>
      <point x="558" y="1362" type="curve" smooth="yes"/>
      <point x="612" y="1362" type="line"/>
      <point x="612" y="1500" type="line"/>
      <point x="538" y="1500" type="line" smooth="yes"/>
      <point x="288" y="1500"/>
      <point x="184" y="1376"/>
      <point x="184" y="1200" type="curve" smooth="yes"/>
      <point x="184" y="1110"/>
      <point x="200" y="986"/>
      <point x="200" y="888" type="curve" smooth="yes"/>
      <point x="200" y="744"/>
      <point x="162" y="674"/>
      <point x="40" y="674" type="curve"/>
      <point x="40" y="554" type="line"/>
      <point x="162" y="554"/>
      <point x="200" y="484"/>
      <point x="200" y="340" type="curve" smooth="yes"/>
      <point x="200" y="242"/>
      <point x="184" y="118"/>
      <point x="184" y="28" type="curve" smooth="yes"/>
      <point x="184" y="-148"/>
      <point x="288" y="-272"/>
    </contour>
  </outline>
</glyph>
<glyph name="bar" format="2">
  <advance width="458"/>
  <unicode hex="007C"/>
  <outline>
    <contour>
      <point x="140" y="-418" type="line"/>
      <point x="318" y="-418" type="line"/>
      <point x="318" y="1500" type="line"/>
      <point x="140" y="1500" type="line"/>
    </contour>
  </outline>
</glyph>
<glyph name="braceright" format="2">
  <advance width="616"/>
  <unicode hex="007D"/>
  <outline>
    <contour>
      <point x="4" y="-272" type="line"/>
      <point x="78" y="-272" type="line" smooth="yes"/>
      <point x="328" y="-272"/>
      <point x="432" y="-148"/>
      <point x="432" y="28" type="curve" smooth="yes"/>
      <point x="432" y="118"/>
      <point x="416" y="242"/>
      <point x="416" y="340" type="curve" smooth="yes"/>
      <point x="416" y="484"/>
      <point x="454" y="554"/>
      <point x="576" y="554" type="curve"/>
      <point x="576" y="674" type="line"/>
      <point x="454" y="674"/>
      <point x="416" y="744"/>
      <point x="416" y="888" type="curve" smooth="yes"/>
      <point x="416" y="986"/>
      <point x="432" y="1110"/>
      <point x="432" y="1200" type="curve" smooth="yes"/>
      <point x="432" y="1376"/>
      <point x="328" y="1500"/>
      <point x="78" y="1500" type="curve" smooth="yes"/>
      <point x="4" y="1500" type="line"/>
      <point x="4" y="1362" type="line"/>
      <point x="58" y="1362" type="line" smooth="yes"/>
      <point x="204" y="1362"/>
      <point x="286" y="1304"/>
      <point x="286" y="1140" type="curve" smooth="yes"/>
      <point x="286" y="1046"/>
      <point x="270" y="920"/>
      <point x="270" y="828" type="curve" smooth="yes"/>
      <point x="270" y="692"/>
      <point x="342" y="636"/>
      <point x="454" y="606" type="curve"/>
      <point x="454" y="622" type="line"/>
      <point x="342" y="592"/>
      <point x="270" y="536"/>
      <point x="270" y="400" type="curve" smooth="yes"/>
      <point x="270" y="308"/>
      <point x="286" y="182"/>
      <point x="286" y="88" type="curve" smooth="yes"/>
      <point x="286" y="-76"/>
      <point x="204" y="-134"/>
      <point x="58" y="-134" type="curve" smooth="yes"/>
      <point x="4" y="-134" type="line"/>
    </contour>
  </outline>
</glyph>
<glyph name="asciitilde" format="2">
  <advance width="924"/>
  <unicode hex="007E"/>
  <outline>
    <contour>
      <point x="630" y="588" type="curve" smooth="yes"/>
      <point x="756" y="588"/>
      <point x="826" y="676"/>
      <point x="832" y="838" type="curve"/>
      <point x="682" y="838" type="line"/>
      <point x="682" y="784"/>
      <point x="652" y="752"/>
      <point x="604" y="752" type="curve" smooth="yes"/>
      <point x="502" y="752"/>
      <point x="436" y="846"/>
      <point x="294" y="846" type="curve" smooth="yes"/>
      <point x="168" y="846"/>
      <point x="98" y="758"/>
      <point x="92" y="596" type="curve"/>
      <point x="242" y="596" type="line"/>
      <point x="242" y="650"/>
      <point x="272" y="682"/>
      <point x="320" y="682" type="curve" smooth="yes"/>
      <point x="430" y="682"/>
      <point x="492" y="588"/>
    </contour>
  </outline>
</glyph>
<glyph name="cent" format="2">
  <advance width="908"/>
  <unicode hex="00A2"/>
  <outline>
    <contour>
      <point x="572" y="-20" type="curve" smooth="yes"/>
      <point x="686" y="-20"/>
      <point x="798" y="16"/>
      <point x="852" y="54" type="curve"/>
      <point x="828" y="198" type="line"/>
      <point x="752" y="160"/>
      <point x="668" y="138"/>
      <point x="578" y="138" type="curve" smooth="yes"/>
      <point x="356" y="138"/>
      <point x="250" y="278"/>
      <point x="250" y="492" type="curve" smooth="yes"/>
      <point x="250" y="710"/>
      <point x="366" y="840"/>
      <point x="582" y="840" type="curve" smooth="yes"/>
      <point x="670" y="840"/>
      <point x="752" y="818"/>
      <point x="826" y="784" type="curve"/>
      <point x="854" y="942" type="line"/>
      <point x="782" y="978"/>
      <point x="688" y="1000"/>
      <point x="586" y="1000" type="curve" smooth="yes"/>
      <point x="228" y="1000"/>
      <point x="66" y="776"/>
      <point x="66" y="484" type="curve" smooth="yes"/>
      <point x="66" y="204"/>
      <point x="240" y="-20"/>
    </contour>
    <contour>
      <point x="488" y="-288" type="line"/>
      <point x="644" y="-288" type="line"/>
      <point x="624" y="68" type="line"/>
      <point x="508" y="68" type="line"/>
    </contour>
    <contour>
      <point x="508" y="918" type="line"/>
      <point x="624" y="918" type="line"/>
      <point x="644" y="1260" type="line"/>
      <point x="488" y="1260" type="line"/>
    </contour>
  </outline>
</glyph>
<glyph name="sterling" format="2">
  <advance width="1040"/>
  <unicode hex="00A3"/>
  <outline>
    <contour>
      <point x="100" y="0" type="curve"/>
      <point x="978" y="0" type="line"/>
      <point x="978" y="180" type="line"/>
      <point x="266" y="180" type="line"/>
      <point x="310" y="98" type="line"/>
      <point x="400" y="268"/>
      <point x="436" y="392"/>
      <point x="464" y="652" type="curve" smooth="yes"/>
      <point x="502" y="1016" type="line" smooth="yes"/>
      <point x="518" y="1162"/>
      <point x="588" y="1256"/>
      <point x="722" y="1256" type="curve" smooth="yes"/>
      <point x="806" y="1256"/>
      <point x="872" y="1220"/>
      <point x="948" y="1156" type="curve"/>
      <point x="968" y="1358" type="line"/>
      <point x="886" y="1404"/>
      <point x="804" y="1428"/>
      <point x="708" y="1428" type="curve" smooth="yes"/>
      <point x="458" y="1428"/>
      <point x="338" y="1264"/>
      <point x="312" y="1000" type="curve" smooth="yes"/>
      <point x="274" y="636" type="line" smooth="yes"/>
      <point x="246" y="376"/>
      <point x="196" y="220"/>
    </contour>
    <contour>
      <point x="120" y="632" type="line"/>
      <point x="852" y="632" type="line"/>
      <point x="852" y="780" type="line"/>
      <point x="120" y="780" type="line"/>
    </contour>
  </outline>
</glyph>
<glyph name="currency" format="2">
  <advance width="1392"/>
  <unicode hex="00A4"/>
  <outline>
    <contour>
      <point x="696" y="1204" type="curve" smooth="yes"/>
      <point x="398" y="1204"/>
      <point x="184" y="984"/>
      <point x="184" y="696" type="curve" smooth="yes"/>
      <point x="184" y="408"/>
      <point x="392" y="188"/>
      <point x="696" y="188" type="curve" smooth="yes"/>
      <point x="996" y="188"/>
      <point x="1208" y="404"/>
      <point x="1208" y="696" type="curve" smooth="yes"/>
      <point x="1208" y="980"/>
      <point x="998" y="1204"/>
    </contour>
    <contour>
      <point x="696" y="1040" type="curve" smooth="yes"/>
      <point x="914" y="1040"/>
      <point x="1028" y="888"/>
      <point x="1028" y="696" type="curve" smooth="yes"/>
      <point x="1028" y="504"/>
      <point x="914" y="352"/>
      <point x="696" y="352" type="curve" smooth="yes"/>
      <point x="478" y="352"/>
      <point x="364" y="504"/>
      <point x="364" y="696" type="curve" smooth="yes"/>
      <point x="364" y="888"/>
      <point x="478" y="1040"/>
    </contour>
    <contour>
      <point x="176" y="1272" type="line"/>
      <point x="120" y="1216" type="line"/>
      <point x="354" y="982" type="line"/>
      <point x="414" y="1034" type="line"/>
    </contour>
    <contour>
      <point x="362" y="418" type="line"/>
      <point x="120" y="176" type="line"/>
      <point x="176" y="120" type="line"/>
      <point x="418" y="362" type="line"/>
    </contour>
    <contour>
      <point x="1028" y="420" type="line"/>
      <point x="972" y="364" type="line"/>
      <point x="1216" y="120" type="line"/>
      <point x="1272" y="176" type="line"/>
    </contour>
    <contour>
      <point x="1216" y="1272" type="line"/>
      <point x="974" y="1030" type="line"/>
      <point x="1030" y="974" type="line"/>
      <point x="1272" y="1216" type="line"/>
    </contour>
  </outline>
</glyph>
<glyph name="yen" format="2">
  <advance width="1134"/>
  <unicode hex="00A5"/>
  <outline>
    <contour>
      <point x="472" y="0" type="line"/>
      <point x="662" y="0" type="line"/>
      <point x="662" y="606" type="line"/>
      <point x="1154" y="1400" type="line"/>
      <point x="938" y="1400" type="line"/>
      <point x="522" y="720" type="line"/>
      <point x="610" y="720" type="line"/>
      <point x="194" y="1400" type="line"/>
      <point x="-22" y="1400" type="line"/>
      <point x="472" y="606" type="line"/>
    </contour>
    <contour>
      <point x="168" y="294" type="line"/>
      <point x="966" y="294" type="line"/>
      <point x="966" y="442" type="line"/>
      <point x="168" y="442" type="line"/>
    </contour>
    <contour>
      <point x="168" y="574" type="line"/>
      <point x="966" y="574" type="line"/>
      <point x="966" y="722" type="line"/>
      <point x="168" y="722" type="line"/>
    </contour>
  </outline>
</glyph>
<glyph name="brokenbar" format="2">
  <advance width="464"/>
  <unicode hex="00A6"/>
  <outline>
    <contour>
      <point x="144" y="684" type="line"/>
      <point x="320" y="684" type="line"/>
      <point x="320" y="1500" type="line"/>
      <point x="144" y="1500" type="line"/>
    </contour>
    <contour>
      <point x="144" y="-420" type="line"/>
      <point x="320" y="-420" type="line"/>
      <point x="320" y="396" type="line"/>
      <point x="144" y="396" type="line"/>
    </contour>
  </outline>
</glyph>
<glyph name="copyright" format="2">
  <advance width="1440"/>
  <unicode hex="00A9"/>
  <outline>
    <contour>
      <point x="720" y="74" type="curve" smooth="yes"/>
      <point x="1080" y="74"/>
      <point x="1340" y="334"/>
      <point x="1340" y="730" type="curve" smooth="yes"/>
      <point x="1340" y="1126"/>
      <point x="1080" y="1384"/>
      <point x="720" y="1384" type="curve" smooth="yes"/>
      <point x="360" y="1384"/>
      <point x="98" y="1126"/>
      <point x="98" y="730" type="curve" smooth="yes"/>
      <point x="98" y="334"/>
      <point x="360" y="74"/>
    </contour>
    <contour>
      <point x="738" y="394" type="curve" smooth="yes"/>
      <point x="800" y="394"/>
      <point x="868" y="408"/>
      <point x="918" y="434" type="curve"/>
      <point x="904" y="552" type="line"/>
      <point x="850" y="528"/>
      <point x="796" y="512"/>
      <point x="738" y="512" type="curve" smooth="yes"/>
      <point x="616" y="512"/>
      <point x="556" y="606"/>
      <point x="556" y="726" type="curve" smooth="yes"/>
      <point x="556" y="850"/>
      <point x="616" y="940"/>
      <point x="738" y="940" type="curve" smooth="yes"/>
      <point x="796" y="940"/>
      <point x="850" y="924"/>
      <point x="904" y="902" type="curve"/>
      <point x="918" y="1022" type="line"/>
      <point x="868" y="1044"/>
      <point x="800" y="1060"/>
      <point x="738" y="1060" type="curve" smooth="yes"/>
      <point x="554" y="1060"/>
      <point x="422" y="930"/>
      <point x="422" y="726" type="curve" smooth="yes"/>
      <point x="422" y="524"/>
      <point x="554" y="394"/>
    </contour>
    <contour>
      <point x="720" y="162" type="curve" smooth="yes"/>
      <point x="372" y="162"/>
      <point x="202" y="410"/>
      <point x="202" y="730" type="curve" smooth="yes"/>
      <point x="202" y="1050"/>
      <point x="372" y="1296"/>
      <point x="720" y="1296" type="curve" smooth="yes"/>
      <point x="1066" y="1296"/>
      <point x="1236" y="1050"/>
      <point x="1236" y="730" type="curve" smooth="yes"/>
      <point x="1236" y="410"/>
      <point x="1066" y="162"/>
    </contour>
  </outline>
</glyph>
<glyph name="ordfeminine" format="2">
  <advance width="698"/>
  <unicode hex="00AA"/>
  <outline>
    <contour>
      <point x="240" y="868" type="curve" smooth="yes"/>
      <point x="312" y="868"/>
      <point x="384" y="890"/>
      <point x="424" y="930" type="curve"/>
      <point x="446" y="894"/>
      <point x="492" y="868"/>
      <point x="558" y="868" type="curve" smooth="yes"/>
      <point x="612" y="868" type="line"/>
      <point x="626" y="990" type="line"/>
      <point x="606" y="990" type="line" smooth="yes"/>
      <point x="564" y="990"/>
      <point x="554" y="990"/>
      <point x="554" y="1074" type="curve" smooth="yes"/>
      <point x="554" y="1234" type="line" smooth="yes"/>
      <point x="554" y="1388"/>
      <point x="470" y="1450"/>
      <point x="336" y="1450" type="curve" smooth="yes"/>
      <point x="262" y="1450"/>
      <point x="190" y="1436"/>
      <point x="118" y="1404" type="curve"/>
      <point x="130" y="1284" type="line"/>
      <point x="194" y="1310"/>
      <point x="242" y="1324"/>
      <point x="296" y="1324" type="curve" smooth="yes"/>
      <point x="372" y="1324"/>
      <point x="400" y="1296"/>
      <point x="402" y="1240" type="curve"/>
      <point x="292" y="1236"/>
      <point x="66" y="1198"/>
      <point x="66" y="1038" type="curve" smooth="yes"/>
      <point x="66" y="930"/>
      <point x="144" y="868"/>
    </contour>
    <contour>
      <point x="296" y="980" type="curve" smooth="yes"/>
      <point x="252" y="980"/>
      <point x="224" y="1000"/>
      <point x="224" y="1042" type="curve" smooth="yes"/>
      <point x="224" y="1108"/>
      <point x="308" y="1132"/>
      <point x="404" y="1140" type="curve"/>
      <point x="404" y="1014" type="line"/>
      <point x="370" y="990"/>
      <point x="330" y="980"/>
    </contour>
  </outline>
</glyph>
<glyph name="logicalnot" format="2">
  <advance width="1044"/>
  <unicode hex="00AC"/>
  <outline>
    <contour>
      <point x="792" y="302" type="line"/>
      <point x="952" y="302" type="line"/>
      <point x="952" y="812" type="line"/>
      <point x="92" y="812" type="line"/>
      <point x="92" y="660" type="line"/>
      <point x="792" y="660" type="line"/>
    </contour>
  </outline>
</glyph>
<glyph name="softhyphen" format="2">
  <advance width="888"/>
  <unicode hex="00AD"/>
  <outline>
    <contour>
      <point x="134" y="536" type="line"/>
      <point x="754" y="536" type="line"/>
      <point x="754" y="708" type="line"/>
      <point x="134" y="708" type="line"/>
    </contour>
  </outline>
</glyph>
<glyph name="registered" format="2">
  <advance width="1440"/>
  <unicode hex="00AE"/>
  <outline>
    <contour>
      <point x="720" y="72" type="curve" smooth="yes"/>
      <point x="1082" y="72"/>
      <point x="1342" y="332"/>
      <point x="1342" y="730" type="curve" smooth="yes"/>
      <point x="1342" y="1128"/>
      <point x="1082" y="1386"/>
      <point x="720" y="1386" type="curve" smooth="yes"/>
      <point x="358" y="1386"/>
      <point x="96" y="1128"/>
      <point x="96" y="730" type="curve" smooth="yes"/>
      <point x="96" y="332"/>
      <point x="358" y="72"/>
    </contour>
    <contour>
      <point x="720" y="160" type="curve" smooth="yes"/>
      <point x="372" y="160"/>
      <point x="200" y="410"/>
      <point x="200" y="730" type="curve" smooth="yes"/>
      <point x="200" y="1050"/>
      <point x="372" y="1298"/>
      <point x="720" y="1298" type="curve" smooth="yes"/>
      <point x="1066" y="1298"/>
      <point x="1238" y="1050"/>
      <point x="1238" y="730" type="curve" smooth="yes"/>
      <point x="1238" y="410"/>
      <point x="1066" y="160"/>
    </contour>
    <contour>
      <point x="488" y="420" type="line"/>
      <point x="612" y="420" type="line"/>
      <point x="612" y="654" type="line"/>
      <point x="728" y="654" type="line"/>
      <point x="846" y="420" type="line"/>
      <point x="978" y="420" type="line"/>
      <point x="836" y="688" type="line"/>
      <point x="904" y="726"/>
      <point x="944" y="784"/>
      <point x="944" y="868" type="curve" smooth="yes"/>
      <point x="944" y="1000"/>
      <point x="862" y="1062"/>
      <point x="724" y="1062" type="curve" smooth="yes"/>
      <point x="488" y="1062" type="line"/>
    </contour>
    <contour>
      <point x="612" y="766" type="line"/>
      <point x="612" y="964" type="line"/>
      <point x="712" y="964" type="line" smooth="yes"/>
      <point x="780" y="964"/>
      <point x="814" y="926"/>
      <point x="814" y="866" type="curve" smooth="yes"/>
      <point x="814" y="806"/>
      <point x="782" y="766"/>
      <point x="712" y="766" type="curve" smooth="yes"/>
    </contour>
  </outline>
</glyph>
<glyph name="degree" format="2">
  <advance width="582"/>
  <unicode hex="00B0"/>
  <outline>
    <contour>
      <point x="290" y="964" type="curve" smooth="yes"/>
      <point x="462" y="964"/>
      <point x="562" y="1084"/>
      <point x="562" y="1236" type="curve" smooth="yes"/>
      <point x="562" y="1388"/>
      <point x="462" y="1510"/>
      <point x="290" y="1510" type="curve" smooth="yes"/>
      <point x="120" y="1510"/>
      <point x="20" y="1388"/>
      <point x="20" y="1236" type="curve" smooth="yes"/>
      <point x="20" y="1084"/>
      <point x="120" y="964"/>
    </contour>
    <contour>
      <point x="290" y="1044" type="curve" smooth="yes"/>
      <point x="178" y="1044"/>
      <point x="116" y="1138"/>
      <point x="116" y="1236" type="curve" smooth="yes"/>
      <point x="116" y="1334"/>
      <point x="176" y="1430"/>
      <point x="290" y="1430" type="curve" smooth="yes"/>
      <point x="408" y="1430"/>
      <point x="464" y="1334"/>
      <point x="464" y="1236" type="curve" smooth="yes"/>
      <point x="464" y="1138"/>
      <point x="408" y="1044"/>
    </contour>
  </outline>
</glyph>
<glyph name="plusminus" format="2">
  <advance width="924"/>
  <unicode hex="00B1"/>
  <outline>
    <contour>
      <point x="392" y="352" type="line"/>
      <point x="532" y="352" type="line"/>
      <point x="532" y="624" type="line"/>
      <point x="812" y="624" type="line"/>
      <point x="812" y="768" type="line"/>
      <point x="532" y="768" type="line"/>
      <point x="532" y="1040" type="line"/>
      <point x="392" y="1040" type="line"/>
      <point x="392" y="768" type="line"/>
      <point x="112" y="768" type="line"/>
      <point x="112" y="624" type="line"/>
      <point x="392" y="624" type="line"/>
    </contour>
    <contour>
      <point x="112" y="120" type="line"/>
      <point x="812" y="120" type="line"/>
      <point x="812" y="264" type="line"/>
      <point x="112" y="264" type="line"/>
    </contour>
  </outline>
</glyph>
<glyph name="micro" format="2">
  <advance width="1216"/>
  <unicode hex="00B5"/>
  <outline>
    <contour>
      <point x="160" y="-484" type="line"/>
      <point x="336" y="-484" type="line"/>
      <point x="336" y="54" type="line"/>
      <point x="388" y="6"/>
      <point x="466" y="-22"/>
      <point x="560" y="-22" type="curve" smooth="yes"/>
      <point x="678" y="-22"/>
      <point x="756" y="34"/>
      <point x="828" y="126" type="curve"/>
      <point x="866" y="26"/>
      <point x="938" y="-20"/>
      <point x="1042" y="-20" type="curve" smooth="yes"/>
      <point x="1094" y="-20" type="line"/>
      <point x="1126" y="124" type="line"/>
      <point x="1082" y="124" type="line" smooth="yes"/>
      <point x="1004" y="124"/>
      <point x="988" y="204"/>
      <point x="988" y="340" type="curve" smooth="yes"/>
      <point x="988" y="980" type="line"/>
      <point x="814" y="980" type="line"/>
      <point x="814" y="254" type="line"/>
      <point x="750" y="180"/>
      <point x="680" y="138"/>
      <point x="572" y="138" type="curve" smooth="yes"/>
      <point x="408" y="138"/>
      <point x="338" y="244"/>
      <point x="338" y="424" type="curve" smooth="yes"/>
      <point x="338" y="980" type="line"/>
      <point x="160" y="980" type="line"/>
    </contour>
  </outline>
</glyph>
<glyph name="paragraph" format="2">
  <advance width="1244"/>
  <unicode hex="00B6"/>
  <outline>
    <contour>
      <point x="630" y="0" type="line"/>
      <point x="712" y="0" type="line"/>
      <point x="712" y="1266" type="line"/>
      <point x="914" y="1266" type="line"/>
      <point x="914" y="0" type="line"/>
      <point x="1010" y="0" type="line"/>
      <point x="1010" y="1266" type="line"/>
      <point x="1160" y="1266" type="line"/>
      <point x="1160" y="1400" type="line"/>
      <point x="642" y="1400" type="line" smooth="yes"/>
      <point x="246" y="1400"/>
      <point x="66" y="1168"/>
      <point x="66" y="948" type="curve" smooth="yes"/>
      <point x="66" y="734"/>
      <point x="234" y="508"/>
      <point x="630" y="486" type="curve"/>
    </contour>
  </outline>
</glyph>
<glyph name="periodcentered" format="2">
  <advance width="476"/>
  <unicode hex="00B7"/>
  <outline>
    <contour>
      <point x="114" y="426" type="line"/>
      <point x="362" y="426" type="line"/>
      <point x="362" y="686" type="line"/>
      <point x="114" y="686" type="line"/>
    </contour>
  </outline>
</glyph>
<glyph name="ordmasculine" format="2">
  <advance width="740"/>
  <unicode hex="00BA"/>
  <outline>
    <contour>
      <point x="370" y="868" type="curve" smooth="yes"/>
      <point x="562" y="868"/>
      <point x="674" y="1004"/>
      <point x="674" y="1160" type="curve" smooth="yes"/>
      <point x="674" y="1316"/>
      <point x="562" y="1450"/>
      <point x="370" y="1450" type="curve" smooth="yes"/>
      <point x="178" y="1450"/>
      <point x="66" y="1316"/>
      <point x="66" y="1160" type="curve" smooth="yes"/>
      <point x="66" y="1004"/>
      <point x="178" y="868"/>
    </contour>
    <contour>
      <point x="370" y="988" type="curve" smooth="yes"/>
      <point x="274" y="988"/>
      <point x="220" y="1060"/>
      <point x="220" y="1160" type="curve" smooth="yes"/>
      <point x="220" y="1260"/>
      <point x="274" y="1332"/>
      <point x="370" y="1332" type="curve" smooth="yes"/>
      <point x="466" y="1332"/>
      <point x="520" y="1260"/>
      <point x="520" y="1160" type="curve" smooth="yes"/>
      <point x="520" y="1060"/>
      <point x="466" y="988"/>
    </contour>
  </outline>
</glyph>
<glyph name="AE" format="2">
  <advance width="1732"/>
  <unicode hex="00C6"/>
  <anchor x="866" y="0" name="bottom"/>
  <anchor x="1154" y="1400" name="top"/>
  <outline>
    <contour>
      <point x="-14" y="0" type="line"/>
      <point x="172" y="0" type="line"/>
      <point x="784" y="1222" type="line"/>
      <point x="784" y="0" type="line"/>
      <point x="1656" y="0" type="line"/>
      <point x="1656" y="172" type="line"/>
      <point x="1012" y="172" type="line"/>
      <point x="1012" y="646" type="line"/>
      <point x="1494" y="646" type="line"/>
      <point x="1494" y="818" type="line"/>
      <point x="1012" y="818" type="line"/>
      <point x="1012" y="1226" type="line"/>
      <point x="1636" y="1226" type="line"/>
      <point x="1636" y="1400" type="line"/>
      <point x="670" y="1400" type="line"/>
    </contour>
    <contour>
      <point x="310" y="360" type="line"/>
      <point x="816" y="360" type="line"/>
      <point x="816" y="544" type="line"/>
      <point x="310" y="544" type="line"/>
    </contour>
  </outline>
</glyph>
<glyph name="Eth" format="2">
  <advance width="1458"/>
  <unicode hex="00D0"/>
  <outline>
    <contour>
      <point x="176" y="0" type="line"/>
      <point x="688" y="0" type="line" smooth="yes"/>
      <point x="1090" y="0"/>
      <point x="1378" y="258"/>
      <point x="1378" y="700" type="curve" smooth="yes"/>
      <point x="1378" y="1142"/>
      <point x="1090" y="1400"/>
      <point x="688" y="1400" type="curve" smooth="yes"/>
      <point x="176" y="1400" type="line"/>
      <point x="176" y="794" type="line"/>
      <point x="36" y="794" type="line"/>
      <point x="36" y="626" type="line"/>
      <point x="176" y="626" type="line"/>
    </contour>
    <contour>
      <point x="356" y="174" type="line"/>
      <point x="356" y="626" type="line"/>
      <point x="622" y="626" type="line"/>
      <point x="622" y="794" type="line"/>
      <point x="356" y="794" type="line"/>
      <point x="356" y="1228" type="line"/>
      <point x="688" y="1228" type="line" smooth="yes"/>
      <point x="1010" y="1228"/>
      <point x="1174" y="1018"/>
      <point x="1174" y="700" type="curve" smooth="yes"/>
      <point x="1174" y="382"/>
      <point x="1010" y="174"/>
      <point x="688" y="174" type="curve" smooth="yes"/>
    </contour>
  </outline>
</glyph>
<glyph name="multiply" format="2">
  <advance width="812"/>
  <unicode hex="00D7"/>
  <outline>
    <contour>
      <point x="172" y="214" type="line"/>
      <point x="744" y="806" type="line"/>
      <point x="640" y="910" type="line"/>
      <point x="68" y="318" type="line"/>
    </contour>
    <contour>
      <point x="640" y="214" type="line"/>
      <point x="744" y="318" type="line"/>
      <point x="172" y="910" type="line"/>
      <point x="68" y="806" type="line"/>
    </contour>
  </outline>
</glyph>
<glyph name="Oslash" format="2">
  <advance width="1540"/>
  <unicode hex="00D8"/>
  <guideline x="730" y="350" angle="90"/>
  <guideline x="40" y="350" angle="90"/>
  <anchor x="768" y="1400" name="top"/>
  <anchor x="770" y="0" name="bottom"/>
  <anchor x="874" y="0" name="ogonek"/>
  <anchor x="958" y="1400" name="topright"/>
  <outline>
    <contour>
      <point x="140" y="-88" type="line"/>
      <point x="322" y="-88" type="line"/>
      <point x="1400" y="1488" type="line"/>
      <point x="1218" y="1488" type="line"/>
    </contour>
    <component base="O"/>
  </outline>
</glyph>
<glyph name="Thorn" format="2">
  <advance width="1148"/>
  <unicode hex="00DE"/>
  <outline>
    <contour>
      <point x="160" y="0" type="line"/>
      <point x="360" y="0" type="line"/>
      <point x="360" y="382" type="line"/>
      <point x="690" y="382" type="line" smooth="yes"/>
      <point x="974" y="382"/>
      <point x="1100" y="524"/>
      <point x="1100" y="736" type="curve" smooth="yes"/>
      <point x="1100" y="948"/>
      <point x="976" y="1090"/>
      <point x="690" y="1090" type="curve" smooth="yes"/>
      <point x="360" y="1090" type="line"/>
      <point x="360" y="1400" type="line"/>
      <point x="160" y="1400" type="line"/>
    </contour>
    <contour>
      <point x="360" y="552" type="line"/>
      <point x="360" y="920" type="line"/>
      <point x="676" y="920" type="line" smooth="yes"/>
      <point x="826" y="920"/>
      <point x="904" y="856"/>
      <point x="904" y="736" type="curve" smooth="yes"/>
      <point x="904" y="616"/>
      <point x="826" y="552"/>
      <point x="676" y="552" type="curve" smooth="yes"/>
    </contour>
  </outline>
</glyph>
<glyph name="germandbls" format="2">
  <advance width="1154"/>
  <unicode hex="00DF"/>
  <outline>
    <contour>
      <point x="692" y="-28" type="curve" smooth="yes"/>
      <point x="904" y="-28"/>
      <point x="1102" y="76"/>
      <point x="1102" y="298" type="curve" smooth="yes"/>
      <point x="1102" y="598"/>
      <point x="740" y="610"/>
      <point x="740" y="772" type="curve" smooth="yes"/>
      <point x="740" y="834"/>
      <point x="790" y="878"/>
      <point x="872" y="970" type="curve" smooth="yes"/>
      <point x="930" y="1034"/>
      <point x="982" y="1100"/>
      <point x="982" y="1226" type="curve" smooth="yes"/>
      <point x="982" y="1412"/>
      <point x="834" y="1528"/>
      <point x="608" y="1528" type="curve" smooth="yes"/>
      <point x="358" y="1528"/>
      <point x="186" y="1388"/>
      <point x="186" y="1100" type="curve" smooth="yes"/>
      <point x="186" y="980" type="line"/>
      <point x="52" y="980" type="line"/>
      <point x="36" y="840" type="line"/>
      <point x="186" y="840" type="line"/>
      <point x="186" y="0" type="line"/>
      <point x="358" y="0" type="line"/>
      <point x="358" y="1104" type="line" smooth="yes"/>
      <point x="358" y="1268"/>
      <point x="440" y="1368"/>
      <point x="604" y="1368" type="curve" smooth="yes"/>
      <point x="736" y="1368"/>
      <point x="808" y="1298"/>
      <point x="808" y="1194" type="curve" smooth="yes"/>
      <point x="808" y="1118"/>
      <point x="774" y="1078"/>
      <point x="710" y="1012" type="curve" smooth="yes"/>
      <point x="606" y="904"/>
      <point x="560" y="846"/>
      <point x="560" y="750" type="curve" smooth="yes"/>
      <point x="560" y="514"/>
      <point x="922" y="526"/>
      <point x="922" y="288" type="curve" smooth="yes"/>
      <point x="922" y="178"/>
      <point x="834" y="112"/>
      <point x="694" y="112" type="curve" smooth="yes"/>
      <point x="620" y="112"/>
      <point x="552" y="122"/>
      <point x="484" y="140" type="curve"/>
      <point x="484" y="0" type="line"/>
      <point x="554" y="-20"/>
      <point x="618" y="-28"/>
    </contour>
  </outline>
</glyph>
<glyph name="ae" format="2">
  <advance width="1560"/>
  <unicode hex="00E6"/>
  <anchor x="810" y="980" name="top"/>
  <outline>
    <contour>
      <point x="370" y="-20" type="curve" smooth="yes"/>
      <point x="536" y="-20"/>
      <point x="690" y="84"/>
      <point x="764" y="222" type="curve"/>
      <point x="704" y="306" type="line"/>
      <point x="634" y="190"/>
      <point x="528" y="124"/>
      <point x="404" y="124" type="curve" smooth="yes"/>
      <point x="302" y="124"/>
      <point x="232" y="168"/>
      <point x="232" y="274" type="curve" smooth="yes"/>
      <point x="232" y="420"/>
      <point x="352" y="490"/>
      <point x="656" y="490" type="curve" smooth="yes"/>
      <point x="1492" y="490" type="line"/>
      <point x="1498" y="524"/>
      <point x="1500" y="558"/>
      <point x="1500" y="586" type="curve" smooth="yes"/>
      <point x="1500" y="824"/>
      <point x="1358" y="1000"/>
      <point x="1112" y="1000" type="curve" smooth="yes"/>
      <point x="918" y="1000"/>
      <point x="770" y="888"/>
      <point x="702" y="728" type="curve"/>
      <point x="798" y="740" type="line"/>
      <point x="760" y="932"/>
      <point x="658" y="1000"/>
      <point x="468" y="1000" type="curve" smooth="yes"/>
      <point x="338" y="1000"/>
      <point x="214" y="958"/>
      <point x="136" y="898" type="curve"/>
      <point x="162" y="752" type="line"/>
      <point x="266" y="824"/>
      <point x="346" y="840"/>
      <point x="420" y="840" type="curve" smooth="yes"/>
      <point x="588" y="840"/>
      <point x="638" y="752"/>
      <point x="638" y="586" type="curve" smooth="yes"/>
      <point x="638" y="498" type="line" smooth="yes"/>
      <point x="638" y="216"/>
      <point x="816" y="-20"/>
      <point x="1148" y="-20" type="curve" smooth="yes"/>
      <point x="1282" y="-20"/>
      <point x="1380" y="14"/>
      <point x="1456" y="56" type="curve"/>
      <point x="1432" y="198" type="line"/>
      <point x="1338" y="160"/>
      <point x="1254" y="140"/>
      <point x="1170" y="140" type="curve" smooth="yes"/>
      <point x="990" y="140"/>
      <point x="828" y="232"/>
      <point x="828" y="516" type="curve" smooth="yes"/>
      <point x="828" y="728"/>
      <point x="936" y="840"/>
      <point x="1096" y="840" type="curve" smooth="yes"/>
      <point x="1244" y="840"/>
      <point x="1314" y="742"/>
      <point x="1314" y="614" type="curve"/>
      <point x="690" y="614" type="line" smooth="yes"/>
      <point x="422" y="614"/>
      <point x="48" y="560"/>
      <point x="48" y="264" type="curve" smooth="yes"/>
      <point x="48" y="100"/>
      <point x="176" y="-20"/>
    </contour>
  </outline>
</glyph>
<glyph name="eth" format="2">
  <advance width="1034"/>
  <unicode hex="00F0"/>
  <outline>
    <contour>
      <point x="498" y="-24" type="curve" smooth="yes"/>
      <point x="766" y="-24"/>
      <point x="968" y="180"/>
      <point x="968" y="514" type="curve" smooth="yes"/>
      <point x="968" y="926"/>
      <point x="704" y="1364"/>
      <point x="312" y="1402" type="curve"/>
      <point x="282" y="1308" type="line"/>
      <point x="576" y="1240"/>
      <point x="734" y="966"/>
      <point x="754" y="684" type="curve"/>
      <point x="772" y="702" type="line"/>
      <point x="732" y="786"/>
      <point x="630" y="852"/>
      <point x="486" y="852" type="curve" smooth="yes"/>
      <point x="234" y="852"/>
      <point x="56" y="648"/>
      <point x="56" y="410" type="curve" smooth="yes"/>
      <point x="56" y="180"/>
      <point x="220" y="-24"/>
    </contour>
    <contour>
      <point x="506" y="142" type="curve" smooth="yes"/>
      <point x="342" y="142"/>
      <point x="240" y="268"/>
      <point x="240" y="420" type="curve" smooth="yes"/>
      <point x="240" y="558"/>
      <point x="340" y="686"/>
      <point x="508" y="686" type="curve" smooth="yes"/>
      <point x="666" y="686"/>
      <point x="766" y="574"/>
      <point x="766" y="416" type="curve" smooth="yes"/>
      <point x="766" y="258"/>
      <point x="662" y="142"/>
    </contour>
    <contour>
      <point x="348" y="998" type="line"/>
      <point x="854" y="1292" type="line"/>
      <point x="790" y="1400" type="line"/>
      <point x="282" y="1106" type="line"/>
    </contour>
  </outline>
</glyph>
<glyph name="divide" format="2">
  <advance width="964"/>
  <unicode hex="00F7"/>
  <outline>
    <contour>
      <point x="92" y="486" type="line"/>
      <point x="872" y="486" type="line"/>
      <point x="872" y="638" type="line"/>
      <point x="92" y="638" type="line"/>
    </contour>
    <contour>
      <point x="382" y="118" type="line"/>
      <point x="582" y="118" type="line"/>
      <point x="582" y="318" type="line"/>
      <point x="382" y="318" type="line"/>
    </contour>
    <contour>
      <point x="382" y="806" type="line"/>
      <point x="582" y="806" type="line"/>
      <point x="582" y="1006" type="line"/>
      <point x="382" y="1006" type="line"/>
    </contour>
  </outline>
</glyph>
<glyph name="oslash" format="2">
  <advance width="1100"/>
  <unicode hex="00F8"/>
  <guideline x="518" y="245" angle="90"/>
  <guideline x="32" y="245" angle="90"/>
  <anchor x="550" y="980" name="top"/>
  <anchor x="550" y="0" name="bottom"/>
  <anchor x="640" y="0" name="ogonek"/>
  <anchor x="678" y="980" name="topright"/>
  <outline>
    <contour>
      <point x="822" y="1060" type="line"/>
      <point x="116" y="-80" type="line"/>
      <point x="278" y="-80" type="line"/>
      <point x="984" y="1060" type="line"/>
    </contour>
    <component base="o"/>
  </outline>
</glyph>
<glyph name="thorn" format="2">
  <advance width="1162"/>
  <unicode hex="00FE"/>
  <outline>
    <contour>
      <point x="120" y="-482" type="line"/>
      <point x="300" y="-482" type="line"/>
      <point x="300" y="198" type="line"/>
      <point x="270" y="170" type="line"/>
      <point x="338" y="44"/>
      <point x="464" y="-20"/>
      <point x="636" y="-20" type="curve" smooth="yes"/>
      <point x="934" y="-20"/>
      <point x="1096" y="216"/>
      <point x="1096" y="490" type="curve" smooth="yes"/>
      <point x="1096" y="766"/>
      <point x="926" y="1000"/>
      <point x="636" y="1000" type="curve" smooth="yes"/>
      <point x="484" y="1000"/>
      <point x="358" y="942"/>
      <point x="260" y="810" type="curve"/>
      <point x="300" y="790" type="line"/>
      <point x="300" y="1500" type="line"/>
      <point x="120" y="1500" type="line"/>
    </contour>
    <contour>
      <point x="606" y="124" type="curve" smooth="yes"/>
      <point x="408" y="124"/>
      <point x="286" y="270"/>
      <point x="286" y="490" type="curve" smooth="yes"/>
      <point x="286" y="708"/>
      <point x="408" y="840"/>
      <point x="606" y="840" type="curve" smooth="yes"/>
      <point x="808" y="840"/>
      <point x="914" y="698"/>
      <point x="914" y="490" type="curve" smooth="yes"/>
      <point x="914" y="280"/>
      <point x="808" y="124"/>
    </contour>
  </outline>
</glyph>
<glyph name="dcroat" format="2">
  <advance width="1110"/>
  <unicode hex="0111"/>
  <outline>
    <contour>
      <point x="510" y="1174" type="line"/>
      <point x="1142" y="1174" type="line"/>
      <point x="1142" y="1314" type="line"/>
      <point x="510" y="1314" type="line"/>
    </contour>
    <component base="d"/>
  </outline>
</glyph>
<glyph name="Hbar" format="2">
  <advance width="1492"/>
  <unicode hex="0126"/>
  <outline>
    <contour>
      <point x="160" y="0" type="line"/>
      <point x="350" y="0" type="line"/>
      <point x="350" y="642" type="line"/>
      <point x="1142" y="642" type="line"/>
      <point x="1142" y="0" type="line"/>
      <point x="1332" y="0" type="line"/>
      <point x="1332" y="1400" type="line"/>
      <point x="1142" y="1400" type="line"/>
      <point x="1142" y="822" type="line"/>
      <point x="350" y="822" type="line"/>
      <point x="350" y="1400" type="line"/>
      <point x="160" y="1400" type="line"/>
    </contour>
    <contour>
      <point x="20" y="1000" type="line"/>
      <point x="1472" y="1000" type="line"/>
      <point x="1472" y="1128" type="line"/>
      <point x="20" y="1128" type="line"/>
    </contour>
  </outline>
</glyph>
<glyph name="hbar" format="2">
  <advance width="1084"/>
  <unicode hex="0127"/>
  <outline>
    <contour>
      <point x="120" y="0" type="line"/>
      <point x="302" y="0" type="line"/>
      <point x="302" y="788" type="line"/>
      <point x="272" y="656" type="line"/>
      <point x="330" y="784"/>
      <point x="416" y="840"/>
      <point x="558" y="840" type="curve" smooth="yes"/>
      <point x="732" y="840"/>
      <point x="792" y="756"/>
      <point x="792" y="524" type="curve" smooth="yes"/>
      <point x="792" y="0" type="line"/>
      <point x="972" y="0" type="line"/>
      <point x="972" y="524" type="line" smooth="yes"/>
      <point x="972" y="806"/>
      <point x="872" y="1000"/>
      <point x="604" y="1000" type="curve" smooth="yes"/>
      <point x="446" y="1000"/>
      <point x="344" y="946"/>
      <point x="268" y="826" type="curve"/>
      <point x="302" y="826" type="line"/>
      <point x="302" y="1500" type="line"/>
      <point x="120" y="1500" type="line"/>
    </contour>
    <contour>
      <point x="-32" y="1174" type="line"/>
      <point x="602" y="1174" type="line"/>
      <point x="602" y="1314" type="line"/>
      <point x="-32" y="1314" type="line"/>
    </contour>
  </outline>
</glyph>
<glyph name="idotless" format="2">
  <advance width="424"/>
  <unicode hex="0131"/>
  <anchor x="212" y="0" name="bottom"/>
  <anchor x="246" y="0" name="ogonek"/>
  <anchor x="212" y="980" name="top"/>
  <outline>
    <contour>
      <point x="122" y="0" type="line"/>
      <point x="302" y="0" type="line"/>
      <point x="302" y="980" type="line"/>
      <point x="122" y="980" type="line"/>
    </contour>
  </outline>
</glyph>
<glyph name="IJ" format="2">
  <advance width="1368"/>
  <unicode hex="0132"/>
  <outline>
    <contour>
      <point x="342" y="488" type="curve"/>
      <point x="152" y="462" type="line"/>
      <point x="188" y="156"/>
      <point x="362" y="-28"/>
      <point x="684" y="-28" type="curve" smooth="yes"/>
      <point x="1050" y="-28"/>
      <point x="1224" y="210"/>
      <point x="1224" y="594" type="curve" smooth="yes"/>
      <point x="1224" y="1400" type="line"/>
      <point x="1034" y="1400" type="line"/>
      <point x="1034" y="646" type="line" smooth="yes"/>
      <point x="1034" y="392"/>
      <point x="982" y="144"/>
      <point x="684" y="144" type="curve" smooth="yes"/>
      <point x="446" y="144"/>
      <point x="364" y="298"/>
    </contour>
    <contour>
      <point x="144" y="646" type="line"/>
      <point x="334" y="646" type="line"/>
      <point x="334" y="1400" type="line"/>
      <point x="144" y="1400" type="line"/>
    </contour>
  </outline>
</glyph>
<glyph name="kgreenlandic" format="2">
  <advance width="1004"/>
  <unicode hex="0138"/>
  <outline>
    <contour>
      <point x="122" y="0" type="line"/>
      <point x="302" y="0" type="line"/>
      <point x="302" y="484" type="line"/>
      <point x="772" y="0" type="line"/>
      <point x="992" y="0" type="line"/>
      <point x="478" y="508" type="line"/>
      <point x="982" y="980" type="line"/>
      <point x="762" y="980" type="line"/>
      <point x="302" y="524" type="line"/>
      <point x="302" y="980" type="line"/>
      <point x="122" y="980" type="line"/>
    </contour>
  </outline>
</glyph>
<glyph name="Lslash" format="2">
  <advance width="1002"/>
  <unicode hex="0141"/>
  <outline>
    <contour>
      <point x="160" y="0" type="line"/>
      <point x="992" y="0" type="line"/>
      <point x="992" y="172" type="line"/>
      <point x="350" y="172" type="line"/>
      <point x="350" y="1400" type="line"/>
      <point x="160" y="1400" type="line"/>
    </contour>
    <contour>
      <point x="20" y="724" type="line"/>
      <point x="772" y="928" type="line"/>
      <point x="772" y="1062" type="line"/>
      <point x="20" y="858" type="line"/>
    </contour>
  </outline>
</glyph>
<glyph name="lslash" format="2">
  <advance width="472"/>
  <unicode hex="0142"/>
  <outline>
    <contour>
      <point x="374" y="-20" type="curve" smooth="yes"/>
      <point x="432" y="-20" type="line"/>
      <point x="458" y="124" type="line"/>
      <point x="320" y="124"/>
      <point x="300" y="152"/>
      <point x="300" y="320" type="curve" smooth="yes"/>
      <point x="300" y="1500" type="line"/>
      <point x="120" y="1500" type="line"/>
      <point x="120" y="216" type="line" smooth="yes"/>
      <point x="120" y="98"/>
      <point x="184" y="-20"/>
    </contour>
    <contour>
      <point x="-20" y="792" type="line"/>
      <point x="460" y="920" type="line"/>
      <point x="460" y="1056" type="line"/>
      <point x="-20" y="928" type="line"/>
    </contour>
  </outline>
</glyph>
<glyph name="Eng" format="2">
  <advance width="1418"/>
  <unicode hex="014A"/>
  <outline>
    <contour>
      <point x="1290" y="100" type="curve" smooth="yes"/>
      <point x="1290" y="920" type="line" smooth="yes"/>
      <point x="1290" y="1224"/>
      <point x="1118" y="1428"/>
      <point x="774" y="1428" type="curve" smooth="yes"/>
      <point x="604" y="1428"/>
      <point x="448" y="1372"/>
      <point x="334" y="1266" type="curve"/>
      <point x="322" y="1400" type="line"/>
      <point x="160" y="1400" type="line"/>
      <point x="160" y="0" type="line"/>
      <point x="352" y="0" type="line"/>
      <point x="352" y="1112" type="line"/>
      <point x="428" y="1198"/>
      <point x="556" y="1256"/>
      <point x="732" y="1256" type="curve" smooth="yes"/>
      <point x="974" y="1256"/>
      <point x="1098" y="1128"/>
      <point x="1098" y="900" type="curve" smooth="yes"/>
      <point x="1098" y="80" type="line" smooth="yes"/>
      <point x="1098" y="-106"/>
      <point x="992" y="-198"/>
      <point x="832" y="-198" type="curve" smooth="yes"/>
      <point x="782" y="-198"/>
      <point x="732" y="-192"/>
      <point x="684" y="-180" type="curve"/>
      <point x="658" y="-348" type="line"/>
      <point x="708" y="-362"/>
      <point x="764" y="-370"/>
      <point x="820" y="-370" type="curve" smooth="yes"/>
      <point x="1094" y="-370"/>
      <point x="1290" y="-218"/>
    </contour>
  </outline>
</glyph>
<glyph name="OE" format="2">
  <advance width="2142"/>
  <unicode hex="0152"/>
  <outline>
    <contour>
      <point x="744" y="-28" type="curve" smooth="yes"/>
      <point x="1102" y="-28"/>
      <point x="1400" y="256"/>
      <point x="1400" y="700" type="curve" smooth="yes"/>
      <point x="1400" y="1144"/>
      <point x="1102" y="1428"/>
      <point x="744" y="1428" type="curve" smooth="yes"/>
      <point x="358" y="1428"/>
      <point x="80" y="1144"/>
      <point x="80" y="700" type="curve" smooth="yes"/>
      <point x="80" y="256"/>
      <point x="358" y="-28"/>
    </contour>
    <contour>
      <point x="756" y="144" type="curve" smooth="yes"/>
      <point x="436" y="144"/>
      <point x="280" y="386"/>
      <point x="280" y="700" type="curve" smooth="yes"/>
      <point x="280" y="1014"/>
      <point x="436" y="1256"/>
      <point x="756" y="1256" type="curve" smooth="yes"/>
      <point x="1074" y="1256"/>
      <point x="1230" y="1014"/>
      <point x="1230" y="700" type="curve" smooth="yes"/>
      <point x="1230" y="386"/>
      <point x="1074" y="144"/>
    </contour>
    <contour>
      <point x="1248" y="0" type="line"/>
      <point x="2068" y="0" type="line"/>
      <point x="2068" y="172" type="line"/>
      <point x="1430" y="172" type="line"/>
      <point x="1430" y="646" type="line"/>
      <point x="1906" y="646" type="line"/>
      <point x="1906" y="818" type="line"/>
      <point x="1430" y="818" type="line"/>
      <point x="1430" y="1228" type="line"/>
      <point x="2050" y="1228" type="line"/>
      <point x="2050" y="1398" type="line"/>
      <point x="1248" y="1398" type="line"/>
    </contour>
  </outline>
</glyph>
<glyph name="oe" format="2">
  <advance width="1804"/>
  <unicode hex="0153"/>
  <anchor x="936" y="980" name="top"/>
  <outline>
    <contour>
      <point x="550" y="-20" type="curve" smooth="yes"/>
      <point x="758" y="-20"/>
      <point x="906" y="94"/>
      <point x="976" y="264" type="curve"/>
      <point x="906" y="266" type="line"/>
      <point x="980" y="96"/>
      <point x="1138" y="-20"/>
      <point x="1372" y="-20" type="curve" smooth="yes"/>
      <point x="1514" y="-20"/>
      <point x="1624" y="22"/>
      <point x="1700" y="56" type="curve"/>
      <point x="1676" y="198" type="line"/>
      <point x="1588" y="158"/>
      <point x="1484" y="140"/>
      <point x="1394" y="140" type="curve" smooth="yes"/>
      <point x="1208" y="140"/>
      <point x="1052" y="218"/>
      <point x="1026" y="490" type="curve"/>
      <point x="1736" y="490" type="line"/>
      <point x="1742" y="524"/>
      <point x="1744" y="558"/>
      <point x="1744" y="586" type="curve" smooth="yes"/>
      <point x="1744" y="850"/>
      <point x="1566" y="1000"/>
      <point x="1322" y="1000" type="curve" smooth="yes"/>
      <point x="1124" y="1000"/>
      <point x="982" y="894"/>
      <point x="910" y="738" type="curve"/>
      <point x="962" y="744" type="line"/>
      <point x="888" y="898"/>
      <point x="746" y="1000"/>
      <point x="550" y="1000" type="curve" smooth="yes"/>
      <point x="242" y="1000"/>
      <point x="64" y="774"/>
      <point x="64" y="490" type="curve" smooth="yes"/>
      <point x="64" y="206"/>
      <point x="242" y="-20"/>
    </contour>
    <contour>
      <point x="550" y="140" type="curve" smooth="yes"/>
      <point x="356" y="140"/>
      <point x="248" y="270"/>
      <point x="248" y="490" type="curve" smooth="yes"/>
      <point x="248" y="710"/>
      <point x="356" y="840"/>
      <point x="550" y="840" type="curve" smooth="yes"/>
      <point x="744" y="840"/>
      <point x="852" y="710"/>
      <point x="852" y="490" type="curve" smooth="yes"/>
      <point x="852" y="270"/>
      <point x="744" y="140"/>
    </contour>
    <contour>
      <point x="1042" y="614" type="line"/>
      <point x="1078" y="756"/>
      <point x="1158" y="840"/>
      <point x="1318" y="840" type="curve" smooth="yes"/>
      <point x="1482" y="840"/>
      <point x="1558" y="752"/>
      <point x="1558" y="614" type="curve"/>
    </contour>
  </outline>
</glyph>
<glyph name="Tbar" format="2">
  <advance width="1066"/>
  <unicode hex="0166"/>
  <outline>
    <contour>
      <point x="438" y="0" type="line"/>
      <point x="628" y="0" type="line"/>
      <point x="628" y="1228" type="line"/>
      <point x="1036" y="1228" type="line"/>
      <point x="1036" y="1400" type="line"/>
      <point x="30" y="1400" type="line"/>
      <point x="30" y="1228" type="line"/>
      <point x="438" y="1228" type="line"/>
    </contour>
    <contour>
      <point x="178" y="654" type="line"/>
      <point x="888" y="654" type="line"/>
      <point x="888" y="780" type="line"/>
      <point x="178" y="780" type="line"/>
    </contour>
  </outline>
</glyph>
<glyph name="tbar" format="2">
  <advance width="674"/>
  <unicode hex="0167"/>
  <outline>
    <contour>
      <point x="460" y="-20" type="curve" smooth="yes"/>
      <point x="622" y="-20" type="line"/>
      <point x="636" y="124" type="line"/>
      <point x="590" y="124" type="line" smooth="yes"/>
      <point x="396" y="124"/>
      <point x="384" y="136"/>
      <point x="384" y="324" type="curve" smooth="yes"/>
      <point x="384" y="840" type="line"/>
      <point x="642" y="840" type="line"/>
      <point x="642" y="980" type="line"/>
      <point x="384" y="980" type="line"/>
      <point x="384" y="1240" type="line"/>
      <point x="204" y="1222" type="line"/>
      <point x="204" y="980" type="line"/>
      <point x="52" y="980" type="line"/>
      <point x="36" y="840" type="line"/>
      <point x="204" y="840" type="line"/>
      <point x="204" y="214" type="line" smooth="yes"/>
      <point x="204" y="96"/>
      <point x="274" y="-20"/>
    </contour>
    <contour>
      <point x="36" y="484" type="line"/>
      <point x="632" y="484" type="line"/>
      <point x="632" y="610" type="line"/>
      <point x="36" y="610" type="line"/>
    </contour>
  </outline>
</glyph>
<glyph name="Schwa" format="2">
  <advance width="1398"/>
  <unicode hex="018F"/>
  <outline>
    <contour>
      <point x="1110" y="684" type="curve" smooth="yes"/>
      <point x="1110" y="350"/>
      <point x="942" y="144"/>
      <point x="670" y="144" type="curve" smooth="yes"/>
      <point x="394" y="144"/>
      <point x="268" y="296"/>
      <point x="268" y="534" type="curve"/>
      <point x="1198" y="534" type="line"/>
      <point x="1198" y="702" type="line"/>
      <point x="72" y="702" type="line"/>
      <point x="62" y="652"/>
      <point x="60" y="604"/>
      <point x="60" y="564" type="curve" smooth="yes"/>
      <point x="60" y="186"/>
      <point x="314" y="-28"/>
      <point x="664" y="-28" type="curve" smooth="yes"/>
      <point x="1078" y="-28"/>
      <point x="1318" y="294"/>
      <point x="1318" y="680" type="curve" smooth="yes"/>
      <point x="1318" y="1142"/>
      <point x="1056" y="1428"/>
      <point x="638" y="1428" type="curve" smooth="yes"/>
      <point x="442" y="1428"/>
      <point x="264" y="1378"/>
      <point x="122" y="1310" type="curve"/>
      <point x="158" y="1150" type="line"/>
      <point x="302" y="1212"/>
      <point x="454" y="1256"/>
      <point x="616" y="1256" type="curve" smooth="yes"/>
      <point x="936" y="1256"/>
      <point x="1110" y="1040"/>
    </contour>
  </outline>
</glyph>
<glyph name="florin" format="2">
  <advance width="682"/>
  <unicode hex="0192"/>
  <outline>
    <contour>
      <point x="24" y="840" type="line"/>
      <point x="662" y="840" type="line"/>
      <point x="678" y="980" type="line"/>
      <point x="40" y="980" type="line"/>
    </contour>
    <contour>
      <point x="260" y="120" type="curve" smooth="yes"/>
      <point x="406" y="1026" type="line" smooth="yes"/>
      <point x="432" y="1192"/>
      <point x="504" y="1256"/>
      <point x="632" y="1256" type="curve" smooth="yes"/>
      <point x="668" y="1256"/>
      <point x="706" y="1250"/>
      <point x="736" y="1240" type="curve"/>
      <point x="750" y="1406" type="line"/>
      <point x="710" y="1422"/>
      <point x="666" y="1428"/>
      <point x="610" y="1428" type="curve" smooth="yes"/>
      <point x="398" y="1428"/>
      <point x="258" y="1294"/>
      <point x="214" y="1020" type="curve" smooth="yes"/>
      <point x="68" y="114" type="line" smooth="yes"/>
      <point x="40" y="-54"/>
      <point x="-30" y="-116"/>
      <point x="-158" y="-116" type="curve" smooth="yes"/>
      <point x="-194" y="-116"/>
      <point x="-232" y="-110"/>
      <point x="-262" y="-100" type="curve"/>
      <point x="-276" y="-266" type="line"/>
      <point x="-236" y="-282"/>
      <point x="-192" y="-288"/>
      <point x="-136" y="-288" type="curve" smooth="yes"/>
      <point x="76" y="-288"/>
      <point x="216" y="-154"/>
    </contour>
  </outline>
</glyph>
<glyph name="jdotless" format="2">
  <advance width="424"/>
  <unicode hex="0237"/>
  <anchor x="212" y="980" name="top"/>
  <outline>
    <contour>
      <point x="-4" y="-484" type="line"/>
      <point x="56" y="-474" type="line" smooth="yes"/>
      <point x="158" y="-458"/>
      <point x="302" y="-402"/>
      <point x="302" y="-214" type="curve" smooth="yes"/>
      <point x="302" y="980" type="line"/>
      <point x="122" y="980" type="line"/>
      <point x="122" y="-146" type="line" smooth="yes"/>
      <point x="122" y="-304"/>
      <point x="94" y="-334"/>
      <point x="-24" y="-346" type="curve"/>
    </contour>
  </outline>
</glyph>
<glyph name="ringhalfright" format="2">
  <advance width="408"/>
  <unicode hex="02BE"/>
  <outline>
    <contour>
      <point x="100" y="1136" type="line"/>
      <point x="240" y="1136"/>
      <point x="308" y="1232"/>
      <point x="308" y="1336" type="curve" smooth="yes"/>
      <point x="308" y="1438"/>
      <point x="238" y="1536"/>
      <point x="100" y="1536" type="curve"/>
      <point x="100" y="1448" type="line"/>
      <point x="160" y="1448"/>
      <point x="212" y="1402"/>
      <point x="212" y="1336" type="curve" smooth="yes"/>
      <point x="212" y="1266"/>
      <point x="158" y="1224"/>
      <point x="100" y="1224" type="curve"/>
    </contour>
  </outline>
</glyph>
<glyph name="ringhalfleft" format="2">
  <advance width="408"/>
  <unicode hex="02BF"/>
  <outline>
    <contour>
      <point x="308" y="1136" type="curve"/>
      <point x="308" y="1224" type="line"/>
      <point x="250" y="1224"/>
      <point x="196" y="1266"/>
      <point x="196" y="1336" type="curve" smooth="yes"/>
      <point x="196" y="1402"/>
      <point x="248" y="1448"/>
      <point x="308" y="1448" type="curve"/>
      <point x="308" y="1536" type="line"/>
      <point x="172" y="1536"/>
      <point x="100" y="1438"/>
      <point x="100" y="1336" type="curve" smooth="yes"/>
      <point x="100" y="1232"/>
      <point x="170" y="1136"/>
    </contour>
  </outline>
</glyph>
<glyph name="verticallinemod" format="2">
  <advance width="352"/>
  <unicode hex="02C8"/>
  <outline>
    <contour>
      <point x="100" y="1536" type="line"/>
      <point x="100" y="1136" type="line"/>
      <point x="252" y="1136" type="line"/>
      <point x="252" y="1536" type="line"/>
    </contour>
  </outline>
</glyph>
<glyph name="verticallinelowmod" format="2">
  <advance width="352"/>
  <unicode hex="02CC"/>
  <outline>
    <contour>
      <point x="100" y="238" type="line"/>
      <point x="100" y="-162" type="line"/>
      <point x="252" y="-162" type="line"/>
      <point x="252" y="238" type="line"/>
    </contour>
  </outline>
</glyph>
<glyph name="acutecomb" format="2">
  <unicode hex="0301"/>
  <anchor x="0" y="980" name="_top"/>
  <anchor x="0" y="1464" name="top"/>
  <outline>
    <contour>
      <point x="-186" y="1152" type="line"/>
      <point x="188" y="1298" type="line"/>
      <point x="188" y="1494" type="line"/>
      <point x="-186" y="1274" type="line"/>
    </contour>
  </outline>
</glyph>
<glyph name="circumflexcomb" format="2">
  <unicode hex="0302"/>
  <anchor x="0" y="980" name="_top"/>
  <anchor x="0" y="1464" name="top"/>
  <outline>
    <contour>
      <point x="-254" y="1128" type="line"/>
      <point x="0" y="1288" type="line"/>
      <point x="254" y="1128" type="line"/>
      <point x="254" y="1250" type="line"/>
      <point x="0" y="1470" type="line"/>
      <point x="-254" y="1250" type="line"/>
    </contour>
  </outline>
</glyph>
<glyph name="tildecomb" format="2">
  <unicode hex="0303"/>
  <anchor x="0" y="980" name="_top"/>
  <anchor x="0" y="1404" name="top"/>
  <outline>
    <contour>
      <point x="160" y="1160" type="curve" smooth="yes"/>
      <point x="268" y="1160"/>
      <point x="326" y="1238"/>
      <point x="332" y="1382" type="curve"/>
      <point x="182" y="1382" type="line"/>
      <point x="182" y="1334"/>
      <point x="156" y="1304"/>
      <point x="114" y="1304" type="curve" smooth="yes"/>
      <point x="30" y="1304"/>
      <point x="-60" y="1398"/>
      <point x="-160" y="1398" type="curve" smooth="yes"/>
      <point x="-268" y="1398"/>
      <point x="-326" y="1320"/>
      <point x="-332" y="1176" type="curve"/>
      <point x="-182" y="1176" type="line"/>
      <point x="-182" y="1224"/>
      <point x="-156" y="1254"/>
      <point x="-114" y="1254" type="curve" smooth="yes"/>
      <point x="-30" y="1254"/>
      <point x="60" y="1160"/>
    </contour>
  </outline>
</glyph>
<glyph name="brevecomb" format="2">
  <unicode hex="0306"/>
  <anchor x="0" y="980" name="_top"/>
  <anchor x="0" y="1528" name="top"/>
  <outline>
    <contour>
      <point x="0" y="1152" type="curve" smooth="yes"/>
      <point x="200" y="1152"/>
      <point x="292" y="1274"/>
      <point x="292" y="1406" type="curve"/>
      <point x="132" y="1406" type="line"/>
      <point x="132" y="1324"/>
      <point x="72" y="1284"/>
      <point x="0" y="1284" type="curve" smooth="yes"/>
      <point x="-72" y="1284"/>
      <point x="-132" y="1324"/>
      <point x="-132" y="1406" type="curve"/>
      <point x="-292" y="1406" type="line"/>
      <point x="-292" y="1274"/>
      <point x="-200" y="1152"/>
    </contour>
  </outline>
</glyph>
<glyph name="dieresiscomb" format="2">
  <unicode hex="0308"/>
  <anchor x="0" y="980" name="_top"/>
  <anchor x="0" y="1400" name="top"/>
  <outline>
    <contour>
      <point x="106" y="1182" type="line"/>
      <point x="278" y="1182" type="line"/>
      <point x="278" y="1342" type="line"/>
      <point x="106" y="1342" type="line"/>
    </contour>
    <contour>
      <point x="-278" y="1182" type="line"/>
      <point x="-106" y="1182" type="line"/>
      <point x="-106" y="1342" type="line"/>
      <point x="-278" y="1342" type="line"/>
    </contour>
  </outline>
</glyph>
<glyph name="hookabovecomb" format="2">
  <unicode hex="0309"/>
  <anchor x="0" y="980" name="_top"/>
  <anchor x="0" y="1420" name="top"/>
  <outline>
    <contour>
      <point x="30" y="1050" type="line"/>
      <point x="122" y="1120"/>
      <point x="166" y="1172"/>
      <point x="166" y="1256" type="curve" smooth="yes"/>
      <point x="166" y="1364"/>
      <point x="78" y="1424"/>
      <point x="-32" y="1424" type="curve" smooth="yes"/>
      <point x="-94" y="1424"/>
      <point x="-148" y="1410"/>
      <point x="-192" y="1386" type="curve"/>
      <point x="-158" y="1284" type="line"/>
      <point x="-116" y="1306"/>
      <point x="-74" y="1322"/>
      <point x="-32" y="1322" type="curve" smooth="yes"/>
      <point x="18" y="1322"/>
      <point x="50" y="1298"/>
      <point x="50" y="1250" type="curve" smooth="yes"/>
      <point x="50" y="1202"/>
      <point x="24" y="1178"/>
      <point x="-38" y="1116" type="curve"/>
    </contour>
  </outline>
</glyph>
<glyph name="ringcomb" format="2">
  <unicode hex="030A"/>
  <anchor x="0" y="980" name="_top"/>
  <anchor x="0" y="1486" name="top"/>
  <outline>
    <contour>
      <point x="0" y="1136" type="curve" smooth="yes"/>
      <point x="140" y="1136"/>
      <point x="208" y="1232"/>
      <point x="208" y="1336" type="curve" smooth="yes"/>
      <point x="208" y="1438"/>
      <point x="138" y="1536"/>
      <point x="0" y="1536" type="curve" smooth="yes"/>
      <point x="-136" y="1536"/>
      <point x="-208" y="1438"/>
      <point x="-208" y="1336" type="curve" smooth="yes"/>
      <point x="-208" y="1232"/>
      <point x="-138" y="1136"/>
    </contour>
    <contour>
      <point x="0" y="1224" type="curve" smooth="yes"/>
      <point x="-58" y="1224"/>
      <point x="-112" y="1266"/>
      <point x="-112" y="1336" type="curve" smooth="yes"/>
      <point x="-112" y="1402"/>
      <point x="-60" y="1448"/>
      <point x="0" y="1448" type="curve" smooth="yes"/>
      <point x="60" y="1448"/>
      <point x="112" y="1402"/>
      <point x="112" y="1336" type="curve" smooth="yes"/>
      <point x="112" y="1266"/>
      <point x="58" y="1224"/>
    </contour>
  </outline>
</glyph>
<glyph name="hungarumlautcomb" format="2">
  <unicode hex="030B"/>
  <anchor x="-2" y="980" name="_top"/>
  <anchor x="-2" y="1510" name="top"/>
  <outline>
    <contour>
      <point x="70" y="1156" type="line"/>
      <point x="202" y="1156" type="line"/>
      <point x="432" y="1490" type="line"/>
      <point x="236" y="1490" type="line"/>
    </contour>
    <contour>
      <point x="-210" y="1156" type="line"/>
      <point x="-78" y="1156" type="line"/>
      <point x="142" y="1490" type="line"/>
      <point x="-54" y="1490" type="line"/>
    </contour>
  </outline>
</glyph>
<glyph name="caroncomb" format="2">
  <unicode hex="030C"/>
  <anchor x="0" y="980" name="_top"/>
  <anchor x="0" y="1414" name="top"/>
  <outline>
    <contour>
      <point x="0" y="1116" type="line"/>
      <point x="254" y="1336" type="line"/>
      <point x="254" y="1458" type="line"/>
      <point x="0" y="1298" type="line"/>
      <point x="-254" y="1458" type="line"/>
      <point x="-254" y="1336" type="line"/>
    </contour>
  </outline>
</glyph>
<glyph name="dblgravecomb" format="2">
  <unicode hex="030F"/>
  <anchor x="-2" y="980" name="_top"/>
  <anchor x="-2" y="1510" name="top"/>
  <outline>
    <contour>
      <point x="206" y="1156" type="line"/>
      <point x="74" y="1490" type="line"/>
      <point x="-122" y="1490" type="line"/>
      <point x="74" y="1156" type="line"/>
    </contour>
    <contour>
      <point x="-74" y="1156" type="line"/>
      <point x="-216" y="1490" type="line"/>
      <point x="-412" y="1490" type="line"/>
      <point x="-206" y="1156" type="line"/>
    </contour>
  </outline>
</glyph>
<glyph name="breveinvertedcomb" format="2">
  <unicode hex="0311"/>
  <anchor x="0" y="980" name="_top"/>
  <anchor x="0" y="1366" name="top"/>
  <outline>
    <contour>
      <point x="0" y="1406" type="curve" smooth="yes"/>
      <point x="-200" y="1406"/>
      <point x="-292" y="1284"/>
      <point x="-292" y="1152" type="curve"/>
      <point x="-132" y="1152" type="line"/>
      <point x="-132" y="1234"/>
      <point x="-72" y="1274"/>
      <point x="0" y="1274" type="curve" smooth="yes"/>
      <point x="72" y="1274"/>
      <point x="132" y="1234"/>
      <point x="132" y="1152" type="curve"/>
      <point x="292" y="1152" type="line"/>
      <point x="292" y="1284"/>
      <point x="200" y="1406"/>
    </contour>
  </outline>
</glyph>
<glyph name="horncomb" format="2">
  <unicode hex="031B"/>
  <anchor x="0" y="980" name="_topright"/>
  <outline>
    <contour>
      <point x="0" y="842" type="line"/>
      <point x="188" y="842"/>
      <point x="332" y="976"/>
      <point x="332" y="1128" type="curve"/>
      <point x="160" y="1128" type="line"/>
      <point x="160" y="1022"/>
      <point x="100" y="980"/>
      <point x="0" y="980" type="curve"/>
    </contour>
  </outline>
</glyph>
<glyph name="commaaccentcomb" format="2">
  <unicode hex="0326"/>
  <anchor x="0" y="0" name="_bottom"/>
  <anchor x="0" y="-618" name="bottom"/>
  <outline>
    <contour>
      <point x="6" y="-608" type="line"/>
      <point x="110" y="-374" type="line"/>
      <point x="110" y="-182" type="line"/>
      <point x="-106" y="-182" type="line"/>
      <point x="-106" y="-394" type="line"/>
      <point x="-36" y="-394" type="line"/>
      <point x="-108" y="-608" type="line"/>
    </contour>
  </outline>
</glyph>
<glyph name="cedillacomb" format="2">
  <unicode hex="0327"/>
  <anchor x="0" y="0" name="_bottom"/>
  <anchor x="0" y="-458" name="bottom"/>
  <outline>
    <contour>
      <point x="6" y="-158" type="line"/>
      <point x="56" y="0" type="line"/>
      <point x="-44" y="0" type="line"/>
      <point x="-96" y="-210" type="line"/>
      <point x="-62" y="-198"/>
      <point x="-34" y="-194"/>
      <point x="-4" y="-194" type="curve" smooth="yes"/>
      <point x="64" y="-194"/>
      <point x="96" y="-226"/>
      <point x="96" y="-274" type="curve" smooth="yes"/>
      <point x="96" y="-324"/>
      <point x="58" y="-350"/>
      <point x="0" y="-350" type="curve" smooth="yes"/>
      <point x="-46" y="-350"/>
      <point x="-86" y="-338"/>
      <point x="-126" y="-316" type="curve"/>
      <point x="-156" y="-414" type="line"/>
      <point x="-120" y="-434"/>
      <point x="-68" y="-452"/>
      <point x="0" y="-452" type="curve" smooth="yes"/>
      <point x="118" y="-452"/>
      <point x="212" y="-388"/>
      <point x="212" y="-270" type="curve" smooth="yes"/>
      <point x="212" y="-170"/>
      <point x="146" y="-108"/>
      <point x="38" y="-108" type="curve" smooth="yes"/>
      <point x="2" y="-108"/>
      <point x="-28" y="-116"/>
      <point x="-60" y="-128" type="curve"/>
    </contour>
  </outline>
</glyph>
<glyph name="ogonekcomb" format="2">
  <unicode hex="0328"/>
  <anchor x="0" y="0" name="_ogonek"/>
  <outline>
    <contour>
      <point x="-50" y="0" type="line"/>
      <point x="-130" y="-46"/>
      <point x="-216" y="-138"/>
      <point x="-216" y="-244" type="curve" smooth="yes"/>
      <point x="-216" y="-356"/>
      <point x="-126" y="-416"/>
      <point x="-14" y="-416" type="curve" smooth="yes"/>
      <point x="58" y="-416"/>
      <point x="114" y="-398"/>
      <point x="152" y="-378" type="curve"/>
      <point x="122" y="-280" type="line"/>
      <point x="82" y="-302"/>
      <point x="42" y="-314"/>
      <point x="-4" y="-314" type="curve" smooth="yes"/>
      <point x="-62" y="-314"/>
      <point x="-100" y="-280"/>
      <point x="-100" y="-212" type="curve" smooth="yes"/>
      <point x="-100" y="-138"/>
      <point x="-38" y="-72"/>
      <point x="56" y="0" type="curve"/>
    </contour>
  </outline>
</glyph>
<glyph name="pi" format="2">
  <advance width="1304"/>
  <unicode hex="03C0"/>
  <outline>
    <contour>
      <point x="1138" y="136" type="curve" smooth="yes"/>
      <point x="1064" y="136"/>
      <point x="1024" y="184"/>
      <point x="1024" y="280" type="curve" smooth="yes"/>
      <point x="1024" y="840" type="line"/>
      <point x="1256" y="840" type="line"/>
      <point x="1256" y="980" type="line"/>
      <point x="40" y="980" type="line"/>
      <point x="40" y="840" type="line"/>
      <point x="276" y="840" type="line"/>
      <point x="276" y="0" type="line"/>
      <point x="456" y="0" type="line"/>
      <point x="456" y="840" type="line"/>
      <point x="846" y="840" type="line"/>
      <point x="846" y="252" type="line" smooth="yes"/>
      <point x="846" y="74"/>
      <point x="918" y="-20"/>
      <point x="1072" y="-20" type="curve" smooth="yes"/>
      <point x="1144" y="-20"/>
      <point x="1210" y="-2"/>
      <point x="1248" y="18" type="curve"/>
      <point x="1248" y="158" type="line"/>
      <point x="1220" y="146"/>
      <point x="1180" y="136"/>
    </contour>
  </outline>
</glyph>
<glyph name="Germandbls" format="2">
  <advance width="1230"/>
  <unicode hex="1E9E"/>
  <outline>
    <contour>
      <point x="160" y="0" type="line"/>
      <point x="350" y="0" type="line"/>
      <point x="350" y="986" type="line" smooth="yes"/>
      <point x="350" y="1162"/>
      <point x="476" y="1268"/>
      <point x="670" y="1268" type="curve" smooth="yes"/>
      <point x="798" y="1268"/>
      <point x="894" y="1238"/>
      <point x="958" y="1206" type="curve"/>
      <point x="974" y="1290" type="line"/>
      <point x="590" y="822" type="line"/>
      <point x="590" y="670" type="line"/>
      <point x="638" y="670" type="line" smooth="yes"/>
      <point x="846" y="670"/>
      <point x="952" y="570"/>
      <point x="952" y="394" type="curve" smooth="yes"/>
      <point x="952" y="238"/>
      <point x="854" y="144"/>
      <point x="700" y="144" type="curve" smooth="yes"/>
      <point x="634" y="144"/>
      <point x="574" y="150"/>
      <point x="514" y="164" type="curve"/>
      <point x="514" y="0" type="line"/>
      <point x="580" y="-18"/>
      <point x="642" y="-28"/>
      <point x="714" y="-28" type="curve" smooth="yes"/>
      <point x="940" y="-28"/>
      <point x="1152" y="108"/>
      <point x="1152" y="396" type="curve" smooth="yes"/>
      <point x="1152" y="698"/>
      <point x="930" y="814"/>
      <point x="682" y="814" type="curve"/>
      <point x="726" y="730" type="line"/>
      <point x="1082" y="1158" type="line"/>
      <point x="1082" y="1310" type="line"/>
      <point x="984" y="1378"/>
      <point x="842" y="1428"/>
      <point x="670" y="1428" type="curve" smooth="yes"/>
      <point x="368" y="1428"/>
      <point x="160" y="1282"/>
      <point x="160" y="982" type="curve" smooth="yes"/>
    </contour>
  </outline>
</glyph>
<glyph name="figuredash" format="2">
  <advance width="1396"/>
  <unicode hex="2012"/>
  <outline>
    <contour>
      <point x="0" y="536" type="line"/>
      <point x="1396" y="536" type="line"/>
      <point x="1396" y="708" type="line"/>
      <point x="0" y="708" type="line"/>
    </contour>
  </outline>
</glyph>
<glyph name="endash" format="2">
  <advance width="1088"/>
  <unicode hex="2013"/>
  <outline>
    <contour>
      <point x="0" y="536" type="line"/>
      <point x="1088" y="536" type="line"/>
      <point x="1088" y="708" type="line"/>
      <point x="0" y="708" type="line"/>
    </contour>
  </outline>
</glyph>
<glyph name="dagger" format="2">
  <advance width="848"/>
  <unicode hex="2020"/>
  <outline>
    <contour>
      <point x="366" y="0" type="line"/>
      <point x="482" y="0" type="line"/>
      <point x="544" y="504" type="line"/>
      <point x="462" y="806" type="line"/>
      <point x="778" y="746" type="line"/>
      <point x="778" y="916" type="line"/>
      <point x="466" y="854" type="line"/>
      <point x="534" y="1214" type="line"/>
      <point x="314" y="1214" type="line"/>
      <point x="382" y="854" type="line"/>
      <point x="70" y="916" type="line"/>
      <point x="70" y="746" type="line"/>
      <point x="386" y="806" type="line"/>
      <point x="304" y="504" type="line"/>
    </contour>
  </outline>
</glyph>
<glyph name="daggerdbl" format="2">
  <advance width="920"/>
  <unicode hex="2021"/>
  <outline>
    <contour>
      <point x="350" y="-118" type="line"/>
      <point x="570" y="-118" type="line"/>
      <point x="502" y="236" type="line"/>
      <point x="814" y="176" type="line"/>
      <point x="814" y="344" type="line"/>
      <point x="494" y="284" type="line"/>
      <point x="580" y="548" type="line"/>
      <point x="494" y="814" type="line"/>
      <point x="814" y="754" type="line"/>
      <point x="814" y="922" type="line"/>
      <point x="502" y="862" type="line"/>
      <point x="570" y="1214" type="line"/>
      <point x="350" y="1214" type="line"/>
      <point x="418" y="862" type="line"/>
      <point x="106" y="922" type="line"/>
      <point x="106" y="754" type="line"/>
      <point x="426" y="814" type="line"/>
      <point x="340" y="548" type="line"/>
      <point x="426" y="284" type="line"/>
      <point x="106" y="344" type="line"/>
      <point x="106" y="176" type="line"/>
      <point x="418" y="236" type="line"/>
    </contour>
  </outline>
</glyph>
<glyph name="bullet" format="2">
  <advance width="612"/>
  <unicode hex="2022"/>
  <outline>
    <contour>
      <point x="306" y="338" type="curve" smooth="yes"/>
      <point x="426" y="338"/>
      <point x="524" y="436"/>
      <point x="524" y="556" type="curve" smooth="yes"/>
      <point x="524" y="676"/>
      <point x="426" y="774"/>
      <point x="306" y="774" type="curve" smooth="yes"/>
      <point x="186" y="774"/>
      <point x="88" y="676"/>
      <point x="88" y="556" type="curve" smooth="yes"/>
      <point x="88" y="436"/>
      <point x="186" y="338"/>
    </contour>
  </outline>
</glyph>
<glyph name="minute" format="2">
  <advance width="384"/>
  <unicode hex="2032"/>
  <outline>
    <contour>
      <point x="76" y="1026" type="line"/>
      <point x="208" y="1026" type="line"/>
      <point x="264" y="1400" type="line"/>
      <point x="76" y="1400" type="line"/>
    </contour>
  </outline>
</glyph>
<glyph name="guilsinglleft" format="2">
  <advance width="644"/>
  <unicode hex="2039"/>
  <outline>
    <contour>
      <point x="346" y="156" type="line"/>
      <point x="564" y="156" type="line"/>
      <point x="246" y="568" type="line"/>
      <point x="564" y="980" type="line"/>
      <point x="346" y="980" type="line"/>
      <point x="28" y="568" type="line"/>
    </contour>
  </outline>
</glyph>
<glyph name="guilsinglright" format="2">
  <advance width="646"/>
  <unicode hex="203A"/>
  <outline>
    <contour>
      <point x="82" y="156" type="line"/>
      <point x="300" y="156" type="line"/>
      <point x="618" y="568" type="line"/>
      <point x="300" y="980" type="line"/>
      <point x="82" y="980" type="line"/>
      <point x="400" y="568" type="line"/>
    </contour>
  </outline>
</glyph>
<glyph name="fraction" format="2">
  <advance width="174"/>
  <unicode hex="2044"/>
  <outline>
    <contour>
      <point x="-430" y="0" type="line"/>
      <point x="-260" y="0" type="line"/>
      <point x="544" y="1400" type="line"/>
      <point x="376" y="1400" type="line"/>
    </contour>
  </outline>
</glyph>
<glyph name="franc" format="2">
  <advance width="1086"/>
  <unicode hex="20A3"/>
  <outline>
    <contour>
      <point x="200" y="0" type="line"/>
      <point x="390" y="0" type="line"/>
      <point x="390" y="646" type="line"/>
      <point x="902" y="646" type="line"/>
      <point x="902" y="818" type="line"/>
      <point x="390" y="818" type="line"/>
      <point x="390" y="1228" type="line"/>
      <point x="1054" y="1228" type="line"/>
      <point x="1054" y="1400" type="line"/>
      <point x="200" y="1400" type="line"/>
    </contour>
    <contour>
      <point x="40" y="276" type="line"/>
      <point x="798" y="276" type="line"/>
      <point x="798" y="424" type="line"/>
      <point x="40" y="424" type="line"/>
    </contour>
  </outline>
</glyph>
<glyph name="lira" format="2">
  <advance width="1040"/>
  <unicode hex="20A4"/>
  <outline>
    <contour>
      <point x="310" y="98" type="line"/>
      <point x="400" y="268"/>
      <point x="436" y="392"/>
      <point x="464" y="652" type="curve" smooth="yes"/>
      <point x="502" y="1016" type="line" smooth="yes"/>
      <point x="518" y="1162"/>
      <point x="588" y="1256"/>
      <point x="722" y="1256" type="curve" smooth="yes"/>
      <point x="806" y="1256"/>
      <point x="872" y="1220"/>
      <point x="948" y="1156" type="curve"/>
      <point x="968" y="1358" type="line"/>
      <point x="886" y="1404"/>
      <point x="804" y="1428"/>
      <point x="708" y="1428" type="curve" smooth="yes"/>
      <point x="458" y="1428"/>
      <point x="338" y="1264"/>
      <point x="312" y="1000" type="curve" smooth="yes"/>
      <point x="274" y="636" type="line" smooth="yes"/>
      <point x="246" y="376"/>
      <point x="196" y="220"/>
      <point x="100" y="0" type="curve"/>
      <point x="978" y="0" type="line"/>
      <point x="978" y="180" type="line"/>
      <point x="266" y="180" type="line"/>
    </contour>
    <contour>
      <point x="120" y="772" type="line"/>
      <point x="852" y="772" type="line"/>
      <point x="852" y="920" type="line"/>
      <point x="120" y="920" type="line"/>
    </contour>
    <contour>
      <point x="120" y="472" type="line"/>
      <point x="852" y="472" type="line"/>
      <point x="852" y="620" type="line"/>
      <point x="120" y="620" type="line"/>
    </contour>
  </outline>
</glyph>
<glyph name="naira" format="2">
  <advance width="1546"/>
  <unicode hex="20A6"/>
  <outline>
    <contour>
      <point x="226" y="0" type="line"/>
      <point x="416" y="0" type="line"/>
      <point x="416" y="1106" type="line"/>
      <point x="1152" y="0" type="line"/>
      <point x="1314" y="0" type="line"/>
      <point x="1314" y="1400" type="line"/>
      <point x="1122" y="1400" type="line"/>
      <point x="1122" y="352" type="line"/>
      <point x="432" y="1400" type="line"/>
      <point x="226" y="1400" type="line"/>
    </contour>
    <contour>
      <point x="80" y="672" type="line"/>
      <point x="1466" y="672" type="line"/>
      <point x="1466" y="820" type="line"/>
      <point x="80" y="820" type="line"/>
    </contour>
  </outline>
</glyph>
<glyph name="peseta" format="2">
  <advance width="2538"/>
  <unicode hex="20A7"/>
  <outline>
    <contour>
      <point x="160" y="0" type="line"/>
      <point x="360" y="0" type="line"/>
      <point x="360" y="490" type="line"/>
      <point x="592" y="490" type="line" smooth="yes"/>
      <point x="868" y="490"/>
      <point x="1056" y="624"/>
      <point x="1056" y="946" type="curve" smooth="yes"/>
      <point x="1056" y="1274"/>
      <point x="868" y="1400"/>
      <point x="592" y="1400" type="curve" smooth="yes"/>
      <point x="160" y="1400" type="line"/>
    </contour>
    <contour>
      <point x="360" y="660" type="line"/>
      <point x="360" y="1230" type="line"/>
      <point x="564" y="1230" type="line" smooth="yes"/>
      <point x="770" y="1230"/>
      <point x="858" y="1138"/>
      <point x="858" y="944" type="curve" smooth="yes"/>
      <point x="858" y="750"/>
      <point x="760" y="660"/>
      <point x="564" y="660" type="curve" smooth="yes"/>
    </contour>
    <contour>
      <point x="1544" y="-20" type="curve" smooth="yes"/>
      <point x="1706" y="-20" type="line"/>
      <point x="1720" y="124" type="line"/>
      <point x="1674" y="124" type="line" smooth="yes"/>
      <point x="1480" y="124"/>
      <point x="1468" y="136"/>
      <point x="1468" y="324" type="curve" smooth="yes"/>
      <point x="1468" y="840" type="line"/>
      <point x="1726" y="840" type="line"/>
      <point x="1726" y="980" type="line"/>
      <point x="1468" y="980" type="line"/>
      <point x="1468" y="1240" type="line"/>
      <point x="1288" y="1222" type="line"/>
      <point x="1288" y="980" type="line"/>
      <point x="1136" y="980" type="line"/>
      <point x="1120" y="840" type="line"/>
      <point x="1288" y="840" type="line"/>
      <point x="1288" y="214" type="line" smooth="yes"/>
      <point x="1288" y="96"/>
      <point x="1358" y="-20"/>
    </contour>
    <contour>
      <point x="2110" y="-20" type="curve"/>
      <point x="2410" y="-20"/>
      <point x="2484" y="142"/>
      <point x="2484" y="272" type="curve" smooth="yes"/>
      <point x="2484" y="444"/>
      <point x="2368" y="512"/>
      <point x="2204" y="564" type="curve" smooth="yes"/>
      <point x="2050" y="612"/>
      <point x="1976" y="634"/>
      <point x="1976" y="726" type="curve" smooth="yes"/>
      <point x="1976" y="818"/>
      <point x="2054" y="858"/>
      <point x="2166" y="858" type="curve" smooth="yes"/>
      <point x="2276" y="858"/>
      <point x="2348" y="820"/>
      <point x="2406" y="772" type="curve"/>
      <point x="2428" y="936" type="line"/>
      <point x="2368" y="966"/>
      <point x="2292" y="1000"/>
      <point x="2162" y="1000" type="curve" smooth="yes"/>
      <point x="1894" y="1000"/>
      <point x="1794" y="856"/>
      <point x="1794" y="706" type="curve" smooth="yes"/>
      <point x="1794" y="508"/>
      <point x="1968" y="460"/>
      <point x="2102" y="424" type="curve" smooth="yes"/>
      <point x="2182" y="402"/>
      <point x="2298" y="364"/>
      <point x="2298" y="262" type="curve" smooth="yes"/>
      <point x="2298" y="184"/>
      <point x="2228" y="140"/>
      <point x="2102" y="140" type="curve" smooth="yes"/>
      <point x="1952" y="140"/>
      <point x="1838" y="202"/>
      <point x="1796" y="240" type="curve"/>
      <point x="1774" y="66" type="line"/>
      <point x="1820" y="34"/>
      <point x="1936" y="-20"/>
    </contour>
  </outline>
</glyph>
<glyph name="won" format="2">
  <advance width="1910"/>
  <unicode hex="20A9"/>
  <outline>
    <contour>
      <point x="400" y="0" type="line"/>
      <point x="600" y="0" type="line"/>
      <point x="994" y="1230" type="line"/>
      <point x="914" y="1230" type="line"/>
      <point x="1292" y="0" type="line"/>
      <point x="1492" y="0" type="line"/>
      <point x="1802" y="1400" type="line"/>
      <point x="1588" y="1400" type="line"/>
      <point x="1356" y="132" type="line"/>
      <point x="1428" y="132" type="line"/>
      <point x="1040" y="1372" type="line"/>
      <point x="868" y="1372" type="line"/>
      <point x="472" y="132" type="line"/>
      <point x="556" y="132" type="line"/>
      <point x="322" y="1400" type="line"/>
      <point x="108" y="1400" type="line"/>
    </contour>
    <contour>
      <point x="48" y="664" type="line"/>
      <point x="1862" y="664" type="line"/>
      <point x="1862" y="812" type="line"/>
      <point x="48" y="812" type="line"/>
    </contour>
  </outline>
</glyph>
<glyph name="dong" format="2">
  <advance width="1110"/>
  <unicode hex="20AB"/>
  <outline>
    <contour>
      <point x="522" y="-20" type="curve" smooth="yes"/>
      <point x="656" y="-20"/>
      <point x="786" y="40"/>
      <point x="842" y="156" type="curve"/>
      <point x="796" y="208" type="line"/>
      <point x="830" y="0" type="line"/>
      <point x="990" y="0" type="line"/>
      <point x="990" y="1500" type="line"/>
      <point x="810" y="1500" type="line"/>
      <point x="810" y="790" type="line"/>
      <point x="848" y="836" type="line"/>
      <point x="770" y="938"/>
      <point x="656" y="1000"/>
      <point x="510" y="1000" type="curve" smooth="yes"/>
      <point x="236" y="1000"/>
      <point x="64" y="758"/>
      <point x="64" y="488" type="curve" smooth="yes"/>
      <point x="64" y="194"/>
      <point x="248" y="-20"/>
    </contour>
    <contour>
      <point x="158" y="-262" type="line"/>
      <point x="990" y="-262" type="line"/>
      <point x="990" y="-116" type="line"/>
      <point x="158" y="-116" type="line"/>
    </contour>
    <contour>
      <point x="542" y="140" type="curve" smooth="yes"/>
      <point x="358" y="140"/>
      <point x="248" y="298"/>
      <point x="248" y="488" type="curve" smooth="yes"/>
      <point x="248" y="690"/>
      <point x="358" y="840"/>
      <point x="542" y="840" type="curve" smooth="yes"/>
      <point x="678" y="840"/>
      <point x="830" y="720"/>
      <point x="830" y="488" type="curve" smooth="yes"/>
      <point x="830" y="238"/>
      <point x="678" y="140"/>
    </contour>
    <contour>
      <point x="494" y="1190" type="line"/>
      <point x="1086" y="1190" type="line"/>
      <point x="1086" y="1316" type="line"/>
      <point x="494" y="1316" type="line"/>
    </contour>
  </outline>
</glyph>
<glyph name="euro" format="2">
  <advance width="1308"/>
  <unicode hex="20AC"/>
  <outline>
    <contour>
      <point x="860" y="-28" type="curve" smooth="yes"/>
      <point x="1018" y="-28"/>
      <point x="1142" y="6"/>
      <point x="1242" y="52" type="curve"/>
      <point x="1222" y="228" type="line"/>
      <point x="1116" y="176"/>
      <point x="1000" y="144"/>
      <point x="862" y="144" type="curve" smooth="yes"/>
      <point x="534" y="144"/>
      <point x="362" y="390"/>
      <point x="362" y="700" type="curve" smooth="yes"/>
      <point x="362" y="1010"/>
      <point x="536" y="1256"/>
      <point x="866" y="1256" type="curve" smooth="yes"/>
      <point x="1000" y="1256"/>
      <point x="1122" y="1218"/>
      <point x="1222" y="1170" type="curve"/>
      <point x="1242" y="1346" type="line"/>
      <point x="1144" y="1394"/>
      <point x="1010" y="1428"/>
      <point x="868" y="1428" type="curve" smooth="yes"/>
      <point x="456" y="1428"/>
      <point x="154" y="1144"/>
      <point x="154" y="700" type="curve" smooth="yes"/>
      <point x="154" y="256"/>
      <point x="452" y="-28"/>
    </contour>
    <contour>
      <point x="-20" y="460" type="line"/>
      <point x="998" y="460" type="line"/>
      <point x="998" y="608" type="line"/>
      <point x="-20" y="608" type="line"/>
    </contour>
    <contour>
      <point x="-20" y="804" type="line"/>
      <point x="998" y="804" type="line"/>
      <point x="998" y="952" type="line"/>
      <point x="-20" y="952" type="line"/>
    </contour>
  </outline>
</glyph>
<glyph name="kip" format="2">
  <advance width="1194"/>
  <unicode hex="20AD"/>
  <outline>
    <contour>
      <point x="928" y="0" type="line"/>
      <point x="1164" y="0" type="line"/>
      <point x="626" y="746" type="line"/>
      <point x="1158" y="1400" type="line"/>
      <point x="928" y="1400" type="line"/>
      <point x="410" y="742" type="line"/>
    </contour>
    <contour>
      <point x="200" y="0" type="line"/>
      <point x="390" y="0" type="line"/>
      <point x="390" y="1400" type="line"/>
      <point x="200" y="1400" type="line"/>
    </contour>
    <contour>
      <point x="40" y="668" type="line"/>
      <point x="1078" y="668" type="line"/>
      <point x="1078" y="812" type="line"/>
      <point x="40" y="812" type="line"/>
    </contour>
  </outline>
</glyph>
<glyph name="peso" format="2">
  <advance width="1316"/>
  <unicode hex="20B1"/>
  <outline>
    <contour>
      <point x="200" y="0" type="line"/>
      <point x="400" y="0" type="line"/>
      <point x="400" y="390" type="line"/>
      <point x="662" y="390" type="line" smooth="yes"/>
      <point x="944" y="390"/>
      <point x="1136" y="540"/>
      <point x="1136" y="898" type="curve" smooth="yes"/>
      <point x="1136" y="1260"/>
      <point x="944" y="1400"/>
      <point x="662" y="1400" type="curve" smooth="yes"/>
      <point x="200" y="1400" type="line"/>
    </contour>
    <contour>
      <point x="400" y="560" type="line"/>
      <point x="400" y="1230" type="line"/>
      <point x="634" y="1230" type="line" smooth="yes"/>
      <point x="852" y="1230"/>
      <point x="948" y="1122"/>
      <point x="948" y="896" type="curve" smooth="yes"/>
      <point x="948" y="666"/>
      <point x="842" y="560"/>
      <point x="634" y="560" type="curve" smooth="yes"/>
    </contour>
    <contour>
      <point x="40" y="960" type="line"/>
      <point x="1276" y="960" type="line"/>
      <point x="1276" y="1104" type="line"/>
      <point x="40" y="1104" type="line"/>
    </contour>
    <contour>
      <point x="40" y="686" type="line"/>
      <point x="1276" y="686" type="line"/>
      <point x="1276" y="830" type="line"/>
      <point x="40" y="830" type="line"/>
    </contour>
  </outline>
</glyph>
<glyph name="guarani" format="2">
  <advance width="1344"/>
  <unicode hex="20B2"/>
  <outline>
    <contour>
      <point x="764" y="-28" type="curve" smooth="yes"/>
      <point x="966" y="-28"/>
      <point x="1132" y="18"/>
      <point x="1242" y="78" type="curve"/>
      <point x="1242" y="702" type="line"/>
      <point x="832" y="702" type="line"/>
      <point x="832" y="530" type="line"/>
      <point x="1052" y="530" type="line"/>
      <point x="1052" y="182" type="line"/>
      <point x="978" y="152"/>
      <point x="878" y="144"/>
      <point x="818" y="144" type="curve" smooth="yes"/>
      <point x="454" y="144"/>
      <point x="286" y="380"/>
      <point x="286" y="700" type="curve" smooth="yes"/>
      <point x="286" y="1010"/>
      <point x="450" y="1256"/>
      <point x="808" y="1256" type="curve" smooth="yes"/>
      <point x="946" y="1256"/>
      <point x="1068" y="1224"/>
      <point x="1178" y="1182" type="curve"/>
      <point x="1196" y="1348" type="line"/>
      <point x="1094" y="1392"/>
      <point x="952" y="1428"/>
      <point x="802" y="1428" type="curve" smooth="yes"/>
      <point x="382" y="1428"/>
      <point x="78" y="1144"/>
      <point x="78" y="702" type="curve" smooth="yes"/>
      <point x="78" y="256"/>
      <point x="376" y="-28"/>
    </contour>
    <contour>
      <point x="724" y="-288" type="line"/>
      <point x="880" y="-288" type="line"/>
      <point x="860" y="68" type="line"/>
      <point x="744" y="68" type="line"/>
    </contour>
    <contour>
      <point x="744" y="1346" type="line"/>
      <point x="860" y="1346" type="line"/>
      <point x="880" y="1688" type="line"/>
      <point x="724" y="1688" type="line"/>
    </contour>
  </outline>
</glyph>
<glyph name="cedi" format="2">
  <advance width="1232"/>
  <unicode hex="20B5"/>
  <outline>
    <contour>
      <point x="784" y="-28" type="curve" smooth="yes"/>
      <point x="942" y="-28"/>
      <point x="1066" y="6"/>
      <point x="1166" y="52" type="curve"/>
      <point x="1146" y="228" type="line"/>
      <point x="1040" y="176"/>
      <point x="924" y="144"/>
      <point x="786" y="144" type="curve" smooth="yes"/>
      <point x="458" y="144"/>
      <point x="286" y="390"/>
      <point x="286" y="700" type="curve" smooth="yes"/>
      <point x="286" y="1010"/>
      <point x="460" y="1256"/>
      <point x="790" y="1256" type="curve" smooth="yes"/>
      <point x="924" y="1256"/>
      <point x="1046" y="1218"/>
      <point x="1146" y="1170" type="curve"/>
      <point x="1166" y="1346" type="line"/>
      <point x="1068" y="1394"/>
      <point x="934" y="1428"/>
      <point x="792" y="1428" type="curve" smooth="yes"/>
      <point x="380" y="1428"/>
      <point x="78" y="1144"/>
      <point x="78" y="700" type="curve" smooth="yes"/>
      <point x="78" y="256"/>
      <point x="376" y="-28"/>
    </contour>
    <contour>
      <point x="696" y="-288" type="line"/>
      <point x="852" y="-288" type="line"/>
      <point x="832" y="68" type="line"/>
      <point x="716" y="68" type="line"/>
    </contour>
    <contour>
      <point x="716" y="1346" type="line"/>
      <point x="832" y="1346" type="line"/>
      <point x="852" y="1688" type="line"/>
      <point x="696" y="1688" type="line"/>
    </contour>
  </outline>
</glyph>
<glyph name="rupeeIndian" format="2">
  <advance width="1056"/>
  <unicode hex="20B9"/>
  <outline>
    <contour>
      <point x="80" y="486" type="line"/>
      <point x="354" y="486" type="line" smooth="yes"/>
      <point x="646" y="486"/>
      <point x="838" y="642"/>
      <point x="838" y="940" type="curve" smooth="yes"/>
      <point x="838" y="1094"/>
      <point x="782" y="1208"/>
      <point x="686" y="1284" type="curve"/>
      <point x="666" y="1246" type="line"/>
      <point x="998" y="1246" type="line"/>
      <point x="998" y="1400" type="line"/>
      <point x="80" y="1400" type="line"/>
      <point x="80" y="1246" type="line"/>
      <point x="326" y="1246" type="line" smooth="yes"/>
      <point x="526" y="1246"/>
      <point x="640" y="1142"/>
      <point x="640" y="940" type="curve" smooth="yes"/>
      <point x="640" y="736"/>
      <point x="526" y="640"/>
      <point x="326" y="640" type="curve" smooth="yes"/>
      <point x="80" y="640" type="line"/>
    </contour>
    <contour>
      <point x="790" y="0" type="line"/>
      <point x="1008" y="0" type="line"/>
      <point x="606" y="568" type="line"/>
      <point x="392" y="568" type="line"/>
    </contour>
    <contour>
      <point x="80" y="866" type="line"/>
      <point x="998" y="866" type="line"/>
      <point x="998" y="1020" type="line"/>
      <point x="80" y="1020" type="line"/>
    </contour>
  </outline>
</glyph>
<glyph name="liraTurkish" format="2">
  <advance width="1124"/>
  <unicode hex="20BA"/>
  <outline>
    <contour>
      <point x="390" y="1400" type="line"/>
      <point x="200" y="1400" type="line"/>
      <point x="200" y="0" type="line"/>
      <point x="438" y="0" type="line" smooth="yes"/>
      <point x="806" y="0"/>
      <point x="1044" y="198"/>
      <point x="1044" y="634" type="curve" smooth="yes"/>
      <point x="1044" y="690" type="line"/>
      <point x="854" y="690" type="line"/>
      <point x="854" y="634" type="line" smooth="yes"/>
      <point x="854" y="324"/>
      <point x="716" y="172"/>
      <point x="452" y="172" type="curve" smooth="yes"/>
      <point x="390" y="172" type="line"/>
    </contour>
    <contour>
      <point x="40" y="592" type="line"/>
      <point x="952" y="872" type="line"/>
      <point x="952" y="1030" type="line"/>
      <point x="40" y="750" type="line"/>
    </contour>
    <contour>
      <point x="40" y="892" type="line"/>
      <point x="952" y="1172" type="line"/>
      <point x="952" y="1330" type="line"/>
      <point x="40" y="1050" type="line"/>
    </contour>
  </outline>
</glyph>
<glyph name="manat" format="2">
  <advance width="1388"/>
  <unicode hex="20BC"/>
  <outline>
    <contour>
      <point x="720" y="1168" type="curve" smooth="yes"/>
      <point x="326" y="1168"/>
      <point x="140" y="938"/>
      <point x="140" y="566" type="curve" smooth="yes"/>
      <point x="140" y="0" type="line"/>
      <point x="330" y="0" type="line"/>
      <point x="330" y="514" type="line" smooth="yes"/>
      <point x="330" y="760"/>
      <point x="388" y="996"/>
      <point x="720" y="996" type="curve" smooth="yes"/>
      <point x="1052" y="996"/>
      <point x="1110" y="758"/>
      <point x="1110" y="514" type="curve" smooth="yes"/>
      <point x="1110" y="0" type="line"/>
      <point x="1300" y="0" type="line"/>
      <point x="1300" y="566" type="line" smooth="yes"/>
      <point x="1300" y="938"/>
      <point x="1114" y="1168"/>
    </contour>
    <contour>
      <point x="626" y="0" type="line"/>
      <point x="816" y="0" type="line"/>
      <point x="816" y="1400" type="line"/>
      <point x="626" y="1400" type="line"/>
    </contour>
  </outline>
</glyph>
<glyph name="literSign" format="2">
  <advance width="1084"/>
  <unicode hex="2113"/>
  <outline>
    <contour>
      <point x="590" y="-16" type="curve" smooth="yes"/>
      <point x="836" y="-16"/>
      <point x="914" y="122"/>
      <point x="924" y="336" type="curve"/>
      <point x="776" y="336" type="line"/>
      <point x="768" y="200"/>
      <point x="730" y="114"/>
      <point x="620" y="114" type="curve" smooth="yes"/>
      <point x="516" y="114"/>
      <point x="462" y="180"/>
      <point x="462" y="344" type="curve" smooth="yes"/>
      <point x="462" y="1140" type="line" smooth="yes"/>
      <point x="462" y="1276"/>
      <point x="516" y="1322"/>
      <point x="588" y="1322" type="curve" smooth="yes"/>
      <point x="672" y="1322"/>
      <point x="714" y="1258"/>
      <point x="714" y="1132" type="curve" smooth="yes"/>
      <point x="714" y="800"/>
      <point x="470" y="724"/>
      <point x="96" y="618" type="curve"/>
      <point x="96" y="490" type="line"/>
      <point x="544" y="596"/>
      <point x="880" y="760"/>
      <point x="880" y="1126" type="curve" smooth="yes"/>
      <point x="880" y="1334"/>
      <point x="780" y="1446"/>
      <point x="588" y="1446" type="curve" smooth="yes"/>
      <point x="384" y="1446"/>
      <point x="282" y="1328"/>
      <point x="282" y="1114" type="curve" smooth="yes"/>
      <point x="282" y="340" type="line" smooth="yes"/>
      <point x="282" y="124"/>
      <point x="382" y="-16"/>
    </contour>
  </outline>
</glyph>
<glyph name="numero" format="2">
  <advance width="2396"/>
  <unicode hex="2116"/>
  <outline>
    <contour>
      <point x="160" y="0" type="line"/>
      <point x="350" y="0" type="line"/>
      <point x="350" y="1106" type="line"/>
      <point x="1086" y="0" type="line"/>
      <point x="1248" y="0" type="line"/>
      <point x="1248" y="1400" type="line"/>
      <point x="1056" y="1400" type="line"/>
      <point x="1056" y="352" type="line"/>
      <point x="366" y="1400" type="line"/>
      <point x="160" y="1400" type="line"/>
    </contour>
    <contour>
      <point x="1568" y="158" type="line"/>
      <point x="2148" y="158" type="line"/>
      <point x="2148" y="318" type="line"/>
      <point x="1568" y="318" type="line"/>
    </contour>
    <contour>
      <point x="1858" y="468" type="curve" smooth="yes"/>
      <point x="2138" y="468"/>
      <point x="2304" y="680"/>
      <point x="2304" y="948" type="curve" smooth="yes"/>
      <point x="2304" y="1216"/>
      <point x="2138" y="1428"/>
      <point x="1858" y="1428" type="curve" smooth="yes"/>
      <point x="1576" y="1428"/>
      <point x="1412" y="1216"/>
      <point x="1412" y="948" type="curve" smooth="yes"/>
      <point x="1412" y="680"/>
      <point x="1576" y="468"/>
    </contour>
    <contour>
      <point x="1858" y="628" type="curve" smooth="yes"/>
      <point x="1690" y="628"/>
      <point x="1596" y="746"/>
      <point x="1596" y="948" type="curve" smooth="yes"/>
      <point x="1596" y="1150"/>
      <point x="1690" y="1268"/>
      <point x="1858" y="1268" type="curve" smooth="yes"/>
      <point x="2026" y="1268"/>
      <point x="2120" y="1150"/>
      <point x="2120" y="948" type="curve" smooth="yes"/>
      <point x="2120" y="746"/>
      <point x="2026" y="628"/>
    </contour>
  </outline>
</glyph>
<glyph name="trademark" format="2">
  <advance width="1454"/>
  <unicode hex="2122"/>
  <outline>
    <contour>
      <point x="612" y="674" type="line"/>
      <point x="716" y="674" type="line"/>
      <point x="792" y="1296" type="line"/>
      <point x="740" y="1286" type="line"/>
      <point x="966" y="886" type="line"/>
      <point x="978" y="886" type="line"/>
      <point x="1208" y="1284" type="line"/>
      <point x="1156" y="1294" type="line"/>
      <point x="1228" y="674" type="line"/>
      <point x="1336" y="674" type="line"/>
      <point x="1240" y="1400" type="line"/>
      <point x="1182" y="1400" type="line"/>
      <point x="974" y="1042" type="line"/>
      <point x="764" y="1400" type="line"/>
      <point x="706" y="1400" type="line"/>
    </contour>
    <contour>
      <point x="266" y="674" type="line"/>
      <point x="368" y="674" type="line"/>
      <point x="368" y="1300" type="line"/>
      <point x="568" y="1300" type="line"/>
      <point x="580" y="1400" type="line"/>
      <point x="62" y="1400" type="line"/>
      <point x="62" y="1300" type="line"/>
      <point x="266" y="1300" type="line"/>
    </contour>
  </outline>
</glyph>
<glyph name="Ohm" format="2">
  <advance width="1670"/>
  <unicode hex="2126"/>
  <outline>
    <contour>
      <point x="120" y="0" type="line"/>
      <point x="710" y="0" type="line"/>
      <point x="710" y="182" type="line"/>
      <point x="502" y="314"/>
      <point x="378" y="482"/>
      <point x="378" y="774" type="curve" smooth="yes"/>
      <point x="378" y="1070"/>
      <point x="554" y="1262"/>
      <point x="834" y="1262" type="curve" smooth="yes"/>
      <point x="1114" y="1262"/>
      <point x="1290" y="1080"/>
      <point x="1290" y="776" type="curve" smooth="yes"/>
      <point x="1290" y="482"/>
      <point x="1182" y="316"/>
      <point x="956" y="182" type="curve"/>
      <point x="956" y="0" type="line"/>
      <point x="1550" y="0" type="line"/>
      <point x="1550" y="172" type="line"/>
      <point x="1172" y="172" type="line"/>
      <point x="1378" y="296"/>
      <point x="1498" y="494"/>
      <point x="1498" y="782" type="curve" smooth="yes"/>
      <point x="1498" y="1162"/>
      <point x="1250" y="1428"/>
      <point x="834" y="1428" type="curve" smooth="yes"/>
      <point x="418" y="1428"/>
      <point x="170" y="1162"/>
      <point x="170" y="782" type="curve" smooth="yes"/>
      <point x="170" y="494"/>
      <point x="296" y="292"/>
      <point x="494" y="172" type="curve"/>
      <point x="120" y="172" type="line"/>
    </contour>
  </outline>
</glyph>
<glyph name="partialdiff" format="2">
  <advance width="1134"/>
  <unicode hex="2202"/>
  <outline>
    <contour>
      <point x="424" y="-20" type="curve" smooth="yes"/>
      <point x="864" y="-20"/>
      <point x="1034" y="508"/>
      <point x="1034" y="908" type="curve" smooth="yes"/>
      <point x="1034" y="1226"/>
      <point x="920" y="1448"/>
      <point x="596" y="1448" type="curve" smooth="yes"/>
      <point x="512" y="1448"/>
      <point x="416" y="1430"/>
      <point x="334" y="1394" type="curve"/>
      <point x="334" y="1226" type="line"/>
      <point x="410" y="1266"/>
      <point x="506" y="1288"/>
      <point x="582" y="1288" type="curve" smooth="yes"/>
      <point x="786" y="1288"/>
      <point x="850" y="1138"/>
      <point x="850" y="930" type="curve" smooth="yes"/>
      <point x="850" y="578"/>
      <point x="708" y="140"/>
      <point x="442" y="140" type="curve" smooth="yes"/>
      <point x="328" y="140"/>
      <point x="256" y="224"/>
      <point x="256" y="390" type="curve" smooth="yes"/>
      <point x="256" y="588"/>
      <point x="370" y="840"/>
      <point x="596" y="840" type="curve" smooth="yes"/>
      <point x="724" y="840"/>
      <point x="810" y="750"/>
      <point x="860" y="618" type="curve"/>
      <point x="872" y="844" type="line"/>
      <point x="812" y="928"/>
      <point x="720" y="1000"/>
      <point x="566" y="1000" type="curve" smooth="yes"/>
      <point x="238" y="1000"/>
      <point x="72" y="672"/>
      <point x="72" y="378" type="curve" smooth="yes"/>
      <point x="72" y="146"/>
      <point x="192" y="-20"/>
    </contour>
  </outline>
</glyph>
<glyph name="emptyset" format="2">
  <advance width="1044"/>
  <unicode hex="2205"/>
  <outline>
    <contour>
      <point x="522" y="124" type="curve" smooth="yes"/>
      <point x="764" y="124"/>
      <point x="962" y="320"/>
      <point x="962" y="564" type="curve" smooth="yes"/>
      <point x="962" y="806"/>
      <point x="764" y="1004"/>
      <point x="522" y="1004" type="curve" smooth="yes"/>
      <point x="278" y="1004"/>
      <point x="82" y="806"/>
      <point x="82" y="564" type="curve" smooth="yes"/>
      <point x="82" y="320"/>
      <point x="278" y="124"/>
    </contour>
    <contour>
      <point x="522" y="284" type="curve" smooth="yes"/>
      <point x="366" y="284"/>
      <point x="250" y="404"/>
      <point x="250" y="564" type="curve" smooth="yes"/>
      <point x="250" y="724"/>
      <point x="366" y="844"/>
      <point x="522" y="844" type="curve" smooth="yes"/>
      <point x="678" y="844"/>
      <point x="794" y="724"/>
      <point x="794" y="564" type="curve" smooth="yes"/>
      <point x="794" y="404"/>
      <point x="678" y="284"/>
    </contour>
    <contour>
      <point x="152" y="100" type="line"/>
      <point x="976" y="944" type="line"/>
      <point x="892" y="1028" type="line"/>
      <point x="68" y="184" type="line"/>
    </contour>
  </outline>
</glyph>
<glyph name="increment" format="2">
  <advance width="1320"/>
  <unicode hex="2206"/>
  <outline>
    <contour>
      <point x="60" y="0" type="line"/>
      <point x="1260" y="0" type="line"/>
      <point x="1260" y="84" type="line"/>
      <point x="760" y="1400" type="line"/>
      <point x="560" y="1400" type="line"/>
      <point x="60" y="86" type="line"/>
    </contour>
    <contour>
      <point x="260" y="92" type="line"/>
      <point x="684" y="1214" type="line"/>
      <point x="636" y="1214" type="line"/>
      <point x="1060" y="92" type="line"/>
      <point x="1116" y="172" type="line"/>
      <point x="204" y="172" type="line"/>
    </contour>
  </outline>
</glyph>
<glyph name="product" format="2">
  <advance width="1416"/>
  <unicode hex="220F"/>
  <outline>
    <contour>
      <point x="230" y="-400" type="line"/>
      <point x="420" y="-400" type="line"/>
      <point x="420" y="1220" type="line"/>
      <point x="996" y="1220" type="line"/>
      <point x="996" y="-400" type="line"/>
      <point x="1186" y="-400" type="line"/>
      <point x="1186" y="1220" type="line"/>
      <point x="1386" y="1220" type="line"/>
      <point x="1386" y="1400" type="line"/>
      <point x="30" y="1400" type="line"/>
      <point x="30" y="1220" type="line"/>
      <point x="230" y="1220" type="line"/>
    </contour>
  </outline>
</glyph>
<glyph name="summation" format="2">
  <advance width="1200"/>
  <unicode hex="2211"/>
  <outline>
    <contour>
      <point x="40" y="-400" type="line"/>
      <point x="1180" y="-400" type="line"/>
      <point x="1180" y="-220" type="line"/>
      <point x="234" y="-220" type="line"/>
      <point x="268" y="-308" type="line"/>
      <point x="892" y="500" type="line"/>
      <point x="268" y="1308" type="line"/>
      <point x="234" y="1220" type="line"/>
      <point x="1160" y="1220" type="line"/>
      <point x="1160" y="1400" type="line"/>
      <point x="40" y="1400" type="line"/>
      <point x="40" y="1308" type="line"/>
      <point x="670" y="494" type="line"/>
      <point x="40" y="-320" type="line"/>
    </contour>
  </outline>
</glyph>
<glyph name="minus" format="2">
  <advance width="884"/>
  <unicode hex="2212"/>
  <outline>
    <contour>
      <point x="92" y="486" type="line"/>
      <point x="792" y="486" type="line"/>
      <point x="792" y="638" type="line"/>
      <point x="92" y="638" type="line"/>
    </contour>
  </outline>
</glyph>
<glyph name="radical" format="2">
  <advance width="1532"/>
  <unicode hex="221A"/>
  <outline>
    <contour>
      <point x="506" y="-400" type="line"/>
      <point x="696" y="-400" type="line"/>
      <point x="1248" y="1302" type="line"/>
      <point x="1138" y="1220" type="line"/>
      <point x="1502" y="1220" type="line"/>
      <point x="1502" y="1400" type="line"/>
      <point x="1086" y="1400" type="line"/>
      <point x="580" y="-174" type="line"/>
      <point x="622" y="-174" type="line"/>
      <point x="356" y="600" type="line"/>
      <point x="30" y="600" type="line"/>
      <point x="30" y="420" type="line"/>
      <point x="304" y="420" type="line"/>
      <point x="194" y="502" type="line"/>
    </contour>
  </outline>
</glyph>
<glyph name="infinity" format="2">
  <advance width="1466"/>
  <unicode hex="221E"/>
  <outline>
    <contour>
      <point x="440" y="352" type="curve" smooth="yes"/>
      <point x="640" y="352"/>
      <point x="790" y="502"/>
      <point x="790" y="704" type="curve" smooth="yes"/>
      <point x="790" y="906"/>
      <point x="640" y="1056"/>
      <point x="440" y="1056" type="curve" smooth="yes"/>
      <point x="234" y="1056"/>
      <point x="80" y="906"/>
      <point x="80" y="704" type="curve" smooth="yes"/>
      <point x="80" y="502"/>
      <point x="234" y="352"/>
    </contour>
    <contour>
      <point x="454" y="524" type="curve" smooth="yes"/>
      <point x="346" y="524"/>
      <point x="268" y="598"/>
      <point x="268" y="704" type="curve" smooth="yes"/>
      <point x="268" y="810"/>
      <point x="346" y="884"/>
      <point x="454" y="884" type="curve" smooth="yes"/>
      <point x="562" y="884"/>
      <point x="640" y="810"/>
      <point x="640" y="704" type="curve" smooth="yes"/>
      <point x="640" y="598"/>
      <point x="562" y="524"/>
    </contour>
    <contour>
      <point x="1026" y="352" type="curve" smooth="yes"/>
      <point x="1232" y="352"/>
      <point x="1386" y="502"/>
      <point x="1386" y="704" type="curve" smooth="yes"/>
      <point x="1386" y="906"/>
      <point x="1232" y="1056"/>
      <point x="1026" y="1056" type="curve" smooth="yes"/>
      <point x="826" y="1056"/>
      <point x="676" y="906"/>
      <point x="676" y="704" type="curve" smooth="yes"/>
      <point x="676" y="502"/>
      <point x="826" y="352"/>
    </contour>
    <contour>
      <point x="1012" y="524" type="curve" smooth="yes"/>
      <point x="904" y="524"/>
      <point x="826" y="598"/>
      <point x="826" y="704" type="curve" smooth="yes"/>
      <point x="826" y="810"/>
      <point x="904" y="884"/>
      <point x="1012" y="884" type="curve" smooth="yes"/>
      <point x="1120" y="884"/>
      <point x="1198" y="810"/>
      <point x="1198" y="704" type="curve" smooth="yes"/>
      <point x="1198" y="598"/>
      <point x="1120" y="524"/>
    </contour>
  </outline>
</glyph>
<glyph name="integral" format="2">
  <advance width="806"/>
  <unicode hex="222B"/>
  <outline>
    <contour>
      <point x="178" y="-428" type="curve" smooth="yes"/>
      <point x="350" y="-428"/>
      <point x="466" y="-320"/>
      <point x="474" y="-120" type="curve" smooth="yes"/>
      <point x="522" y="1066" type="line" smooth="yes"/>
      <point x="526" y="1186"/>
      <point x="578" y="1244"/>
      <point x="682" y="1244" type="curve" smooth="yes"/>
      <point x="716" y="1244"/>
      <point x="746" y="1238"/>
      <point x="772" y="1230" type="curve"/>
      <point x="786" y="1400" type="line"/>
      <point x="740" y="1418"/>
      <point x="688" y="1428"/>
      <point x="628" y="1428" type="curve" smooth="yes"/>
      <point x="456" y="1428"/>
      <point x="340" y="1320"/>
      <point x="332" y="1120" type="curve" smooth="yes"/>
      <point x="284" y="-66" type="line" smooth="yes"/>
      <point x="280" y="-186"/>
      <point x="228" y="-244"/>
      <point x="124" y="-244" type="curve" smooth="yes"/>
      <point x="90" y="-244"/>
      <point x="60" y="-238"/>
      <point x="34" y="-230" type="curve"/>
      <point x="20" y="-400" type="line"/>
      <point x="66" y="-418"/>
      <point x="118" y="-428"/>
    </contour>
  </outline>
</glyph>
<glyph name="approxequal" format="2">
  <advance width="924"/>
  <unicode hex="2248"/>
  <outline>
    <contour>
      <point x="630" y="588" type="curve" smooth="yes"/>
      <point x="756" y="588"/>
      <point x="826" y="676"/>
      <point x="832" y="838" type="curve"/>
      <point x="682" y="838" type="line"/>
      <point x="682" y="784"/>
      <point x="652" y="752"/>
      <point x="604" y="752" type="curve" smooth="yes"/>
      <point x="502" y="752"/>
      <point x="436" y="846"/>
      <point x="294" y="846" type="curve" smooth="yes"/>
      <point x="168" y="846"/>
      <point x="98" y="758"/>
      <point x="92" y="596" type="curve"/>
      <point x="242" y="596" type="line"/>
      <point x="242" y="650"/>
      <point x="272" y="682"/>
      <point x="320" y="682" type="curve" smooth="yes"/>
      <point x="430" y="682"/>
      <point x="492" y="588"/>
    </contour>
    <contour>
      <point x="630" y="284" type="curve" smooth="yes"/>
      <point x="756" y="284"/>
      <point x="826" y="372"/>
      <point x="832" y="534" type="curve"/>
      <point x="682" y="534" type="line"/>
      <point x="682" y="480"/>
      <point x="652" y="448"/>
      <point x="604" y="448" type="curve" smooth="yes"/>
      <point x="502" y="448"/>
      <point x="436" y="542"/>
      <point x="294" y="542" type="curve" smooth="yes"/>
      <point x="168" y="542"/>
      <point x="98" y="454"/>
      <point x="92" y="292" type="curve"/>
      <point x="242" y="292" type="line"/>
      <point x="242" y="346"/>
      <point x="272" y="378"/>
      <point x="320" y="378" type="curve" smooth="yes"/>
      <point x="430" y="378"/>
      <point x="492" y="284"/>
    </contour>
  </outline>
</glyph>
<glyph name="notequal" format="2">
  <advance width="884"/>
  <unicode hex="2260"/>
  <outline>
    <contour>
      <point x="152" y="200" type="line"/>
      <point x="312" y="200" type="line"/>
      <point x="732" y="908" type="line"/>
      <point x="572" y="908" type="line"/>
    </contour>
    <component base="equal"/>
  </outline>
</glyph>
<glyph name="lessequal" format="2">
  <advance width="864"/>
  <unicode hex="2264"/>
  <outline>
    <contour>
      <point x="812" y="336" type="line"/>
      <point x="812" y="500" type="line"/>
      <point x="264" y="688" type="line"/>
      <point x="812" y="876" type="line"/>
      <point x="812" y="1040" type="line"/>
      <point x="72" y="770" type="line"/>
      <point x="72" y="606" type="line"/>
    </contour>
    <contour>
      <point x="72" y="120" type="line"/>
      <point x="812" y="120" type="line"/>
      <point x="812" y="264" type="line"/>
      <point x="72" y="264" type="line"/>
    </contour>
  </outline>
</glyph>
<glyph name="lozenge" format="2">
  <advance width="1128"/>
  <unicode hex="25CA"/>
  <outline>
    <contour>
      <point x="504" y="0" type="line"/>
      <point x="624" y="0" type="line"/>
      <point x="1104" y="700" type="line"/>
      <point x="624" y="1400" type="line"/>
      <point x="504" y="1400" type="line"/>
      <point x="24" y="700" type="line"/>
    </contour>
    <contour>
      <point x="532" y="186" type="line"/>
      <point x="596" y="186" type="line"/>
      <point x="248" y="700" type="line"/>
      <point x="596" y="1214" type="line"/>
      <point x="532" y="1214" type="line"/>
      <point x="880" y="700" type="line"/>
    </contour>
  </outline>
</glyph>
<glyph name="A.sc" format="2">
  <advance width="1068"/>
  <outline>
    <contour>
      <point x="16" y="0" type="line"/>
      <point x="212" y="0" type="line"/>
      <point x="320" y="282" type="line"/>
      <point x="748" y="282" type="line"/>
      <point x="858" y="0" type="line"/>
      <point x="1052" y="0" type="line"/>
      <point x="628" y="1120" type="line"/>
      <point x="442" y="1120" type="line"/>
    </contour>
    <contour>
      <point x="382" y="458" type="line"/>
      <point x="534" y="836" type="line"/>
      <point x="686" y="458" type="line"/>
    </contour>
  </outline>
</glyph>
<glyph name="AE.sc" format="2">
  <advance width="1484"/>
  <outline>
    <contour>
      <point x="-16" y="0" type="line"/>
      <point x="172" y="0" type="line"/>
      <point x="320" y="276" type="line"/>
      <point x="670" y="276" type="line"/>
      <point x="670" y="0" type="line"/>
      <point x="1410" y="0" type="line"/>
      <point x="1410" y="176" type="line"/>
      <point x="876" y="176" type="line"/>
      <point x="876" y="496" type="line"/>
      <point x="1276" y="496" type="line"/>
      <point x="1276" y="672" type="line"/>
      <point x="876" y="672" type="line"/>
      <point x="876" y="942" type="line"/>
      <point x="1394" y="942" type="line"/>
      <point x="1394" y="1120" type="line"/>
      <point x="564" y="1120" type="line"/>
    </contour>
    <contour>
      <point x="406" y="456" type="line"/>
      <point x="670" y="938" type="line"/>
      <point x="670" y="456" type="line"/>
    </contour>
  </outline>
</glyph>
<glyph name="B.sc" format="2">
  <advance width="1068"/>
  <outline>
    <contour>
      <point x="148" y="0" type="line"/>
      <point x="580" y="0" type="line" smooth="yes"/>
      <point x="776" y="0"/>
      <point x="996" y="62"/>
      <point x="996" y="330" type="curve" smooth="yes"/>
      <point x="996" y="466"/>
      <point x="940" y="546"/>
      <point x="794" y="598" type="curve"/>
      <point x="876" y="664"/>
      <point x="892" y="738"/>
      <point x="892" y="836" type="curve" smooth="yes"/>
      <point x="892" y="1080"/>
      <point x="716" y="1120"/>
      <point x="440" y="1120" type="curve" smooth="yes"/>
      <point x="148" y="1120" type="line"/>
    </contour>
    <contour>
      <point x="334" y="162" type="line"/>
      <point x="334" y="512" type="line"/>
      <point x="574" y="512" type="line" smooth="yes"/>
      <point x="700" y="512"/>
      <point x="802" y="474"/>
      <point x="802" y="332" type="curve" smooth="yes"/>
      <point x="802" y="194"/>
      <point x="694" y="162"/>
      <point x="524" y="162" type="curve" smooth="yes"/>
    </contour>
    <contour>
      <point x="334" y="664" type="line"/>
      <point x="334" y="960" type="line"/>
      <point x="506" y="960" type="line" smooth="yes"/>
      <point x="622" y="960"/>
      <point x="710" y="938"/>
      <point x="710" y="812" type="curve" smooth="yes"/>
      <point x="710" y="684"/>
      <point x="620" y="664"/>
      <point x="540" y="664" type="curve" smooth="yes"/>
    </contour>
  </outline>
</glyph>
<glyph name="C.sc" format="2">
  <advance width="1074"/>
  <outline>
    <contour>
      <point x="670" y="-22" type="curve" smooth="yes"/>
      <point x="792" y="-22"/>
      <point x="916" y="4"/>
      <point x="1002" y="42" type="curve"/>
      <point x="982" y="218" type="line"/>
      <point x="886" y="184"/>
      <point x="792" y="154"/>
      <point x="672" y="154" type="curve" smooth="yes"/>
      <point x="414" y="154"/>
      <point x="282" y="328"/>
      <point x="282" y="560" type="curve" smooth="yes"/>
      <point x="282" y="792"/>
      <point x="414" y="966"/>
      <point x="670" y="966" type="curve" smooth="yes"/>
      <point x="792" y="966"/>
      <point x="886" y="936"/>
      <point x="982" y="902" type="curve"/>
      <point x="1002" y="1076" type="line"/>
      <point x="918" y="1116"/>
      <point x="792" y="1142"/>
      <point x="670" y="1142" type="curve" smooth="yes"/>
      <point x="328" y="1142"/>
      <point x="78" y="914"/>
      <point x="78" y="560" type="curve" smooth="yes"/>
      <point x="78" y="206"/>
      <point x="328" y="-22"/>
    </contour>
  </outline>
</glyph>
<glyph name="D.sc" format="2">
  <advance width="1258"/>
  <outline>
    <contour>
      <point x="148" y="0" type="line"/>
      <point x="590" y="0" type="line" smooth="yes"/>
      <point x="934" y="0"/>
      <point x="1180" y="208"/>
      <point x="1180" y="560" type="curve" smooth="yes"/>
      <point x="1180" y="912"/>
      <point x="934" y="1120"/>
      <point x="590" y="1120" type="curve" smooth="yes"/>
      <point x="148" y="1120" type="line"/>
    </contour>
    <contour>
      <point x="334" y="176" type="line"/>
      <point x="334" y="944" type="line"/>
      <point x="590" y="944" type="line" smooth="yes"/>
      <point x="844" y="944"/>
      <point x="976" y="794"/>
      <point x="976" y="560" type="curve" smooth="yes"/>
      <point x="976" y="326"/>
      <point x="844" y="176"/>
      <point x="590" y="176" type="curve" smooth="yes"/>
    </contour>
  </outline>
</glyph>
<glyph name="E.sc" format="2">
  <advance width="980"/>
  <outline>
    <contour>
      <point x="148" y="0" type="line"/>
      <point x="906" y="0" type="line"/>
      <point x="906" y="176" type="line"/>
      <point x="338" y="176" type="line"/>
      <point x="338" y="496" type="line"/>
      <point x="772" y="496" type="line"/>
      <point x="772" y="672" type="line"/>
      <point x="338" y="672" type="line"/>
      <point x="338" y="944" type="line"/>
      <point x="890" y="944" type="line"/>
      <point x="890" y="1120" type="line"/>
      <point x="148" y="1120" type="line"/>
    </contour>
  </outline>
</glyph>
<glyph name="F.sc" format="2">
  <advance width="918"/>
  <outline>
    <contour>
      <point x="148" y="0" type="line"/>
      <point x="334" y="0" type="line"/>
      <point x="334" y="496" type="line"/>
      <point x="754" y="496" type="line"/>
      <point x="754" y="672" type="line"/>
      <point x="334" y="672" type="line"/>
      <point x="334" y="944" type="line"/>
      <point x="876" y="944" type="line"/>
      <point x="876" y="1120" type="line"/>
      <point x="148" y="1120" type="line"/>
    </contour>
  </outline>
</glyph>
<glyph name="G.sc" format="2">
  <advance width="1166"/>
  <outline>
    <contour>
      <point x="660" y="-22" type="curve" smooth="yes"/>
      <point x="796" y="-22"/>
      <point x="976" y="16"/>
      <point x="1068" y="62" type="curve"/>
      <point x="1068" y="562" type="line"/>
      <point x="718" y="562" type="line"/>
      <point x="718" y="404" type="line"/>
      <point x="880" y="404" type="line"/>
      <point x="880" y="176" type="line"/>
      <point x="820" y="160"/>
      <point x="748" y="154"/>
      <point x="698" y="154" type="curve" smooth="yes"/>
      <point x="416" y="154"/>
      <point x="282" y="324"/>
      <point x="282" y="564" type="curve" smooth="yes"/>
      <point x="282" y="792"/>
      <point x="406" y="966"/>
      <point x="678" y="966" type="curve" smooth="yes"/>
      <point x="786" y="966"/>
      <point x="914" y="938"/>
      <point x="1010" y="904" type="curve"/>
      <point x="1028" y="1078" type="line"/>
      <point x="940" y="1116"/>
      <point x="790" y="1142"/>
      <point x="674" y="1142" type="curve" smooth="yes"/>
      <point x="326" y="1142"/>
      <point x="78" y="914"/>
      <point x="78" y="562" type="curve" smooth="yes"/>
      <point x="78" y="206"/>
      <point x="328" y="-22"/>
    </contour>
  </outline>
</glyph>
<glyph name="H.sc" format="2">
  <advance width="1292"/>
  <outline>
    <contour>
      <point x="148" y="0" type="line"/>
      <point x="334" y="0" type="line"/>
      <point x="334" y="496" type="line"/>
      <point x="958" y="496" type="line"/>
      <point x="958" y="0" type="line"/>
      <point x="1144" y="0" type="line"/>
      <point x="1144" y="1120" type="line"/>
      <point x="958" y="1120" type="line"/>
      <point x="958" y="674" type="line"/>
      <point x="334" y="674" type="line"/>
      <point x="334" y="1120" type="line"/>
      <point x="148" y="1120" type="line"/>
    </contour>
  </outline>
</glyph>
<glyph name="I.sc" format="2">
  <advance width="482"/>
  <outline>
    <contour>
      <point x="148" y="0" type="line"/>
      <point x="334" y="0" type="line"/>
      <point x="334" y="1120" type="line"/>
      <point x="148" y="1120" type="line"/>
    </contour>
  </outline>
</glyph>
<glyph name="J.sc" format="2">
  <advance width="482"/>
  <outline>
    <contour>
      <point x="14" y="-276" type="line"/>
      <point x="56" y="-276" type="line" smooth="yes"/>
      <point x="240" y="-276"/>
      <point x="334" y="-198"/>
      <point x="334" y="-44" type="curve" smooth="yes"/>
      <point x="334" y="1120" type="line"/>
      <point x="148" y="1120" type="line"/>
      <point x="148" y="2" type="line" smooth="yes"/>
      <point x="148" y="-98"/>
      <point x="122" y="-144"/>
      <point x="20" y="-144" type="curve" smooth="yes"/>
      <point x="-4" y="-144" type="line"/>
    </contour>
  </outline>
</glyph>
<glyph name="K.sc" format="2">
  <advance width="1050"/>
  <outline>
    <contour>
      <point x="820" y="0" type="line"/>
      <point x="1024" y="0" type="line"/>
      <point x="594" y="592" type="line"/>
      <point x="1024" y="1120" type="line"/>
      <point x="820" y="1120" type="line"/>
      <point x="390" y="592" type="line"/>
    </contour>
    <contour>
      <point x="148" y="0" type="line"/>
      <point x="334" y="0" type="line"/>
      <point x="334" y="1120" type="line"/>
      <point x="148" y="1120" type="line"/>
    </contour>
  </outline>
</glyph>
<glyph name="M.sc" format="2">
  <advance width="1424"/>
  <outline>
    <contour>
      <point x="92" y="0" type="line"/>
      <point x="288" y="0" type="line"/>
      <point x="396" y="784" type="line"/>
      <point x="714" y="246" type="line"/>
      <point x="1028" y="784" type="line"/>
      <point x="1136" y="0" type="line"/>
      <point x="1332" y="0" type="line"/>
      <point x="1170" y="1120" type="line"/>
      <point x="1014" y="1120" type="line"/>
      <point x="714" y="594" type="line"/>
      <point x="410" y="1120" type="line"/>
      <point x="254" y="1120" type="line"/>
    </contour>
  </outline>
</glyph>
<glyph name="N.sc" format="2">
  <advance width="1228"/>
  <outline>
    <contour>
      <point x="148" y="0" type="line"/>
      <point x="334" y="0" type="line"/>
      <point x="334" y="810" type="line"/>
      <point x="924" y="0" type="line"/>
      <point x="1080" y="0" type="line"/>
      <point x="1080" y="1120" type="line"/>
      <point x="892" y="1120" type="line"/>
      <point x="892" y="356" type="line"/>
      <point x="340" y="1120" type="line"/>
      <point x="148" y="1120" type="line"/>
    </contour>
  </outline>
</glyph>
<glyph name="O.sc" format="2">
  <advance width="1330"/>
  <outline>
    <contour>
      <point x="664" y="-22" type="curve" smooth="yes"/>
      <point x="1004" y="-22"/>
      <point x="1252" y="206"/>
      <point x="1252" y="560" type="curve" smooth="yes"/>
      <point x="1252" y="914"/>
      <point x="1004" y="1142"/>
      <point x="664" y="1142" type="curve" smooth="yes"/>
      <point x="324" y="1142"/>
      <point x="78" y="914"/>
      <point x="78" y="560" type="curve" smooth="yes"/>
      <point x="78" y="206"/>
      <point x="324" y="-22"/>
    </contour>
    <contour>
      <point x="664" y="154" type="curve" smooth="yes"/>
      <point x="410" y="154"/>
      <point x="282" y="328"/>
      <point x="282" y="560" type="curve" smooth="yes"/>
      <point x="282" y="792"/>
      <point x="410" y="966"/>
      <point x="664" y="966" type="curve"/>
      <point x="918" y="966"/>
      <point x="1046" y="792"/>
      <point x="1046" y="560" type="curve" smooth="yes"/>
      <point x="1046" y="328"/>
      <point x="918" y="154"/>
    </contour>
  </outline>
</glyph>
<glyph name="OE.sc" format="2">
  <advance width="1842"/>
  <outline>
    <contour>
      <point x="658" y="-22" type="curve" smooth="yes"/>
      <point x="796" y="-22"/>
      <point x="918" y="18"/>
      <point x="1050" y="104" type="curve"/>
      <point x="1050" y="0" type="line"/>
      <point x="1768" y="0" type="line"/>
      <point x="1768" y="176" type="line"/>
      <point x="1236" y="176" type="line"/>
      <point x="1236" y="496" type="line"/>
      <point x="1634" y="496" type="line"/>
      <point x="1634" y="672" type="line"/>
      <point x="1236" y="672" type="line"/>
      <point x="1236" y="944" type="line"/>
      <point x="1752" y="944" type="line"/>
      <point x="1752" y="1120" type="line"/>
      <point x="1050" y="1120" type="line"/>
      <point x="1050" y="1016" type="line"/>
      <point x="918" y="1102"/>
      <point x="796" y="1142"/>
      <point x="658" y="1142" type="curve" smooth="yes"/>
      <point x="322" y="1142"/>
      <point x="78" y="914"/>
      <point x="78" y="560" type="curve" smooth="yes"/>
      <point x="78" y="206"/>
      <point x="322" y="-22"/>
    </contour>
    <contour>
      <point x="658" y="154" type="curve" smooth="yes"/>
      <point x="404" y="154"/>
      <point x="278" y="326"/>
      <point x="278" y="560" type="curve" smooth="yes"/>
      <point x="278" y="794"/>
      <point x="404" y="966"/>
      <point x="658" y="966" type="curve" smooth="yes"/>
      <point x="910" y="966"/>
      <point x="1036" y="794"/>
      <point x="1036" y="560" type="curve" smooth="yes"/>
      <point x="1036" y="326"/>
      <point x="910" y="154"/>
    </contour>
  </outline>
</glyph>
<glyph name="P.sc" format="2">
  <advance width="1020"/>
  <outline>
    <contour>
      <point x="148" y="0" type="line"/>
      <point x="340" y="0" type="line"/>
      <point x="340" y="376" type="line"/>
      <point x="578" y="376" type="line" smooth="yes"/>
      <point x="740" y="376"/>
      <point x="966" y="456"/>
      <point x="966" y="768" type="curve" smooth="yes"/>
      <point x="966" y="1072"/>
      <point x="780" y="1120"/>
      <point x="508" y="1120" type="curve" smooth="yes"/>
      <point x="148" y="1120" type="line"/>
    </contour>
    <contour>
      <point x="340" y="548" type="line"/>
      <point x="340" y="962" type="line"/>
      <point x="520" y="962" type="line" smooth="yes"/>
      <point x="716" y="962"/>
      <point x="774" y="904"/>
      <point x="774" y="764" type="curve" smooth="yes"/>
      <point x="774" y="612"/>
      <point x="710" y="548"/>
      <point x="548" y="548" type="curve" smooth="yes"/>
    </contour>
  </outline>
</glyph>
<glyph name="Q.sc" format="2">
  <advance width="1330"/>
  <outline>
    <contour>
      <point x="664" y="-22" type="curve" smooth="yes"/>
      <point x="796" y="-22"/>
      <point x="916" y="12"/>
      <point x="1020" y="80" type="curve"/>
      <point x="1134" y="-8" type="line"/>
      <point x="1238" y="116" type="line"/>
      <point x="1134" y="198" type="line"/>
      <point x="1212" y="302"/>
      <point x="1252" y="422"/>
      <point x="1252" y="560" type="curve" smooth="yes"/>
      <point x="1252" y="914"/>
      <point x="1004" y="1142"/>
      <point x="664" y="1142" type="curve" smooth="yes"/>
      <point x="324" y="1142"/>
      <point x="78" y="914"/>
      <point x="78" y="560" type="curve" smooth="yes"/>
      <point x="78" y="206"/>
      <point x="324" y="-22"/>
    </contour>
    <contour>
      <point x="664" y="154" type="curve" smooth="yes"/>
      <point x="410" y="154"/>
      <point x="282" y="326"/>
      <point x="282" y="560" type="curve" smooth="yes"/>
      <point x="282" y="794"/>
      <point x="412" y="966"/>
      <point x="666" y="966" type="curve" smooth="yes"/>
      <point x="922" y="966"/>
      <point x="1056" y="794"/>
      <point x="1056" y="560" type="curve" smooth="yes"/>
      <point x="1056" y="476"/>
      <point x="1046" y="396"/>
      <point x="990" y="318" type="curve"/>
      <point x="824" y="448" type="line"/>
      <point x="722" y="320" type="line"/>
      <point x="882" y="200" type="line"/>
      <point x="818" y="166"/>
      <point x="736" y="154"/>
    </contour>
  </outline>
</glyph>
<glyph name="R.sc" format="2">
  <advance width="1074"/>
  <outline>
    <contour>
      <point x="148" y="0" type="line"/>
      <point x="340" y="0" type="line"/>
      <point x="340" y="424" type="line"/>
      <point x="576" y="424" type="line"/>
      <point x="832" y="0" type="line"/>
      <point x="1030" y="0" type="line"/>
      <point x="756" y="472" type="line"/>
      <point x="882" y="536"/>
      <point x="966" y="634"/>
      <point x="966" y="796" type="curve" smooth="yes"/>
      <point x="966" y="1042"/>
      <point x="796" y="1120"/>
      <point x="556" y="1120" type="curve" smooth="yes"/>
      <point x="148" y="1120" type="line"/>
    </contour>
    <contour>
      <point x="340" y="600" type="line"/>
      <point x="340" y="966" type="line"/>
      <point x="532" y="966" type="line" smooth="yes"/>
      <point x="706" y="966"/>
      <point x="772" y="900"/>
      <point x="772" y="786" type="curve" smooth="yes"/>
      <point x="772" y="664"/>
      <point x="690" y="600"/>
      <point x="552" y="600" type="curve" smooth="yes"/>
    </contour>
  </outline>
</glyph>
